%TF.GenerationSoftware,KiCad,Pcbnew,8.0.6*%
%TF.CreationDate,2024-12-20T13:40:35-07:00*%
%TF.ProjectId,SparkFun_IoT_RedBoard-RP2350_panelized,53706172-6b46-4756-9e5f-496f545f5265,v01*%
%TF.SameCoordinates,Original*%
%TF.FileFunction,Soldermask,Bot*%
%TF.FilePolarity,Negative*%
%FSLAX46Y46*%
G04 Gerber Fmt 4.6, Leading zero omitted, Abs format (unit mm)*
G04 Created by KiCad (PCBNEW 8.0.6) date 2024-12-20 13:40:35*
%MOMM*%
%LPD*%
G01*
G04 APERTURE LIST*
G04 Aperture macros list*
%AMRoundRect*
0 Rectangle with rounded corners*
0 $1 Rounding radius*
0 $2 $3 $4 $5 $6 $7 $8 $9 X,Y pos of 4 corners*
0 Add a 4 corners polygon primitive as box body*
4,1,4,$2,$3,$4,$5,$6,$7,$8,$9,$2,$3,0*
0 Add four circle primitives for the rounded corners*
1,1,$1+$1,$2,$3*
1,1,$1+$1,$4,$5*
1,1,$1+$1,$6,$7*
1,1,$1+$1,$8,$9*
0 Add four rect primitives between the rounded corners*
20,1,$1+$1,$2,$3,$4,$5,0*
20,1,$1+$1,$4,$5,$6,$7,0*
20,1,$1+$1,$6,$7,$8,$9,0*
20,1,$1+$1,$8,$9,$2,$3,0*%
G04 Aperture macros list end*
%ADD10C,0.000000*%
%ADD11C,3.000000*%
%ADD12RoundRect,0.558000X0.000010X-0.000010X0.000010X0.000010X-0.000010X0.000010X-0.000010X-0.000010X0*%
%ADD13RoundRect,0.558000X0.000010X0.000010X-0.000010X0.000010X-0.000010X-0.000010X0.000010X-0.000010X0*%
%ADD14RoundRect,0.050000X0.330200X0.635000X-0.330200X0.635000X-0.330200X-0.635000X0.330200X-0.635000X0*%
%ADD15RoundRect,0.050000X0.635000X-0.317500X0.635000X0.317500X-0.635000X0.317500X-0.635000X-0.317500X0*%
%ADD16C,1.979600*%
%ADD17RoundRect,0.050000X-0.635000X0.317500X-0.635000X-0.317500X0.635000X-0.317500X0.635000X0.317500X0*%
%ADD18RoundRect,0.050000X-0.330200X-0.635000X0.330200X-0.635000X0.330200X0.635000X-0.330200X0.635000X0*%
%ADD19RoundRect,0.050000X0.635000X-0.330200X0.635000X0.330200X-0.635000X0.330200X-0.635000X-0.330200X0*%
%ADD20RoundRect,0.050000X1.500000X0.450000X-1.500000X0.450000X-1.500000X-0.450000X1.500000X-0.450000X0*%
%ADD21C,0.600000*%
%ADD22C,3.200000*%
%ADD23C,0.750000*%
%ADD24O,1.700000X1.100000*%
%ADD25O,2.200000X1.100000*%
%ADD26C,2.132000*%
%ADD27C,1.100000*%
G04 APERTURE END LIST*
D10*
%TO.C,JP6*%
G36*
X41754000Y68879500D02*
G01*
X41246000Y68879500D01*
X41246000Y69360500D01*
X41754000Y69360500D01*
X41754000Y68879500D01*
G37*
%TO.C,JP4*%
G36*
X42223900Y78866000D02*
G01*
X40776100Y78866000D01*
X40776100Y79374000D01*
X42223900Y79374000D01*
X42223900Y78866000D01*
G37*
%TO.C,JP3*%
G36*
X3603300Y108979500D02*
G01*
X3095300Y108979500D01*
X3095300Y109460500D01*
X3603300Y109460500D01*
X3603300Y108979500D01*
G37*
G36*
X4636000Y108956500D02*
G01*
X4128000Y108956500D01*
X4128000Y109437500D01*
X4636000Y109437500D01*
X4636000Y108956500D01*
G37*
%TO.C,JP5*%
G36*
X36190500Y77116000D02*
G01*
X35709500Y77116000D01*
X35709500Y77624000D01*
X36190500Y77624000D01*
X36190500Y77116000D01*
G37*
%TO.C,JP1*%
G36*
X2104000Y94379500D02*
G01*
X1596000Y94379500D01*
X1596000Y94860500D01*
X2104000Y94860500D01*
X2104000Y94379500D01*
G37*
G36*
X2104000Y35259500D02*
G01*
X1596000Y35259500D01*
X1596000Y35740500D01*
X2104000Y35740500D01*
X2104000Y35259500D01*
G37*
%TO.C,JP5*%
G36*
X36190500Y17996000D02*
G01*
X35709500Y17996000D01*
X35709500Y18504000D01*
X36190500Y18504000D01*
X36190500Y17996000D01*
G37*
%TO.C,JP3*%
G36*
X3603300Y49859500D02*
G01*
X3095300Y49859500D01*
X3095300Y50340500D01*
X3603300Y50340500D01*
X3603300Y49859500D01*
G37*
G36*
X4636000Y49836500D02*
G01*
X4128000Y49836500D01*
X4128000Y50317500D01*
X4636000Y50317500D01*
X4636000Y49836500D01*
G37*
%TO.C,JP4*%
G36*
X42223900Y19746000D02*
G01*
X40776100Y19746000D01*
X40776100Y20254000D01*
X42223900Y20254000D01*
X42223900Y19746000D01*
G37*
%TO.C,JP6*%
G36*
X41754000Y9759500D02*
G01*
X41246000Y9759500D01*
X41246000Y10240500D01*
X41754000Y10240500D01*
X41754000Y9759500D01*
G37*
%TD*%
D11*
%TO.C,*%
X71820000Y119767500D03*
%TD*%
%TO.C,*%
X-3220000Y119767500D03*
%TD*%
%TO.C,*%
X-3220000Y-2247500D03*
%TD*%
D12*
%TO.C,TP7*%
X22860000Y94680000D03*
%TD*%
D13*
%TO.C,TP8*%
X22860000Y74360000D03*
%TD*%
D14*
%TO.C,JP6*%
X42020700Y69120000D03*
X40979300Y69120000D03*
%TD*%
D15*
%TO.C,JP2*%
X17100000Y73713600D03*
X17100000Y74526400D03*
%TD*%
D16*
%TO.C,JP4*%
X41500000Y80390000D03*
D17*
X41500000Y79628000D03*
X41500000Y78612000D03*
D16*
X41500000Y77850000D03*
%TD*%
D13*
%TO.C,TP2*%
X50800000Y79440000D03*
%TD*%
D18*
%TO.C,JP3*%
X2828600Y109220000D03*
X3870000Y109220000D03*
D14*
X4911400Y109220000D03*
%TD*%
D19*
%TO.C,JP5*%
X35950000Y76849300D03*
X35950000Y77890700D03*
%TD*%
D20*
%TO.C,J5*%
X2000000Y103697000D03*
X2000000Y101919000D03*
X2000000Y100141000D03*
X2000000Y98363000D03*
%TD*%
D12*
%TO.C,TP9*%
X25400000Y104840000D03*
%TD*%
D13*
%TO.C,TP4*%
X60960000Y87060000D03*
%TD*%
D12*
%TO.C,TP6*%
X22860000Y92140000D03*
%TD*%
D13*
%TO.C,TP5*%
X55880000Y87060000D03*
%TD*%
%TO.C,TP1*%
X17780000Y79440000D03*
%TD*%
D12*
%TO.C,TP11*%
X15240000Y104840000D03*
%TD*%
D18*
%TO.C,JP1*%
X1329300Y94620000D03*
X2370700Y94620000D03*
%TD*%
D13*
%TO.C,TP3*%
X50800000Y81980000D03*
%TD*%
D21*
%TO.C,FID2*%
X66000000Y65620000D03*
%TD*%
D13*
%TO.C,TP10*%
X10160000Y115000000D03*
%TD*%
D21*
%TO.C,FID3*%
X9000000Y116520000D03*
%TD*%
D22*
%TO.C,ST2*%
X13980000Y64190000D03*
%TD*%
D23*
%TO.C,J4*%
X4961250Y103920000D03*
X4961250Y98140000D03*
D24*
X1311250Y105348000D03*
D25*
X5491250Y105348000D03*
X5491250Y96712000D03*
D24*
X1311250Y96712000D03*
%TD*%
D16*
%TO.C,J6*%
X20330000Y70120000D03*
X22870000Y70120000D03*
%TD*%
D26*
%TO.C,J3*%
X1905000Y70296000D03*
X6477000Y70296000D03*
%TD*%
D22*
%TO.C,ST1*%
X15250000Y112460000D03*
%TD*%
%TO.C,ST3*%
X66050000Y97210000D03*
%TD*%
D27*
%TO.C,J14*%
X4100000Y91502000D03*
X4100000Y83502000D03*
%TD*%
D22*
%TO.C,ST4*%
X66050000Y69270000D03*
%TD*%
D16*
%TO.C,J10*%
X50000000Y98120000D03*
X50000000Y100660000D03*
X50000000Y103200000D03*
%TD*%
%TO.C,H1*%
X35570000Y60380000D03*
X38110000Y60380000D03*
X63510000Y60380000D03*
X60970000Y60380000D03*
X58430000Y60380000D03*
X55890000Y60380000D03*
X53350000Y60380000D03*
X50810000Y60380000D03*
X23886000Y116260000D03*
X63510000Y116260000D03*
X60970000Y116260000D03*
X58430000Y116260000D03*
X55890000Y116260000D03*
X53350000Y116260000D03*
X50810000Y116260000D03*
X48270000Y116260000D03*
X45730000Y116260000D03*
X41666000Y116260000D03*
X39126000Y116260000D03*
X36586000Y116260000D03*
X34046000Y116260000D03*
X31506000Y116260000D03*
X28966000Y116260000D03*
X21346000Y116260000D03*
X18806000Y116260000D03*
X26426000Y116260000D03*
X40650000Y60380000D03*
X43190000Y60380000D03*
X30490000Y60380000D03*
X27950000Y60380000D03*
X45730000Y60380000D03*
X33030000Y60380000D03*
%TD*%
%TO.C,H1*%
X35570000Y1260000D03*
X38110000Y1260000D03*
X63510000Y1260000D03*
X60970000Y1260000D03*
X58430000Y1260000D03*
X55890000Y1260000D03*
X53350000Y1260000D03*
X50810000Y1260000D03*
X23886000Y57140000D03*
X63510000Y57140000D03*
X60970000Y57140000D03*
X58430000Y57140000D03*
X55890000Y57140000D03*
X53350000Y57140000D03*
X50810000Y57140000D03*
X48270000Y57140000D03*
X45730000Y57140000D03*
X41666000Y57140000D03*
X39126000Y57140000D03*
X36586000Y57140000D03*
X34046000Y57140000D03*
X31506000Y57140000D03*
X28966000Y57140000D03*
X21346000Y57140000D03*
X18806000Y57140000D03*
X26426000Y57140000D03*
X40650000Y1260000D03*
X43190000Y1260000D03*
X30490000Y1260000D03*
X27950000Y1260000D03*
X45730000Y1260000D03*
X33030000Y1260000D03*
%TD*%
%TO.C,J10*%
X50000000Y39000000D03*
X50000000Y41540000D03*
X50000000Y44080000D03*
%TD*%
D22*
%TO.C,ST4*%
X66050000Y10150000D03*
%TD*%
D27*
%TO.C,J14*%
X4100000Y32382000D03*
X4100000Y24382000D03*
%TD*%
D22*
%TO.C,ST3*%
X66050000Y38090000D03*
%TD*%
%TO.C,ST1*%
X15250000Y53340000D03*
%TD*%
D26*
%TO.C,J3*%
X1905000Y11176000D03*
X6477000Y11176000D03*
%TD*%
D16*
%TO.C,J6*%
X20330000Y11000000D03*
X22870000Y11000000D03*
%TD*%
D23*
%TO.C,J4*%
X4961250Y44800000D03*
X4961250Y39020000D03*
D24*
X1311250Y46228000D03*
D25*
X5491250Y46228000D03*
X5491250Y37592000D03*
D24*
X1311250Y37592000D03*
%TD*%
D22*
%TO.C,ST2*%
X13980000Y5070000D03*
%TD*%
D21*
%TO.C,FID3*%
X9000000Y57400000D03*
%TD*%
D13*
%TO.C,TP10*%
X10160000Y55880000D03*
%TD*%
D21*
%TO.C,FID2*%
X66000000Y6500000D03*
%TD*%
D13*
%TO.C,TP3*%
X50800000Y22860000D03*
%TD*%
D18*
%TO.C,JP1*%
X1329300Y35500000D03*
X2370700Y35500000D03*
%TD*%
D12*
%TO.C,TP11*%
X15240000Y45720000D03*
%TD*%
D13*
%TO.C,TP1*%
X17780000Y20320000D03*
%TD*%
%TO.C,TP5*%
X55880000Y27940000D03*
%TD*%
D12*
%TO.C,TP6*%
X22860000Y33020000D03*
%TD*%
D13*
%TO.C,TP4*%
X60960000Y27940000D03*
%TD*%
D12*
%TO.C,TP9*%
X25400000Y45720000D03*
%TD*%
D20*
%TO.C,J5*%
X2000000Y44577000D03*
X2000000Y42799000D03*
X2000000Y41021000D03*
X2000000Y39243000D03*
%TD*%
D19*
%TO.C,JP5*%
X35950000Y17729300D03*
X35950000Y18770700D03*
%TD*%
D18*
%TO.C,JP3*%
X2828600Y50100000D03*
X3870000Y50100000D03*
D14*
X4911400Y50100000D03*
%TD*%
D13*
%TO.C,TP2*%
X50800000Y20320000D03*
%TD*%
D16*
%TO.C,JP4*%
X41500000Y21270000D03*
D17*
X41500000Y20508000D03*
X41500000Y19492000D03*
D16*
X41500000Y18730000D03*
%TD*%
D15*
%TO.C,JP2*%
X17100000Y14593600D03*
X17100000Y15406400D03*
%TD*%
D14*
%TO.C,JP6*%
X42020700Y10000000D03*
X40979300Y10000000D03*
%TD*%
D13*
%TO.C,TP8*%
X22860000Y15240000D03*
%TD*%
D12*
%TO.C,TP7*%
X22860000Y35560000D03*
%TD*%
M02*
