%TF.GenerationSoftware,KiCad,Pcbnew,8.0.6*%
%TF.CreationDate,2025-02-07T12:31:58-07:00*%
%TF.ProjectId,SparkFun_IoT_RedBoard-RP2350_panelized,53706172-6b46-4756-9e5f-496f545f5265,v10*%
%TF.SameCoordinates,Original*%
%TF.FileFunction,Soldermask,Bot*%
%TF.FilePolarity,Negative*%
%FSLAX46Y46*%
G04 Gerber Fmt 4.6, Leading zero omitted, Abs format (unit mm)*
G04 Created by KiCad (PCBNEW 8.0.6) date 2025-02-07 12:31:58*
%MOMM*%
%LPD*%
G01*
G04 APERTURE LIST*
%TA.AperFunction,Profile*%
%ADD10C,0.100000*%
%TD*%
%TA.AperFunction,Profile*%
%ADD11C,0.200000*%
%TD*%
%ADD12C,0.250000*%
%ADD13C,0.500000*%
G04 APERTURE END LIST*
D10*
X-5670000Y-610000D02*
X-5670000Y118130000D01*
X371710000Y-610000D02*
X-5670000Y-610000D01*
X371710000Y118130000D02*
X371710000Y-610000D01*
X-5670000Y118130000D02*
X371710000Y118130000D01*
X-12020000Y-6960000D02*
X-12020000Y124480000D01*
X378060000Y-6960000D02*
X-12020000Y-6960000D01*
X378060000Y124480000D02*
X378060000Y-6960000D01*
X-12020000Y124480000D02*
X378060000Y124480000D01*
D11*
%TO.C,H1*%
X297450000Y117530000D02*
X297450000Y59110000D01*
X297450000Y117530000D02*
X362220000Y117530000D01*
X297450000Y59110000D02*
X363490000Y59110000D01*
X362220000Y117530000D02*
X363490000Y116260000D01*
X363490000Y116260000D02*
X363490000Y102290000D01*
X363490000Y102290000D02*
X366030000Y99750000D01*
X363490000Y64190000D02*
X366030000Y66730000D01*
X363490000Y59110000D02*
X363490000Y64190000D01*
X366030000Y99750000D02*
X366030000Y66730000D01*
X297450000Y58410000D02*
X297450000Y-10000D01*
X297450000Y58410000D02*
X362220000Y58410000D01*
X297450000Y-10000D02*
X363490000Y-10000D01*
X362220000Y58410000D02*
X363490000Y57140000D01*
X363490000Y57140000D02*
X363490000Y43170000D01*
X363490000Y43170000D02*
X366030000Y40630000D01*
X363490000Y5070000D02*
X366030000Y7610000D01*
X363490000Y-10000D02*
X363490000Y5070000D01*
X366030000Y40630000D02*
X366030000Y7610000D01*
X223090000Y117530000D02*
X223090000Y59110000D01*
X223090000Y117530000D02*
X287860000Y117530000D01*
X223090000Y59110000D02*
X289130000Y59110000D01*
X287860000Y117530000D02*
X289130000Y116260000D01*
X289130000Y116260000D02*
X289130000Y102290000D01*
X289130000Y102290000D02*
X291670000Y99750000D01*
X289130000Y64190000D02*
X291670000Y66730000D01*
X289130000Y59110000D02*
X289130000Y64190000D01*
X291670000Y99750000D02*
X291670000Y66730000D01*
X223090000Y58410000D02*
X223090000Y-10000D01*
X223090000Y58410000D02*
X287860000Y58410000D01*
X223090000Y-10000D02*
X289130000Y-10000D01*
X287860000Y58410000D02*
X289130000Y57140000D01*
X289130000Y57140000D02*
X289130000Y43170000D01*
X289130000Y43170000D02*
X291670000Y40630000D01*
X289130000Y5070000D02*
X291670000Y7610000D01*
X289130000Y-10000D02*
X289130000Y5070000D01*
X291670000Y40630000D02*
X291670000Y7610000D01*
X148730000Y117530000D02*
X148730000Y59110000D01*
X148730000Y117530000D02*
X213500000Y117530000D01*
X148730000Y59110000D02*
X214770000Y59110000D01*
X213500000Y117530000D02*
X214770000Y116260000D01*
X214770000Y116260000D02*
X214770000Y102290000D01*
X214770000Y102290000D02*
X217310000Y99750000D01*
X214770000Y64190000D02*
X217310000Y66730000D01*
X214770000Y59110000D02*
X214770000Y64190000D01*
X217310000Y99750000D02*
X217310000Y66730000D01*
X148730000Y58410000D02*
X148730000Y-10000D01*
X148730000Y58410000D02*
X213500000Y58410000D01*
X148730000Y-10000D02*
X214770000Y-10000D01*
X213500000Y58410000D02*
X214770000Y57140000D01*
X214770000Y57140000D02*
X214770000Y43170000D01*
X214770000Y43170000D02*
X217310000Y40630000D01*
X214770000Y5070000D02*
X217310000Y7610000D01*
X214770000Y-10000D02*
X214770000Y5070000D01*
X217310000Y40630000D02*
X217310000Y7610000D01*
X74370000Y117530000D02*
X74370000Y59110000D01*
X74370000Y117530000D02*
X139140000Y117530000D01*
X74370000Y59110000D02*
X140410000Y59110000D01*
X139140000Y117530000D02*
X140410000Y116260000D01*
X140410000Y116260000D02*
X140410000Y102290000D01*
X140410000Y102290000D02*
X142950000Y99750000D01*
X140410000Y64190000D02*
X142950000Y66730000D01*
X140410000Y59110000D02*
X140410000Y64190000D01*
X142950000Y99750000D02*
X142950000Y66730000D01*
X74370000Y58410000D02*
X74370000Y-10000D01*
X74370000Y58410000D02*
X139140000Y58410000D01*
X74370000Y-10000D02*
X140410000Y-10000D01*
X139140000Y58410000D02*
X140410000Y57140000D01*
X140410000Y57140000D02*
X140410000Y43170000D01*
X140410000Y43170000D02*
X142950000Y40630000D01*
X140410000Y5070000D02*
X142950000Y7610000D01*
X140410000Y-10000D02*
X140410000Y5070000D01*
X142950000Y40630000D02*
X142950000Y7610000D01*
X10000Y117530000D02*
X10000Y59110000D01*
X10000Y117530000D02*
X64780000Y117530000D01*
X10000Y59110000D02*
X66050000Y59110000D01*
X64780000Y117530000D02*
X66050000Y116260000D01*
X66050000Y116260000D02*
X66050000Y102290000D01*
X66050000Y102290000D02*
X68590000Y99750000D01*
X66050000Y64190000D02*
X68590000Y66730000D01*
X66050000Y59110000D02*
X66050000Y64190000D01*
X68590000Y99750000D02*
X68590000Y66730000D01*
X10000Y58410000D02*
X10000Y-10000D01*
X10000Y58410000D02*
X64780000Y58410000D01*
X10000Y-10000D02*
X66050000Y-10000D01*
X64780000Y58410000D02*
X66050000Y57140000D01*
X66050000Y57140000D02*
X66050000Y43170000D01*
X66050000Y43170000D02*
X68590000Y40630000D01*
X66050000Y5070000D02*
X68590000Y7610000D01*
X66050000Y-10000D02*
X66050000Y5070000D01*
X68590000Y40630000D02*
X68590000Y7610000D01*
%TD*%
D12*
X369832238Y51998095D02*
X368879857Y51331428D01*
X369832238Y50855238D02*
X367832238Y50855238D01*
X367832238Y50855238D02*
X367832238Y51617143D01*
X367832238Y51617143D02*
X367927476Y51807619D01*
X367927476Y51807619D02*
X368022714Y51902857D01*
X368022714Y51902857D02*
X368213190Y51998095D01*
X368213190Y51998095D02*
X368498904Y51998095D01*
X368498904Y51998095D02*
X368689380Y51902857D01*
X368689380Y51902857D02*
X368784619Y51807619D01*
X368784619Y51807619D02*
X368879857Y51617143D01*
X368879857Y51617143D02*
X368879857Y50855238D01*
X367832238Y53236190D02*
X367832238Y53617143D01*
X367832238Y53617143D02*
X367927476Y53807619D01*
X367927476Y53807619D02*
X368117952Y53998095D01*
X368117952Y53998095D02*
X368498904Y54093333D01*
X368498904Y54093333D02*
X369165571Y54093333D01*
X369165571Y54093333D02*
X369546523Y53998095D01*
X369546523Y53998095D02*
X369737000Y53807619D01*
X369737000Y53807619D02*
X369832238Y53617143D01*
X369832238Y53617143D02*
X369832238Y53236190D01*
X369832238Y53236190D02*
X369737000Y53045714D01*
X369737000Y53045714D02*
X369546523Y52855238D01*
X369546523Y52855238D02*
X369165571Y52760000D01*
X369165571Y52760000D02*
X368498904Y52760000D01*
X368498904Y52760000D02*
X368117952Y52855238D01*
X368117952Y52855238D02*
X367927476Y53045714D01*
X367927476Y53045714D02*
X367832238Y53236190D01*
X367832238Y54950476D02*
X369451285Y54950476D01*
X369451285Y54950476D02*
X369641761Y55045714D01*
X369641761Y55045714D02*
X369737000Y55140952D01*
X369737000Y55140952D02*
X369832238Y55331428D01*
X369832238Y55331428D02*
X369832238Y55712381D01*
X369832238Y55712381D02*
X369737000Y55902857D01*
X369737000Y55902857D02*
X369641761Y55998095D01*
X369641761Y55998095D02*
X369451285Y56093333D01*
X369451285Y56093333D02*
X367832238Y56093333D01*
X367832238Y56760000D02*
X367832238Y57902857D01*
X369832238Y57331428D02*
X367832238Y57331428D01*
X368784619Y58569524D02*
X368784619Y59236191D01*
X369832238Y59521905D02*
X369832238Y58569524D01*
X369832238Y58569524D02*
X367832238Y58569524D01*
X367832238Y58569524D02*
X367832238Y59521905D01*
X367832238Y62283810D02*
X367832238Y62664763D01*
X367832238Y62664763D02*
X367927476Y62855239D01*
X367927476Y62855239D02*
X368117952Y63045715D01*
X368117952Y63045715D02*
X368498904Y63140953D01*
X368498904Y63140953D02*
X369165571Y63140953D01*
X369165571Y63140953D02*
X369546523Y63045715D01*
X369546523Y63045715D02*
X369737000Y62855239D01*
X369737000Y62855239D02*
X369832238Y62664763D01*
X369832238Y62664763D02*
X369832238Y62283810D01*
X369832238Y62283810D02*
X369737000Y62093334D01*
X369737000Y62093334D02*
X369546523Y61902858D01*
X369546523Y61902858D02*
X369165571Y61807620D01*
X369165571Y61807620D02*
X368498904Y61807620D01*
X368498904Y61807620D02*
X368117952Y61902858D01*
X368117952Y61902858D02*
X367927476Y62093334D01*
X367927476Y62093334D02*
X367832238Y62283810D01*
X367832238Y63998096D02*
X369451285Y63998096D01*
X369451285Y63998096D02*
X369641761Y64093334D01*
X369641761Y64093334D02*
X369737000Y64188572D01*
X369737000Y64188572D02*
X369832238Y64379048D01*
X369832238Y64379048D02*
X369832238Y64760001D01*
X369832238Y64760001D02*
X369737000Y64950477D01*
X369737000Y64950477D02*
X369641761Y65045715D01*
X369641761Y65045715D02*
X369451285Y65140953D01*
X369451285Y65140953D02*
X367832238Y65140953D01*
X367832238Y65807620D02*
X367832238Y66950477D01*
X369832238Y66379048D02*
X367832238Y66379048D01*
X295472238Y51998095D02*
X294519857Y51331428D01*
X295472238Y50855238D02*
X293472238Y50855238D01*
X293472238Y50855238D02*
X293472238Y51617143D01*
X293472238Y51617143D02*
X293567476Y51807619D01*
X293567476Y51807619D02*
X293662714Y51902857D01*
X293662714Y51902857D02*
X293853190Y51998095D01*
X293853190Y51998095D02*
X294138904Y51998095D01*
X294138904Y51998095D02*
X294329380Y51902857D01*
X294329380Y51902857D02*
X294424619Y51807619D01*
X294424619Y51807619D02*
X294519857Y51617143D01*
X294519857Y51617143D02*
X294519857Y50855238D01*
X293472238Y53236190D02*
X293472238Y53617143D01*
X293472238Y53617143D02*
X293567476Y53807619D01*
X293567476Y53807619D02*
X293757952Y53998095D01*
X293757952Y53998095D02*
X294138904Y54093333D01*
X294138904Y54093333D02*
X294805571Y54093333D01*
X294805571Y54093333D02*
X295186523Y53998095D01*
X295186523Y53998095D02*
X295377000Y53807619D01*
X295377000Y53807619D02*
X295472238Y53617143D01*
X295472238Y53617143D02*
X295472238Y53236190D01*
X295472238Y53236190D02*
X295377000Y53045714D01*
X295377000Y53045714D02*
X295186523Y52855238D01*
X295186523Y52855238D02*
X294805571Y52760000D01*
X294805571Y52760000D02*
X294138904Y52760000D01*
X294138904Y52760000D02*
X293757952Y52855238D01*
X293757952Y52855238D02*
X293567476Y53045714D01*
X293567476Y53045714D02*
X293472238Y53236190D01*
X293472238Y54950476D02*
X295091285Y54950476D01*
X295091285Y54950476D02*
X295281761Y55045714D01*
X295281761Y55045714D02*
X295377000Y55140952D01*
X295377000Y55140952D02*
X295472238Y55331428D01*
X295472238Y55331428D02*
X295472238Y55712381D01*
X295472238Y55712381D02*
X295377000Y55902857D01*
X295377000Y55902857D02*
X295281761Y55998095D01*
X295281761Y55998095D02*
X295091285Y56093333D01*
X295091285Y56093333D02*
X293472238Y56093333D01*
X293472238Y56760000D02*
X293472238Y57902857D01*
X295472238Y57331428D02*
X293472238Y57331428D01*
X294424619Y58569524D02*
X294424619Y59236191D01*
X295472238Y59521905D02*
X295472238Y58569524D01*
X295472238Y58569524D02*
X293472238Y58569524D01*
X293472238Y58569524D02*
X293472238Y59521905D01*
X293472238Y62283810D02*
X293472238Y62664763D01*
X293472238Y62664763D02*
X293567476Y62855239D01*
X293567476Y62855239D02*
X293757952Y63045715D01*
X293757952Y63045715D02*
X294138904Y63140953D01*
X294138904Y63140953D02*
X294805571Y63140953D01*
X294805571Y63140953D02*
X295186523Y63045715D01*
X295186523Y63045715D02*
X295377000Y62855239D01*
X295377000Y62855239D02*
X295472238Y62664763D01*
X295472238Y62664763D02*
X295472238Y62283810D01*
X295472238Y62283810D02*
X295377000Y62093334D01*
X295377000Y62093334D02*
X295186523Y61902858D01*
X295186523Y61902858D02*
X294805571Y61807620D01*
X294805571Y61807620D02*
X294138904Y61807620D01*
X294138904Y61807620D02*
X293757952Y61902858D01*
X293757952Y61902858D02*
X293567476Y62093334D01*
X293567476Y62093334D02*
X293472238Y62283810D01*
X293472238Y63998096D02*
X295091285Y63998096D01*
X295091285Y63998096D02*
X295281761Y64093334D01*
X295281761Y64093334D02*
X295377000Y64188572D01*
X295377000Y64188572D02*
X295472238Y64379048D01*
X295472238Y64379048D02*
X295472238Y64760001D01*
X295472238Y64760001D02*
X295377000Y64950477D01*
X295377000Y64950477D02*
X295281761Y65045715D01*
X295281761Y65045715D02*
X295091285Y65140953D01*
X295091285Y65140953D02*
X293472238Y65140953D01*
X293472238Y65807620D02*
X293472238Y66950477D01*
X295472238Y66379048D02*
X293472238Y66379048D01*
X221112238Y51998095D02*
X220159857Y51331428D01*
X221112238Y50855238D02*
X219112238Y50855238D01*
X219112238Y50855238D02*
X219112238Y51617143D01*
X219112238Y51617143D02*
X219207476Y51807619D01*
X219207476Y51807619D02*
X219302714Y51902857D01*
X219302714Y51902857D02*
X219493190Y51998095D01*
X219493190Y51998095D02*
X219778904Y51998095D01*
X219778904Y51998095D02*
X219969380Y51902857D01*
X219969380Y51902857D02*
X220064619Y51807619D01*
X220064619Y51807619D02*
X220159857Y51617143D01*
X220159857Y51617143D02*
X220159857Y50855238D01*
X219112238Y53236190D02*
X219112238Y53617143D01*
X219112238Y53617143D02*
X219207476Y53807619D01*
X219207476Y53807619D02*
X219397952Y53998095D01*
X219397952Y53998095D02*
X219778904Y54093333D01*
X219778904Y54093333D02*
X220445571Y54093333D01*
X220445571Y54093333D02*
X220826523Y53998095D01*
X220826523Y53998095D02*
X221017000Y53807619D01*
X221017000Y53807619D02*
X221112238Y53617143D01*
X221112238Y53617143D02*
X221112238Y53236190D01*
X221112238Y53236190D02*
X221017000Y53045714D01*
X221017000Y53045714D02*
X220826523Y52855238D01*
X220826523Y52855238D02*
X220445571Y52760000D01*
X220445571Y52760000D02*
X219778904Y52760000D01*
X219778904Y52760000D02*
X219397952Y52855238D01*
X219397952Y52855238D02*
X219207476Y53045714D01*
X219207476Y53045714D02*
X219112238Y53236190D01*
X219112238Y54950476D02*
X220731285Y54950476D01*
X220731285Y54950476D02*
X220921761Y55045714D01*
X220921761Y55045714D02*
X221017000Y55140952D01*
X221017000Y55140952D02*
X221112238Y55331428D01*
X221112238Y55331428D02*
X221112238Y55712381D01*
X221112238Y55712381D02*
X221017000Y55902857D01*
X221017000Y55902857D02*
X220921761Y55998095D01*
X220921761Y55998095D02*
X220731285Y56093333D01*
X220731285Y56093333D02*
X219112238Y56093333D01*
X219112238Y56760000D02*
X219112238Y57902857D01*
X221112238Y57331428D02*
X219112238Y57331428D01*
X220064619Y58569524D02*
X220064619Y59236191D01*
X221112238Y59521905D02*
X221112238Y58569524D01*
X221112238Y58569524D02*
X219112238Y58569524D01*
X219112238Y58569524D02*
X219112238Y59521905D01*
X219112238Y62283810D02*
X219112238Y62664763D01*
X219112238Y62664763D02*
X219207476Y62855239D01*
X219207476Y62855239D02*
X219397952Y63045715D01*
X219397952Y63045715D02*
X219778904Y63140953D01*
X219778904Y63140953D02*
X220445571Y63140953D01*
X220445571Y63140953D02*
X220826523Y63045715D01*
X220826523Y63045715D02*
X221017000Y62855239D01*
X221017000Y62855239D02*
X221112238Y62664763D01*
X221112238Y62664763D02*
X221112238Y62283810D01*
X221112238Y62283810D02*
X221017000Y62093334D01*
X221017000Y62093334D02*
X220826523Y61902858D01*
X220826523Y61902858D02*
X220445571Y61807620D01*
X220445571Y61807620D02*
X219778904Y61807620D01*
X219778904Y61807620D02*
X219397952Y61902858D01*
X219397952Y61902858D02*
X219207476Y62093334D01*
X219207476Y62093334D02*
X219112238Y62283810D01*
X219112238Y63998096D02*
X220731285Y63998096D01*
X220731285Y63998096D02*
X220921761Y64093334D01*
X220921761Y64093334D02*
X221017000Y64188572D01*
X221017000Y64188572D02*
X221112238Y64379048D01*
X221112238Y64379048D02*
X221112238Y64760001D01*
X221112238Y64760001D02*
X221017000Y64950477D01*
X221017000Y64950477D02*
X220921761Y65045715D01*
X220921761Y65045715D02*
X220731285Y65140953D01*
X220731285Y65140953D02*
X219112238Y65140953D01*
X219112238Y65807620D02*
X219112238Y66950477D01*
X221112238Y66379048D02*
X219112238Y66379048D01*
X146752238Y51998095D02*
X145799857Y51331428D01*
X146752238Y50855238D02*
X144752238Y50855238D01*
X144752238Y50855238D02*
X144752238Y51617143D01*
X144752238Y51617143D02*
X144847476Y51807619D01*
X144847476Y51807619D02*
X144942714Y51902857D01*
X144942714Y51902857D02*
X145133190Y51998095D01*
X145133190Y51998095D02*
X145418904Y51998095D01*
X145418904Y51998095D02*
X145609380Y51902857D01*
X145609380Y51902857D02*
X145704619Y51807619D01*
X145704619Y51807619D02*
X145799857Y51617143D01*
X145799857Y51617143D02*
X145799857Y50855238D01*
X144752238Y53236190D02*
X144752238Y53617143D01*
X144752238Y53617143D02*
X144847476Y53807619D01*
X144847476Y53807619D02*
X145037952Y53998095D01*
X145037952Y53998095D02*
X145418904Y54093333D01*
X145418904Y54093333D02*
X146085571Y54093333D01*
X146085571Y54093333D02*
X146466523Y53998095D01*
X146466523Y53998095D02*
X146657000Y53807619D01*
X146657000Y53807619D02*
X146752238Y53617143D01*
X146752238Y53617143D02*
X146752238Y53236190D01*
X146752238Y53236190D02*
X146657000Y53045714D01*
X146657000Y53045714D02*
X146466523Y52855238D01*
X146466523Y52855238D02*
X146085571Y52760000D01*
X146085571Y52760000D02*
X145418904Y52760000D01*
X145418904Y52760000D02*
X145037952Y52855238D01*
X145037952Y52855238D02*
X144847476Y53045714D01*
X144847476Y53045714D02*
X144752238Y53236190D01*
X144752238Y54950476D02*
X146371285Y54950476D01*
X146371285Y54950476D02*
X146561761Y55045714D01*
X146561761Y55045714D02*
X146657000Y55140952D01*
X146657000Y55140952D02*
X146752238Y55331428D01*
X146752238Y55331428D02*
X146752238Y55712381D01*
X146752238Y55712381D02*
X146657000Y55902857D01*
X146657000Y55902857D02*
X146561761Y55998095D01*
X146561761Y55998095D02*
X146371285Y56093333D01*
X146371285Y56093333D02*
X144752238Y56093333D01*
X144752238Y56760000D02*
X144752238Y57902857D01*
X146752238Y57331428D02*
X144752238Y57331428D01*
X145704619Y58569524D02*
X145704619Y59236191D01*
X146752238Y59521905D02*
X146752238Y58569524D01*
X146752238Y58569524D02*
X144752238Y58569524D01*
X144752238Y58569524D02*
X144752238Y59521905D01*
X144752238Y62283810D02*
X144752238Y62664763D01*
X144752238Y62664763D02*
X144847476Y62855239D01*
X144847476Y62855239D02*
X145037952Y63045715D01*
X145037952Y63045715D02*
X145418904Y63140953D01*
X145418904Y63140953D02*
X146085571Y63140953D01*
X146085571Y63140953D02*
X146466523Y63045715D01*
X146466523Y63045715D02*
X146657000Y62855239D01*
X146657000Y62855239D02*
X146752238Y62664763D01*
X146752238Y62664763D02*
X146752238Y62283810D01*
X146752238Y62283810D02*
X146657000Y62093334D01*
X146657000Y62093334D02*
X146466523Y61902858D01*
X146466523Y61902858D02*
X146085571Y61807620D01*
X146085571Y61807620D02*
X145418904Y61807620D01*
X145418904Y61807620D02*
X145037952Y61902858D01*
X145037952Y61902858D02*
X144847476Y62093334D01*
X144847476Y62093334D02*
X144752238Y62283810D01*
X144752238Y63998096D02*
X146371285Y63998096D01*
X146371285Y63998096D02*
X146561761Y64093334D01*
X146561761Y64093334D02*
X146657000Y64188572D01*
X146657000Y64188572D02*
X146752238Y64379048D01*
X146752238Y64379048D02*
X146752238Y64760001D01*
X146752238Y64760001D02*
X146657000Y64950477D01*
X146657000Y64950477D02*
X146561761Y65045715D01*
X146561761Y65045715D02*
X146371285Y65140953D01*
X146371285Y65140953D02*
X144752238Y65140953D01*
X144752238Y65807620D02*
X144752238Y66950477D01*
X146752238Y66379048D02*
X144752238Y66379048D01*
X72392238Y51998095D02*
X71439857Y51331428D01*
X72392238Y50855238D02*
X70392238Y50855238D01*
X70392238Y50855238D02*
X70392238Y51617143D01*
X70392238Y51617143D02*
X70487476Y51807619D01*
X70487476Y51807619D02*
X70582714Y51902857D01*
X70582714Y51902857D02*
X70773190Y51998095D01*
X70773190Y51998095D02*
X71058904Y51998095D01*
X71058904Y51998095D02*
X71249380Y51902857D01*
X71249380Y51902857D02*
X71344619Y51807619D01*
X71344619Y51807619D02*
X71439857Y51617143D01*
X71439857Y51617143D02*
X71439857Y50855238D01*
X70392238Y53236190D02*
X70392238Y53617143D01*
X70392238Y53617143D02*
X70487476Y53807619D01*
X70487476Y53807619D02*
X70677952Y53998095D01*
X70677952Y53998095D02*
X71058904Y54093333D01*
X71058904Y54093333D02*
X71725571Y54093333D01*
X71725571Y54093333D02*
X72106523Y53998095D01*
X72106523Y53998095D02*
X72297000Y53807619D01*
X72297000Y53807619D02*
X72392238Y53617143D01*
X72392238Y53617143D02*
X72392238Y53236190D01*
X72392238Y53236190D02*
X72297000Y53045714D01*
X72297000Y53045714D02*
X72106523Y52855238D01*
X72106523Y52855238D02*
X71725571Y52760000D01*
X71725571Y52760000D02*
X71058904Y52760000D01*
X71058904Y52760000D02*
X70677952Y52855238D01*
X70677952Y52855238D02*
X70487476Y53045714D01*
X70487476Y53045714D02*
X70392238Y53236190D01*
X70392238Y54950476D02*
X72011285Y54950476D01*
X72011285Y54950476D02*
X72201761Y55045714D01*
X72201761Y55045714D02*
X72297000Y55140952D01*
X72297000Y55140952D02*
X72392238Y55331428D01*
X72392238Y55331428D02*
X72392238Y55712381D01*
X72392238Y55712381D02*
X72297000Y55902857D01*
X72297000Y55902857D02*
X72201761Y55998095D01*
X72201761Y55998095D02*
X72011285Y56093333D01*
X72011285Y56093333D02*
X70392238Y56093333D01*
X70392238Y56760000D02*
X70392238Y57902857D01*
X72392238Y57331428D02*
X70392238Y57331428D01*
X71344619Y58569524D02*
X71344619Y59236191D01*
X72392238Y59521905D02*
X72392238Y58569524D01*
X72392238Y58569524D02*
X70392238Y58569524D01*
X70392238Y58569524D02*
X70392238Y59521905D01*
X70392238Y62283810D02*
X70392238Y62664763D01*
X70392238Y62664763D02*
X70487476Y62855239D01*
X70487476Y62855239D02*
X70677952Y63045715D01*
X70677952Y63045715D02*
X71058904Y63140953D01*
X71058904Y63140953D02*
X71725571Y63140953D01*
X71725571Y63140953D02*
X72106523Y63045715D01*
X72106523Y63045715D02*
X72297000Y62855239D01*
X72297000Y62855239D02*
X72392238Y62664763D01*
X72392238Y62664763D02*
X72392238Y62283810D01*
X72392238Y62283810D02*
X72297000Y62093334D01*
X72297000Y62093334D02*
X72106523Y61902858D01*
X72106523Y61902858D02*
X71725571Y61807620D01*
X71725571Y61807620D02*
X71058904Y61807620D01*
X71058904Y61807620D02*
X70677952Y61902858D01*
X70677952Y61902858D02*
X70487476Y62093334D01*
X70487476Y62093334D02*
X70392238Y62283810D01*
X70392238Y63998096D02*
X72011285Y63998096D01*
X72011285Y63998096D02*
X72201761Y64093334D01*
X72201761Y64093334D02*
X72297000Y64188572D01*
X72297000Y64188572D02*
X72392238Y64379048D01*
X72392238Y64379048D02*
X72392238Y64760001D01*
X72392238Y64760001D02*
X72297000Y64950477D01*
X72297000Y64950477D02*
X72201761Y65045715D01*
X72201761Y65045715D02*
X72011285Y65140953D01*
X72011285Y65140953D02*
X70392238Y65140953D01*
X70392238Y65807620D02*
X70392238Y66950477D01*
X72392238Y66379048D02*
X70392238Y66379048D01*
X-1967762Y51998095D02*
X-2920143Y51331428D01*
X-1967762Y50855238D02*
X-3967762Y50855238D01*
X-3967762Y50855238D02*
X-3967762Y51617143D01*
X-3967762Y51617143D02*
X-3872524Y51807619D01*
X-3872524Y51807619D02*
X-3777286Y51902857D01*
X-3777286Y51902857D02*
X-3586810Y51998095D01*
X-3586810Y51998095D02*
X-3301096Y51998095D01*
X-3301096Y51998095D02*
X-3110620Y51902857D01*
X-3110620Y51902857D02*
X-3015381Y51807619D01*
X-3015381Y51807619D02*
X-2920143Y51617143D01*
X-2920143Y51617143D02*
X-2920143Y50855238D01*
X-3967762Y53236190D02*
X-3967762Y53617143D01*
X-3967762Y53617143D02*
X-3872524Y53807619D01*
X-3872524Y53807619D02*
X-3682048Y53998095D01*
X-3682048Y53998095D02*
X-3301096Y54093333D01*
X-3301096Y54093333D02*
X-2634429Y54093333D01*
X-2634429Y54093333D02*
X-2253477Y53998095D01*
X-2253477Y53998095D02*
X-2063000Y53807619D01*
X-2063000Y53807619D02*
X-1967762Y53617143D01*
X-1967762Y53617143D02*
X-1967762Y53236190D01*
X-1967762Y53236190D02*
X-2063000Y53045714D01*
X-2063000Y53045714D02*
X-2253477Y52855238D01*
X-2253477Y52855238D02*
X-2634429Y52760000D01*
X-2634429Y52760000D02*
X-3301096Y52760000D01*
X-3301096Y52760000D02*
X-3682048Y52855238D01*
X-3682048Y52855238D02*
X-3872524Y53045714D01*
X-3872524Y53045714D02*
X-3967762Y53236190D01*
X-3967762Y54950476D02*
X-2348715Y54950476D01*
X-2348715Y54950476D02*
X-2158239Y55045714D01*
X-2158239Y55045714D02*
X-2063000Y55140952D01*
X-2063000Y55140952D02*
X-1967762Y55331428D01*
X-1967762Y55331428D02*
X-1967762Y55712381D01*
X-1967762Y55712381D02*
X-2063000Y55902857D01*
X-2063000Y55902857D02*
X-2158239Y55998095D01*
X-2158239Y55998095D02*
X-2348715Y56093333D01*
X-2348715Y56093333D02*
X-3967762Y56093333D01*
X-3967762Y56760000D02*
X-3967762Y57902857D01*
X-1967762Y57331428D02*
X-3967762Y57331428D01*
X-3015381Y58569524D02*
X-3015381Y59236191D01*
X-1967762Y59521905D02*
X-1967762Y58569524D01*
X-1967762Y58569524D02*
X-3967762Y58569524D01*
X-3967762Y58569524D02*
X-3967762Y59521905D01*
X-3967762Y62283810D02*
X-3967762Y62664763D01*
X-3967762Y62664763D02*
X-3872524Y62855239D01*
X-3872524Y62855239D02*
X-3682048Y63045715D01*
X-3682048Y63045715D02*
X-3301096Y63140953D01*
X-3301096Y63140953D02*
X-2634429Y63140953D01*
X-2634429Y63140953D02*
X-2253477Y63045715D01*
X-2253477Y63045715D02*
X-2063000Y62855239D01*
X-2063000Y62855239D02*
X-1967762Y62664763D01*
X-1967762Y62664763D02*
X-1967762Y62283810D01*
X-1967762Y62283810D02*
X-2063000Y62093334D01*
X-2063000Y62093334D02*
X-2253477Y61902858D01*
X-2253477Y61902858D02*
X-2634429Y61807620D01*
X-2634429Y61807620D02*
X-3301096Y61807620D01*
X-3301096Y61807620D02*
X-3682048Y61902858D01*
X-3682048Y61902858D02*
X-3872524Y62093334D01*
X-3872524Y62093334D02*
X-3967762Y62283810D01*
X-3967762Y63998096D02*
X-2348715Y63998096D01*
X-2348715Y63998096D02*
X-2158239Y64093334D01*
X-2158239Y64093334D02*
X-2063000Y64188572D01*
X-2063000Y64188572D02*
X-1967762Y64379048D01*
X-1967762Y64379048D02*
X-1967762Y64760001D01*
X-1967762Y64760001D02*
X-2063000Y64950477D01*
X-2063000Y64950477D02*
X-2158239Y65045715D01*
X-2158239Y65045715D02*
X-2348715Y65140953D01*
X-2348715Y65140953D02*
X-3967762Y65140953D01*
X-3967762Y65807620D02*
X-3967762Y66950477D01*
X-1967762Y66379048D02*
X-3967762Y66379048D01*
X-28293997Y727762D02*
X-27627331Y-1272238D01*
X-27627331Y-1272238D02*
X-26960664Y727762D01*
X-26293997Y-510333D02*
X-24770187Y-510333D01*
X-23913045Y-1177000D02*
X-23627331Y-1272238D01*
X-23627331Y-1272238D02*
X-23151140Y-1272238D01*
X-23151140Y-1272238D02*
X-22960664Y-1177000D01*
X-22960664Y-1177000D02*
X-22865426Y-1081761D01*
X-22865426Y-1081761D02*
X-22770188Y-891285D01*
X-22770188Y-891285D02*
X-22770188Y-700809D01*
X-22770188Y-700809D02*
X-22865426Y-510333D01*
X-22865426Y-510333D02*
X-22960664Y-415095D01*
X-22960664Y-415095D02*
X-23151140Y-319857D01*
X-23151140Y-319857D02*
X-23532093Y-224619D01*
X-23532093Y-224619D02*
X-23722569Y-129380D01*
X-23722569Y-129380D02*
X-23817807Y-34142D01*
X-23817807Y-34142D02*
X-23913045Y156334D01*
X-23913045Y156334D02*
X-23913045Y346810D01*
X-23913045Y346810D02*
X-23817807Y537286D01*
X-23817807Y537286D02*
X-23722569Y632524D01*
X-23722569Y632524D02*
X-23532093Y727762D01*
X-23532093Y727762D02*
X-23055902Y727762D01*
X-23055902Y727762D02*
X-22770188Y632524D01*
X-20770188Y-1081761D02*
X-20865426Y-1177000D01*
X-20865426Y-1177000D02*
X-21151140Y-1272238D01*
X-21151140Y-1272238D02*
X-21341616Y-1272238D01*
X-21341616Y-1272238D02*
X-21627331Y-1177000D01*
X-21627331Y-1177000D02*
X-21817807Y-986523D01*
X-21817807Y-986523D02*
X-21913045Y-796047D01*
X-21913045Y-796047D02*
X-22008283Y-415095D01*
X-22008283Y-415095D02*
X-22008283Y-129380D01*
X-22008283Y-129380D02*
X-21913045Y251572D01*
X-21913045Y251572D02*
X-21817807Y442048D01*
X-21817807Y442048D02*
X-21627331Y632524D01*
X-21627331Y632524D02*
X-21341616Y727762D01*
X-21341616Y727762D02*
X-21151140Y727762D01*
X-21151140Y727762D02*
X-20865426Y632524D01*
X-20865426Y632524D02*
X-20770188Y537286D01*
X-19532093Y727762D02*
X-19151140Y727762D01*
X-19151140Y727762D02*
X-18960664Y632524D01*
X-18960664Y632524D02*
X-18770188Y442048D01*
X-18770188Y442048D02*
X-18674950Y61096D01*
X-18674950Y61096D02*
X-18674950Y-605571D01*
X-18674950Y-605571D02*
X-18770188Y-986523D01*
X-18770188Y-986523D02*
X-18960664Y-1177000D01*
X-18960664Y-1177000D02*
X-19151140Y-1272238D01*
X-19151140Y-1272238D02*
X-19532093Y-1272238D01*
X-19532093Y-1272238D02*
X-19722569Y-1177000D01*
X-19722569Y-1177000D02*
X-19913045Y-986523D01*
X-19913045Y-986523D02*
X-20008283Y-605571D01*
X-20008283Y-605571D02*
X-20008283Y61096D01*
X-20008283Y61096D02*
X-19913045Y442048D01*
X-19913045Y442048D02*
X-19722569Y632524D01*
X-19722569Y632524D02*
X-19532093Y727762D01*
X-16674950Y-1272238D02*
X-17341617Y-319857D01*
X-17817807Y-1272238D02*
X-17817807Y727762D01*
X-17817807Y727762D02*
X-17055902Y727762D01*
X-17055902Y727762D02*
X-16865426Y632524D01*
X-16865426Y632524D02*
X-16770188Y537286D01*
X-16770188Y537286D02*
X-16674950Y346810D01*
X-16674950Y346810D02*
X-16674950Y61096D01*
X-16674950Y61096D02*
X-16770188Y-129380D01*
X-16770188Y-129380D02*
X-16865426Y-224619D01*
X-16865426Y-224619D02*
X-17055902Y-319857D01*
X-17055902Y-319857D02*
X-17817807Y-319857D01*
X-15817807Y-224619D02*
X-15151140Y-224619D01*
X-14865426Y-1272238D02*
X-15817807Y-1272238D01*
X-15817807Y-1272238D02*
X-15817807Y727762D01*
X-15817807Y727762D02*
X-14865426Y727762D01*
D13*
X-12320000Y-360000D02*
X378360000Y-360000D01*
D12*
X-28293997Y59847762D02*
X-27627331Y57847762D01*
X-27627331Y57847762D02*
X-26960664Y59847762D01*
X-26293997Y58609667D02*
X-24770187Y58609667D01*
X-23913045Y57943000D02*
X-23627331Y57847762D01*
X-23627331Y57847762D02*
X-23151140Y57847762D01*
X-23151140Y57847762D02*
X-22960664Y57943000D01*
X-22960664Y57943000D02*
X-22865426Y58038239D01*
X-22865426Y58038239D02*
X-22770188Y58228715D01*
X-22770188Y58228715D02*
X-22770188Y58419191D01*
X-22770188Y58419191D02*
X-22865426Y58609667D01*
X-22865426Y58609667D02*
X-22960664Y58704905D01*
X-22960664Y58704905D02*
X-23151140Y58800143D01*
X-23151140Y58800143D02*
X-23532093Y58895381D01*
X-23532093Y58895381D02*
X-23722569Y58990620D01*
X-23722569Y58990620D02*
X-23817807Y59085858D01*
X-23817807Y59085858D02*
X-23913045Y59276334D01*
X-23913045Y59276334D02*
X-23913045Y59466810D01*
X-23913045Y59466810D02*
X-23817807Y59657286D01*
X-23817807Y59657286D02*
X-23722569Y59752524D01*
X-23722569Y59752524D02*
X-23532093Y59847762D01*
X-23532093Y59847762D02*
X-23055902Y59847762D01*
X-23055902Y59847762D02*
X-22770188Y59752524D01*
X-20770188Y58038239D02*
X-20865426Y57943000D01*
X-20865426Y57943000D02*
X-21151140Y57847762D01*
X-21151140Y57847762D02*
X-21341616Y57847762D01*
X-21341616Y57847762D02*
X-21627331Y57943000D01*
X-21627331Y57943000D02*
X-21817807Y58133477D01*
X-21817807Y58133477D02*
X-21913045Y58323953D01*
X-21913045Y58323953D02*
X-22008283Y58704905D01*
X-22008283Y58704905D02*
X-22008283Y58990620D01*
X-22008283Y58990620D02*
X-21913045Y59371572D01*
X-21913045Y59371572D02*
X-21817807Y59562048D01*
X-21817807Y59562048D02*
X-21627331Y59752524D01*
X-21627331Y59752524D02*
X-21341616Y59847762D01*
X-21341616Y59847762D02*
X-21151140Y59847762D01*
X-21151140Y59847762D02*
X-20865426Y59752524D01*
X-20865426Y59752524D02*
X-20770188Y59657286D01*
X-19532093Y59847762D02*
X-19151140Y59847762D01*
X-19151140Y59847762D02*
X-18960664Y59752524D01*
X-18960664Y59752524D02*
X-18770188Y59562048D01*
X-18770188Y59562048D02*
X-18674950Y59181096D01*
X-18674950Y59181096D02*
X-18674950Y58514429D01*
X-18674950Y58514429D02*
X-18770188Y58133477D01*
X-18770188Y58133477D02*
X-18960664Y57943000D01*
X-18960664Y57943000D02*
X-19151140Y57847762D01*
X-19151140Y57847762D02*
X-19532093Y57847762D01*
X-19532093Y57847762D02*
X-19722569Y57943000D01*
X-19722569Y57943000D02*
X-19913045Y58133477D01*
X-19913045Y58133477D02*
X-20008283Y58514429D01*
X-20008283Y58514429D02*
X-20008283Y59181096D01*
X-20008283Y59181096D02*
X-19913045Y59562048D01*
X-19913045Y59562048D02*
X-19722569Y59752524D01*
X-19722569Y59752524D02*
X-19532093Y59847762D01*
X-16674950Y57847762D02*
X-17341617Y58800143D01*
X-17817807Y57847762D02*
X-17817807Y59847762D01*
X-17817807Y59847762D02*
X-17055902Y59847762D01*
X-17055902Y59847762D02*
X-16865426Y59752524D01*
X-16865426Y59752524D02*
X-16770188Y59657286D01*
X-16770188Y59657286D02*
X-16674950Y59466810D01*
X-16674950Y59466810D02*
X-16674950Y59181096D01*
X-16674950Y59181096D02*
X-16770188Y58990620D01*
X-16770188Y58990620D02*
X-16865426Y58895381D01*
X-16865426Y58895381D02*
X-17055902Y58800143D01*
X-17055902Y58800143D02*
X-17817807Y58800143D01*
X-15817807Y58895381D02*
X-15151140Y58895381D01*
X-14865426Y57847762D02*
X-15817807Y57847762D01*
X-15817807Y57847762D02*
X-15817807Y59847762D01*
X-15817807Y59847762D02*
X-14865426Y59847762D01*
D13*
X-12320000Y58760000D02*
X378360000Y58760000D01*
D12*
X-28293997Y118967762D02*
X-27627331Y116967762D01*
X-27627331Y116967762D02*
X-26960664Y118967762D01*
X-26293997Y117729667D02*
X-24770187Y117729667D01*
X-23913045Y117063000D02*
X-23627331Y116967762D01*
X-23627331Y116967762D02*
X-23151140Y116967762D01*
X-23151140Y116967762D02*
X-22960664Y117063000D01*
X-22960664Y117063000D02*
X-22865426Y117158239D01*
X-22865426Y117158239D02*
X-22770188Y117348715D01*
X-22770188Y117348715D02*
X-22770188Y117539191D01*
X-22770188Y117539191D02*
X-22865426Y117729667D01*
X-22865426Y117729667D02*
X-22960664Y117824905D01*
X-22960664Y117824905D02*
X-23151140Y117920143D01*
X-23151140Y117920143D02*
X-23532093Y118015381D01*
X-23532093Y118015381D02*
X-23722569Y118110620D01*
X-23722569Y118110620D02*
X-23817807Y118205858D01*
X-23817807Y118205858D02*
X-23913045Y118396334D01*
X-23913045Y118396334D02*
X-23913045Y118586810D01*
X-23913045Y118586810D02*
X-23817807Y118777286D01*
X-23817807Y118777286D02*
X-23722569Y118872524D01*
X-23722569Y118872524D02*
X-23532093Y118967762D01*
X-23532093Y118967762D02*
X-23055902Y118967762D01*
X-23055902Y118967762D02*
X-22770188Y118872524D01*
X-20770188Y117158239D02*
X-20865426Y117063000D01*
X-20865426Y117063000D02*
X-21151140Y116967762D01*
X-21151140Y116967762D02*
X-21341616Y116967762D01*
X-21341616Y116967762D02*
X-21627331Y117063000D01*
X-21627331Y117063000D02*
X-21817807Y117253477D01*
X-21817807Y117253477D02*
X-21913045Y117443953D01*
X-21913045Y117443953D02*
X-22008283Y117824905D01*
X-22008283Y117824905D02*
X-22008283Y118110620D01*
X-22008283Y118110620D02*
X-21913045Y118491572D01*
X-21913045Y118491572D02*
X-21817807Y118682048D01*
X-21817807Y118682048D02*
X-21627331Y118872524D01*
X-21627331Y118872524D02*
X-21341616Y118967762D01*
X-21341616Y118967762D02*
X-21151140Y118967762D01*
X-21151140Y118967762D02*
X-20865426Y118872524D01*
X-20865426Y118872524D02*
X-20770188Y118777286D01*
X-19532093Y118967762D02*
X-19151140Y118967762D01*
X-19151140Y118967762D02*
X-18960664Y118872524D01*
X-18960664Y118872524D02*
X-18770188Y118682048D01*
X-18770188Y118682048D02*
X-18674950Y118301096D01*
X-18674950Y118301096D02*
X-18674950Y117634429D01*
X-18674950Y117634429D02*
X-18770188Y117253477D01*
X-18770188Y117253477D02*
X-18960664Y117063000D01*
X-18960664Y117063000D02*
X-19151140Y116967762D01*
X-19151140Y116967762D02*
X-19532093Y116967762D01*
X-19532093Y116967762D02*
X-19722569Y117063000D01*
X-19722569Y117063000D02*
X-19913045Y117253477D01*
X-19913045Y117253477D02*
X-20008283Y117634429D01*
X-20008283Y117634429D02*
X-20008283Y118301096D01*
X-20008283Y118301096D02*
X-19913045Y118682048D01*
X-19913045Y118682048D02*
X-19722569Y118872524D01*
X-19722569Y118872524D02*
X-19532093Y118967762D01*
X-16674950Y116967762D02*
X-17341617Y117920143D01*
X-17817807Y116967762D02*
X-17817807Y118967762D01*
X-17817807Y118967762D02*
X-17055902Y118967762D01*
X-17055902Y118967762D02*
X-16865426Y118872524D01*
X-16865426Y118872524D02*
X-16770188Y118777286D01*
X-16770188Y118777286D02*
X-16674950Y118586810D01*
X-16674950Y118586810D02*
X-16674950Y118301096D01*
X-16674950Y118301096D02*
X-16770188Y118110620D01*
X-16770188Y118110620D02*
X-16865426Y118015381D01*
X-16865426Y118015381D02*
X-17055902Y117920143D01*
X-17055902Y117920143D02*
X-17817807Y117920143D01*
X-15817807Y118015381D02*
X-15151140Y118015381D01*
X-14865426Y116967762D02*
X-15817807Y116967762D01*
X-15817807Y116967762D02*
X-15817807Y118967762D01*
X-15817807Y118967762D02*
X-14865426Y118967762D01*
D13*
X-12320000Y117880000D02*
X378360000Y117880000D01*
M02*
