%TF.GenerationSoftware,KiCad,Pcbnew,8.0.6*%
%TF.CreationDate,2025-02-07T12:31:58-07:00*%
%TF.ProjectId,SparkFun_IoT_RedBoard-RP2350_panelized,53706172-6b46-4756-9e5f-496f545f5265,v10*%
%TF.SameCoordinates,Original*%
%TF.FileFunction,Soldermask,Bot*%
%TF.FilePolarity,Negative*%
%FSLAX46Y46*%
G04 Gerber Fmt 4.6, Leading zero omitted, Abs format (unit mm)*
G04 Created by KiCad (PCBNEW 8.0.6) date 2025-02-07 12:31:58*
%MOMM*%
%LPD*%
G01*
G04 APERTURE LIST*
G04 Aperture macros list*
%AMRoundRect*
0 Rectangle with rounded corners*
0 $1 Rounding radius*
0 $2 $3 $4 $5 $6 $7 $8 $9 X,Y pos of 4 corners*
0 Add a 4 corners polygon primitive as box body*
4,1,4,$2,$3,$4,$5,$6,$7,$8,$9,$2,$3,0*
0 Add four circle primitives for the rounded corners*
1,1,$1+$1,$2,$3*
1,1,$1+$1,$4,$5*
1,1,$1+$1,$6,$7*
1,1,$1+$1,$8,$9*
0 Add four rect primitives between the rounded corners*
20,1,$1+$1,$2,$3,$4,$5,0*
20,1,$1+$1,$4,$5,$6,$7,0*
20,1,$1+$1,$6,$7,$8,$9,0*
20,1,$1+$1,$8,$9,$2,$3,0*%
G04 Aperture macros list end*
%ADD10C,0.000000*%
%ADD11C,3.000000*%
%ADD12RoundRect,0.558000X0.000010X-0.000010X0.000010X0.000010X-0.000010X0.000010X-0.000010X-0.000010X0*%
%ADD13RoundRect,0.558000X0.000010X0.000010X-0.000010X0.000010X-0.000010X-0.000010X0.000010X-0.000010X0*%
%ADD14RoundRect,0.050000X0.330200X0.635000X-0.330200X0.635000X-0.330200X-0.635000X0.330200X-0.635000X0*%
%ADD15RoundRect,0.050000X0.635000X-0.317500X0.635000X0.317500X-0.635000X0.317500X-0.635000X-0.317500X0*%
%ADD16C,1.979600*%
%ADD17RoundRect,0.050000X-0.635000X0.317500X-0.635000X-0.317500X0.635000X-0.317500X0.635000X0.317500X0*%
%ADD18RoundRect,0.050000X-0.330200X-0.635000X0.330200X-0.635000X0.330200X0.635000X-0.330200X0.635000X0*%
%ADD19RoundRect,0.050000X0.635000X-0.330200X0.635000X0.330200X-0.635000X0.330200X-0.635000X-0.330200X0*%
%ADD20RoundRect,0.050000X1.500000X0.450000X-1.500000X0.450000X-1.500000X-0.450000X1.500000X-0.450000X0*%
%ADD21C,0.600000*%
%ADD22C,3.200000*%
%ADD23C,0.750000*%
%ADD24O,1.700000X1.100000*%
%ADD25O,2.200000X1.100000*%
%ADD26C,2.132000*%
%ADD27C,1.100000*%
G04 APERTURE END LIST*
D10*
%TO.C,JP6*%
G36*
X339194000Y68879500D02*
G01*
X338686000Y68879500D01*
X338686000Y69360500D01*
X339194000Y69360500D01*
X339194000Y68879500D01*
G37*
G36*
X339194000Y9759500D02*
G01*
X338686000Y9759500D01*
X338686000Y10240500D01*
X339194000Y10240500D01*
X339194000Y9759500D01*
G37*
G36*
X264834000Y68879500D02*
G01*
X264326000Y68879500D01*
X264326000Y69360500D01*
X264834000Y69360500D01*
X264834000Y68879500D01*
G37*
G36*
X264834000Y9759500D02*
G01*
X264326000Y9759500D01*
X264326000Y10240500D01*
X264834000Y10240500D01*
X264834000Y9759500D01*
G37*
G36*
X190474000Y68879500D02*
G01*
X189966000Y68879500D01*
X189966000Y69360500D01*
X190474000Y69360500D01*
X190474000Y68879500D01*
G37*
G36*
X190474000Y9759500D02*
G01*
X189966000Y9759500D01*
X189966000Y10240500D01*
X190474000Y10240500D01*
X190474000Y9759500D01*
G37*
G36*
X116114000Y68879500D02*
G01*
X115606000Y68879500D01*
X115606000Y69360500D01*
X116114000Y69360500D01*
X116114000Y68879500D01*
G37*
G36*
X116114000Y9759500D02*
G01*
X115606000Y9759500D01*
X115606000Y10240500D01*
X116114000Y10240500D01*
X116114000Y9759500D01*
G37*
G36*
X41754000Y68879500D02*
G01*
X41246000Y68879500D01*
X41246000Y69360500D01*
X41754000Y69360500D01*
X41754000Y68879500D01*
G37*
%TO.C,JP4*%
G36*
X339663900Y78866000D02*
G01*
X338216100Y78866000D01*
X338216100Y79374000D01*
X339663900Y79374000D01*
X339663900Y78866000D01*
G37*
G36*
X339663900Y19746000D02*
G01*
X338216100Y19746000D01*
X338216100Y20254000D01*
X339663900Y20254000D01*
X339663900Y19746000D01*
G37*
G36*
X265303900Y78866000D02*
G01*
X263856100Y78866000D01*
X263856100Y79374000D01*
X265303900Y79374000D01*
X265303900Y78866000D01*
G37*
G36*
X265303900Y19746000D02*
G01*
X263856100Y19746000D01*
X263856100Y20254000D01*
X265303900Y20254000D01*
X265303900Y19746000D01*
G37*
G36*
X190943900Y78866000D02*
G01*
X189496100Y78866000D01*
X189496100Y79374000D01*
X190943900Y79374000D01*
X190943900Y78866000D01*
G37*
G36*
X190943900Y19746000D02*
G01*
X189496100Y19746000D01*
X189496100Y20254000D01*
X190943900Y20254000D01*
X190943900Y19746000D01*
G37*
G36*
X116583900Y78866000D02*
G01*
X115136100Y78866000D01*
X115136100Y79374000D01*
X116583900Y79374000D01*
X116583900Y78866000D01*
G37*
G36*
X116583900Y19746000D02*
G01*
X115136100Y19746000D01*
X115136100Y20254000D01*
X116583900Y20254000D01*
X116583900Y19746000D01*
G37*
G36*
X42223900Y78866000D02*
G01*
X40776100Y78866000D01*
X40776100Y79374000D01*
X42223900Y79374000D01*
X42223900Y78866000D01*
G37*
%TO.C,JP3*%
G36*
X301043300Y108979500D02*
G01*
X300535300Y108979500D01*
X300535300Y109460500D01*
X301043300Y109460500D01*
X301043300Y108979500D01*
G37*
G36*
X302076000Y108956500D02*
G01*
X301568000Y108956500D01*
X301568000Y109437500D01*
X302076000Y109437500D01*
X302076000Y108956500D01*
G37*
G36*
X301043300Y49859500D02*
G01*
X300535300Y49859500D01*
X300535300Y50340500D01*
X301043300Y50340500D01*
X301043300Y49859500D01*
G37*
G36*
X302076000Y49836500D02*
G01*
X301568000Y49836500D01*
X301568000Y50317500D01*
X302076000Y50317500D01*
X302076000Y49836500D01*
G37*
G36*
X226683300Y108979500D02*
G01*
X226175300Y108979500D01*
X226175300Y109460500D01*
X226683300Y109460500D01*
X226683300Y108979500D01*
G37*
G36*
X227716000Y108956500D02*
G01*
X227208000Y108956500D01*
X227208000Y109437500D01*
X227716000Y109437500D01*
X227716000Y108956500D01*
G37*
G36*
X226683300Y49859500D02*
G01*
X226175300Y49859500D01*
X226175300Y50340500D01*
X226683300Y50340500D01*
X226683300Y49859500D01*
G37*
G36*
X227716000Y49836500D02*
G01*
X227208000Y49836500D01*
X227208000Y50317500D01*
X227716000Y50317500D01*
X227716000Y49836500D01*
G37*
G36*
X152323300Y108979500D02*
G01*
X151815300Y108979500D01*
X151815300Y109460500D01*
X152323300Y109460500D01*
X152323300Y108979500D01*
G37*
G36*
X153356000Y108956500D02*
G01*
X152848000Y108956500D01*
X152848000Y109437500D01*
X153356000Y109437500D01*
X153356000Y108956500D01*
G37*
G36*
X152323300Y49859500D02*
G01*
X151815300Y49859500D01*
X151815300Y50340500D01*
X152323300Y50340500D01*
X152323300Y49859500D01*
G37*
G36*
X153356000Y49836500D02*
G01*
X152848000Y49836500D01*
X152848000Y50317500D01*
X153356000Y50317500D01*
X153356000Y49836500D01*
G37*
G36*
X77963300Y108979500D02*
G01*
X77455300Y108979500D01*
X77455300Y109460500D01*
X77963300Y109460500D01*
X77963300Y108979500D01*
G37*
G36*
X78996000Y108956500D02*
G01*
X78488000Y108956500D01*
X78488000Y109437500D01*
X78996000Y109437500D01*
X78996000Y108956500D01*
G37*
G36*
X77963300Y49859500D02*
G01*
X77455300Y49859500D01*
X77455300Y50340500D01*
X77963300Y50340500D01*
X77963300Y49859500D01*
G37*
G36*
X78996000Y49836500D02*
G01*
X78488000Y49836500D01*
X78488000Y50317500D01*
X78996000Y50317500D01*
X78996000Y49836500D01*
G37*
G36*
X3603300Y108979500D02*
G01*
X3095300Y108979500D01*
X3095300Y109460500D01*
X3603300Y109460500D01*
X3603300Y108979500D01*
G37*
G36*
X4636000Y108956500D02*
G01*
X4128000Y108956500D01*
X4128000Y109437500D01*
X4636000Y109437500D01*
X4636000Y108956500D01*
G37*
%TO.C,JP5*%
G36*
X333630500Y77116000D02*
G01*
X333149500Y77116000D01*
X333149500Y77624000D01*
X333630500Y77624000D01*
X333630500Y77116000D01*
G37*
G36*
X333630500Y17996000D02*
G01*
X333149500Y17996000D01*
X333149500Y18504000D01*
X333630500Y18504000D01*
X333630500Y17996000D01*
G37*
G36*
X259270500Y77116000D02*
G01*
X258789500Y77116000D01*
X258789500Y77624000D01*
X259270500Y77624000D01*
X259270500Y77116000D01*
G37*
G36*
X259270500Y17996000D02*
G01*
X258789500Y17996000D01*
X258789500Y18504000D01*
X259270500Y18504000D01*
X259270500Y17996000D01*
G37*
G36*
X184910500Y77116000D02*
G01*
X184429500Y77116000D01*
X184429500Y77624000D01*
X184910500Y77624000D01*
X184910500Y77116000D01*
G37*
G36*
X184910500Y17996000D02*
G01*
X184429500Y17996000D01*
X184429500Y18504000D01*
X184910500Y18504000D01*
X184910500Y17996000D01*
G37*
G36*
X110550500Y77116000D02*
G01*
X110069500Y77116000D01*
X110069500Y77624000D01*
X110550500Y77624000D01*
X110550500Y77116000D01*
G37*
G36*
X110550500Y17996000D02*
G01*
X110069500Y17996000D01*
X110069500Y18504000D01*
X110550500Y18504000D01*
X110550500Y17996000D01*
G37*
G36*
X36190500Y77116000D02*
G01*
X35709500Y77116000D01*
X35709500Y77624000D01*
X36190500Y77624000D01*
X36190500Y77116000D01*
G37*
%TO.C,JP1*%
G36*
X299544000Y94379500D02*
G01*
X299036000Y94379500D01*
X299036000Y94860500D01*
X299544000Y94860500D01*
X299544000Y94379500D01*
G37*
G36*
X299544000Y35259500D02*
G01*
X299036000Y35259500D01*
X299036000Y35740500D01*
X299544000Y35740500D01*
X299544000Y35259500D01*
G37*
G36*
X225184000Y94379500D02*
G01*
X224676000Y94379500D01*
X224676000Y94860500D01*
X225184000Y94860500D01*
X225184000Y94379500D01*
G37*
G36*
X225184000Y35259500D02*
G01*
X224676000Y35259500D01*
X224676000Y35740500D01*
X225184000Y35740500D01*
X225184000Y35259500D01*
G37*
G36*
X150824000Y94379500D02*
G01*
X150316000Y94379500D01*
X150316000Y94860500D01*
X150824000Y94860500D01*
X150824000Y94379500D01*
G37*
G36*
X150824000Y35259500D02*
G01*
X150316000Y35259500D01*
X150316000Y35740500D01*
X150824000Y35740500D01*
X150824000Y35259500D01*
G37*
G36*
X76464000Y94379500D02*
G01*
X75956000Y94379500D01*
X75956000Y94860500D01*
X76464000Y94860500D01*
X76464000Y94379500D01*
G37*
G36*
X76464000Y35259500D02*
G01*
X75956000Y35259500D01*
X75956000Y35740500D01*
X76464000Y35740500D01*
X76464000Y35259500D01*
G37*
G36*
X2104000Y94379500D02*
G01*
X1596000Y94379500D01*
X1596000Y94860500D01*
X2104000Y94860500D01*
X2104000Y94379500D01*
G37*
G36*
X2104000Y35259500D02*
G01*
X1596000Y35259500D01*
X1596000Y35740500D01*
X2104000Y35740500D01*
X2104000Y35259500D01*
G37*
%TO.C,JP5*%
G36*
X36190500Y17996000D02*
G01*
X35709500Y17996000D01*
X35709500Y18504000D01*
X36190500Y18504000D01*
X36190500Y17996000D01*
G37*
%TO.C,JP3*%
G36*
X3603300Y49859500D02*
G01*
X3095300Y49859500D01*
X3095300Y50340500D01*
X3603300Y50340500D01*
X3603300Y49859500D01*
G37*
G36*
X4636000Y49836500D02*
G01*
X4128000Y49836500D01*
X4128000Y50317500D01*
X4636000Y50317500D01*
X4636000Y49836500D01*
G37*
%TO.C,JP4*%
G36*
X42223900Y19746000D02*
G01*
X40776100Y19746000D01*
X40776100Y20254000D01*
X42223900Y20254000D01*
X42223900Y19746000D01*
G37*
%TO.C,JP6*%
G36*
X41754000Y9759500D02*
G01*
X41246000Y9759500D01*
X41246000Y10240500D01*
X41754000Y10240500D01*
X41754000Y9759500D01*
G37*
%TD*%
D11*
%TO.C,*%
X369260000Y119767500D03*
%TD*%
%TO.C,*%
X-3220000Y119767500D03*
%TD*%
%TO.C,*%
X-3220000Y-2247500D03*
%TD*%
D12*
%TO.C,TP7*%
X320300000Y94680000D03*
%TD*%
%TO.C,TP7*%
X320300000Y35560000D03*
%TD*%
%TO.C,TP7*%
X245940000Y94680000D03*
%TD*%
%TO.C,TP7*%
X245940000Y35560000D03*
%TD*%
%TO.C,TP7*%
X171580000Y94680000D03*
%TD*%
%TO.C,TP7*%
X171580000Y35560000D03*
%TD*%
%TO.C,TP7*%
X97220000Y94680000D03*
%TD*%
%TO.C,TP7*%
X97220000Y35560000D03*
%TD*%
%TO.C,TP7*%
X22860000Y94680000D03*
%TD*%
D13*
%TO.C,TP8*%
X320300000Y74360000D03*
%TD*%
%TO.C,TP8*%
X320300000Y15240000D03*
%TD*%
%TO.C,TP8*%
X245940000Y74360000D03*
%TD*%
%TO.C,TP8*%
X245940000Y15240000D03*
%TD*%
%TO.C,TP8*%
X171580000Y74360000D03*
%TD*%
%TO.C,TP8*%
X171580000Y15240000D03*
%TD*%
%TO.C,TP8*%
X97220000Y74360000D03*
%TD*%
%TO.C,TP8*%
X97220000Y15240000D03*
%TD*%
%TO.C,TP8*%
X22860000Y74360000D03*
%TD*%
D14*
%TO.C,JP6*%
X339460700Y69120000D03*
X338419300Y69120000D03*
%TD*%
%TO.C,JP6*%
X339460700Y10000000D03*
X338419300Y10000000D03*
%TD*%
%TO.C,JP6*%
X265100700Y69120000D03*
X264059300Y69120000D03*
%TD*%
%TO.C,JP6*%
X265100700Y10000000D03*
X264059300Y10000000D03*
%TD*%
%TO.C,JP6*%
X190740700Y69120000D03*
X189699300Y69120000D03*
%TD*%
%TO.C,JP6*%
X190740700Y10000000D03*
X189699300Y10000000D03*
%TD*%
%TO.C,JP6*%
X116380700Y69120000D03*
X115339300Y69120000D03*
%TD*%
%TO.C,JP6*%
X116380700Y10000000D03*
X115339300Y10000000D03*
%TD*%
%TO.C,JP6*%
X42020700Y69120000D03*
X40979300Y69120000D03*
%TD*%
D15*
%TO.C,JP2*%
X314540000Y73713600D03*
X314540000Y74526400D03*
%TD*%
%TO.C,JP2*%
X314540000Y14593600D03*
X314540000Y15406400D03*
%TD*%
%TO.C,JP2*%
X240180000Y73713600D03*
X240180000Y74526400D03*
%TD*%
%TO.C,JP2*%
X240180000Y14593600D03*
X240180000Y15406400D03*
%TD*%
%TO.C,JP2*%
X165820000Y73713600D03*
X165820000Y74526400D03*
%TD*%
%TO.C,JP2*%
X165820000Y14593600D03*
X165820000Y15406400D03*
%TD*%
%TO.C,JP2*%
X91460000Y73713600D03*
X91460000Y74526400D03*
%TD*%
%TO.C,JP2*%
X91460000Y14593600D03*
X91460000Y15406400D03*
%TD*%
%TO.C,JP2*%
X17100000Y73713600D03*
X17100000Y74526400D03*
%TD*%
D16*
%TO.C,JP4*%
X338940000Y80390000D03*
D17*
X338940000Y79628000D03*
X338940000Y78612000D03*
D16*
X338940000Y77850000D03*
%TD*%
%TO.C,JP4*%
X338940000Y21270000D03*
D17*
X338940000Y20508000D03*
X338940000Y19492000D03*
D16*
X338940000Y18730000D03*
%TD*%
%TO.C,JP4*%
X264580000Y80390000D03*
D17*
X264580000Y79628000D03*
X264580000Y78612000D03*
D16*
X264580000Y77850000D03*
%TD*%
%TO.C,JP4*%
X264580000Y21270000D03*
D17*
X264580000Y20508000D03*
X264580000Y19492000D03*
D16*
X264580000Y18730000D03*
%TD*%
%TO.C,JP4*%
X190220000Y80390000D03*
D17*
X190220000Y79628000D03*
X190220000Y78612000D03*
D16*
X190220000Y77850000D03*
%TD*%
%TO.C,JP4*%
X190220000Y21270000D03*
D17*
X190220000Y20508000D03*
X190220000Y19492000D03*
D16*
X190220000Y18730000D03*
%TD*%
%TO.C,JP4*%
X115860000Y80390000D03*
D17*
X115860000Y79628000D03*
X115860000Y78612000D03*
D16*
X115860000Y77850000D03*
%TD*%
%TO.C,JP4*%
X115860000Y21270000D03*
D17*
X115860000Y20508000D03*
X115860000Y19492000D03*
D16*
X115860000Y18730000D03*
%TD*%
%TO.C,JP4*%
X41500000Y80390000D03*
D17*
X41500000Y79628000D03*
X41500000Y78612000D03*
D16*
X41500000Y77850000D03*
%TD*%
D13*
%TO.C,TP2*%
X348240000Y79440000D03*
%TD*%
%TO.C,TP2*%
X348240000Y20320000D03*
%TD*%
%TO.C,TP2*%
X273880000Y79440000D03*
%TD*%
%TO.C,TP2*%
X273880000Y20320000D03*
%TD*%
%TO.C,TP2*%
X199520000Y79440000D03*
%TD*%
%TO.C,TP2*%
X199520000Y20320000D03*
%TD*%
%TO.C,TP2*%
X125160000Y79440000D03*
%TD*%
%TO.C,TP2*%
X125160000Y20320000D03*
%TD*%
%TO.C,TP2*%
X50800000Y79440000D03*
%TD*%
D18*
%TO.C,JP3*%
X300268600Y109220000D03*
X301310000Y109220000D03*
D14*
X302351400Y109220000D03*
%TD*%
D18*
%TO.C,JP3*%
X300268600Y50100000D03*
X301310000Y50100000D03*
D14*
X302351400Y50100000D03*
%TD*%
D18*
%TO.C,JP3*%
X225908600Y109220000D03*
X226950000Y109220000D03*
D14*
X227991400Y109220000D03*
%TD*%
D18*
%TO.C,JP3*%
X225908600Y50100000D03*
X226950000Y50100000D03*
D14*
X227991400Y50100000D03*
%TD*%
D18*
%TO.C,JP3*%
X151548600Y109220000D03*
X152590000Y109220000D03*
D14*
X153631400Y109220000D03*
%TD*%
D18*
%TO.C,JP3*%
X151548600Y50100000D03*
X152590000Y50100000D03*
D14*
X153631400Y50100000D03*
%TD*%
D18*
%TO.C,JP3*%
X77188600Y109220000D03*
X78230000Y109220000D03*
D14*
X79271400Y109220000D03*
%TD*%
D18*
%TO.C,JP3*%
X77188600Y50100000D03*
X78230000Y50100000D03*
D14*
X79271400Y50100000D03*
%TD*%
D18*
%TO.C,JP3*%
X2828600Y109220000D03*
X3870000Y109220000D03*
D14*
X4911400Y109220000D03*
%TD*%
D19*
%TO.C,JP5*%
X333390000Y76849300D03*
X333390000Y77890700D03*
%TD*%
%TO.C,JP5*%
X333390000Y17729300D03*
X333390000Y18770700D03*
%TD*%
%TO.C,JP5*%
X259030000Y76849300D03*
X259030000Y77890700D03*
%TD*%
%TO.C,JP5*%
X259030000Y17729300D03*
X259030000Y18770700D03*
%TD*%
%TO.C,JP5*%
X184670000Y76849300D03*
X184670000Y77890700D03*
%TD*%
%TO.C,JP5*%
X184670000Y17729300D03*
X184670000Y18770700D03*
%TD*%
%TO.C,JP5*%
X110310000Y76849300D03*
X110310000Y77890700D03*
%TD*%
%TO.C,JP5*%
X110310000Y17729300D03*
X110310000Y18770700D03*
%TD*%
%TO.C,JP5*%
X35950000Y76849300D03*
X35950000Y77890700D03*
%TD*%
D20*
%TO.C,J5*%
X299440000Y103697000D03*
X299440000Y101919000D03*
X299440000Y100141000D03*
X299440000Y98363000D03*
%TD*%
%TO.C,J5*%
X299440000Y44577000D03*
X299440000Y42799000D03*
X299440000Y41021000D03*
X299440000Y39243000D03*
%TD*%
%TO.C,J5*%
X225080000Y103697000D03*
X225080000Y101919000D03*
X225080000Y100141000D03*
X225080000Y98363000D03*
%TD*%
%TO.C,J5*%
X225080000Y44577000D03*
X225080000Y42799000D03*
X225080000Y41021000D03*
X225080000Y39243000D03*
%TD*%
%TO.C,J5*%
X150720000Y103697000D03*
X150720000Y101919000D03*
X150720000Y100141000D03*
X150720000Y98363000D03*
%TD*%
%TO.C,J5*%
X150720000Y44577000D03*
X150720000Y42799000D03*
X150720000Y41021000D03*
X150720000Y39243000D03*
%TD*%
%TO.C,J5*%
X76360000Y103697000D03*
X76360000Y101919000D03*
X76360000Y100141000D03*
X76360000Y98363000D03*
%TD*%
%TO.C,J5*%
X76360000Y44577000D03*
X76360000Y42799000D03*
X76360000Y41021000D03*
X76360000Y39243000D03*
%TD*%
%TO.C,J5*%
X2000000Y103697000D03*
X2000000Y101919000D03*
X2000000Y100141000D03*
X2000000Y98363000D03*
%TD*%
D12*
%TO.C,TP9*%
X322840000Y104840000D03*
%TD*%
%TO.C,TP9*%
X322840000Y45720000D03*
%TD*%
%TO.C,TP9*%
X248480000Y104840000D03*
%TD*%
%TO.C,TP9*%
X248480000Y45720000D03*
%TD*%
%TO.C,TP9*%
X174120000Y104840000D03*
%TD*%
%TO.C,TP9*%
X174120000Y45720000D03*
%TD*%
%TO.C,TP9*%
X99760000Y104840000D03*
%TD*%
%TO.C,TP9*%
X99760000Y45720000D03*
%TD*%
%TO.C,TP9*%
X25400000Y104840000D03*
%TD*%
D13*
%TO.C,TP4*%
X358400000Y87060000D03*
%TD*%
%TO.C,TP4*%
X358400000Y27940000D03*
%TD*%
%TO.C,TP4*%
X284040000Y87060000D03*
%TD*%
%TO.C,TP4*%
X284040000Y27940000D03*
%TD*%
%TO.C,TP4*%
X209680000Y87060000D03*
%TD*%
%TO.C,TP4*%
X209680000Y27940000D03*
%TD*%
%TO.C,TP4*%
X135320000Y87060000D03*
%TD*%
%TO.C,TP4*%
X135320000Y27940000D03*
%TD*%
%TO.C,TP4*%
X60960000Y87060000D03*
%TD*%
D12*
%TO.C,TP6*%
X320300000Y92140000D03*
%TD*%
%TO.C,TP6*%
X320300000Y33020000D03*
%TD*%
%TO.C,TP6*%
X245940000Y92140000D03*
%TD*%
%TO.C,TP6*%
X245940000Y33020000D03*
%TD*%
%TO.C,TP6*%
X171580000Y92140000D03*
%TD*%
%TO.C,TP6*%
X171580000Y33020000D03*
%TD*%
%TO.C,TP6*%
X97220000Y92140000D03*
%TD*%
%TO.C,TP6*%
X97220000Y33020000D03*
%TD*%
%TO.C,TP6*%
X22860000Y92140000D03*
%TD*%
D13*
%TO.C,TP5*%
X353320000Y87060000D03*
%TD*%
%TO.C,TP5*%
X353320000Y27940000D03*
%TD*%
%TO.C,TP5*%
X278960000Y87060000D03*
%TD*%
%TO.C,TP5*%
X278960000Y27940000D03*
%TD*%
%TO.C,TP5*%
X204600000Y87060000D03*
%TD*%
%TO.C,TP5*%
X204600000Y27940000D03*
%TD*%
%TO.C,TP5*%
X130240000Y87060000D03*
%TD*%
%TO.C,TP5*%
X130240000Y27940000D03*
%TD*%
%TO.C,TP5*%
X55880000Y87060000D03*
%TD*%
%TO.C,TP1*%
X315220000Y79440000D03*
%TD*%
%TO.C,TP1*%
X315220000Y20320000D03*
%TD*%
%TO.C,TP1*%
X240860000Y79440000D03*
%TD*%
%TO.C,TP1*%
X240860000Y20320000D03*
%TD*%
%TO.C,TP1*%
X166500000Y79440000D03*
%TD*%
%TO.C,TP1*%
X166500000Y20320000D03*
%TD*%
%TO.C,TP1*%
X92140000Y79440000D03*
%TD*%
%TO.C,TP1*%
X92140000Y20320000D03*
%TD*%
%TO.C,TP1*%
X17780000Y79440000D03*
%TD*%
D12*
%TO.C,TP11*%
X312680000Y104840000D03*
%TD*%
%TO.C,TP11*%
X312680000Y45720000D03*
%TD*%
%TO.C,TP11*%
X238320000Y104840000D03*
%TD*%
%TO.C,TP11*%
X238320000Y45720000D03*
%TD*%
%TO.C,TP11*%
X163960000Y104840000D03*
%TD*%
%TO.C,TP11*%
X163960000Y45720000D03*
%TD*%
%TO.C,TP11*%
X89600000Y104840000D03*
%TD*%
%TO.C,TP11*%
X89600000Y45720000D03*
%TD*%
%TO.C,TP11*%
X15240000Y104840000D03*
%TD*%
D18*
%TO.C,JP1*%
X298769300Y94620000D03*
X299810700Y94620000D03*
%TD*%
%TO.C,JP1*%
X298769300Y35500000D03*
X299810700Y35500000D03*
%TD*%
%TO.C,JP1*%
X224409300Y94620000D03*
X225450700Y94620000D03*
%TD*%
%TO.C,JP1*%
X224409300Y35500000D03*
X225450700Y35500000D03*
%TD*%
%TO.C,JP1*%
X150049300Y94620000D03*
X151090700Y94620000D03*
%TD*%
%TO.C,JP1*%
X150049300Y35500000D03*
X151090700Y35500000D03*
%TD*%
%TO.C,JP1*%
X75689300Y94620000D03*
X76730700Y94620000D03*
%TD*%
%TO.C,JP1*%
X75689300Y35500000D03*
X76730700Y35500000D03*
%TD*%
%TO.C,JP1*%
X1329300Y94620000D03*
X2370700Y94620000D03*
%TD*%
D13*
%TO.C,TP3*%
X348240000Y81980000D03*
%TD*%
%TO.C,TP3*%
X348240000Y22860000D03*
%TD*%
%TO.C,TP3*%
X273880000Y81980000D03*
%TD*%
%TO.C,TP3*%
X273880000Y22860000D03*
%TD*%
%TO.C,TP3*%
X199520000Y81980000D03*
%TD*%
%TO.C,TP3*%
X199520000Y22860000D03*
%TD*%
%TO.C,TP3*%
X125160000Y81980000D03*
%TD*%
%TO.C,TP3*%
X125160000Y22860000D03*
%TD*%
%TO.C,TP3*%
X50800000Y81980000D03*
%TD*%
D21*
%TO.C,FID2*%
X363440000Y65620000D03*
%TD*%
%TO.C,FID2*%
X363440000Y6500000D03*
%TD*%
%TO.C,FID2*%
X289080000Y65620000D03*
%TD*%
%TO.C,FID2*%
X289080000Y6500000D03*
%TD*%
%TO.C,FID2*%
X214720000Y65620000D03*
%TD*%
%TO.C,FID2*%
X214720000Y6500000D03*
%TD*%
%TO.C,FID2*%
X140360000Y65620000D03*
%TD*%
%TO.C,FID2*%
X140360000Y6500000D03*
%TD*%
%TO.C,FID2*%
X66000000Y65620000D03*
%TD*%
D13*
%TO.C,TP10*%
X307600000Y115000000D03*
%TD*%
%TO.C,TP10*%
X307600000Y55880000D03*
%TD*%
%TO.C,TP10*%
X233240000Y115000000D03*
%TD*%
%TO.C,TP10*%
X233240000Y55880000D03*
%TD*%
%TO.C,TP10*%
X158880000Y115000000D03*
%TD*%
%TO.C,TP10*%
X158880000Y55880000D03*
%TD*%
%TO.C,TP10*%
X84520000Y115000000D03*
%TD*%
%TO.C,TP10*%
X84520000Y55880000D03*
%TD*%
%TO.C,TP10*%
X10160000Y115000000D03*
%TD*%
D21*
%TO.C,FID3*%
X306440000Y116520000D03*
%TD*%
%TO.C,FID3*%
X306440000Y57400000D03*
%TD*%
%TO.C,FID3*%
X232080000Y116520000D03*
%TD*%
%TO.C,FID3*%
X232080000Y57400000D03*
%TD*%
%TO.C,FID3*%
X157720000Y116520000D03*
%TD*%
%TO.C,FID3*%
X157720000Y57400000D03*
%TD*%
%TO.C,FID3*%
X83360000Y116520000D03*
%TD*%
%TO.C,FID3*%
X83360000Y57400000D03*
%TD*%
%TO.C,FID3*%
X9000000Y116520000D03*
%TD*%
D22*
%TO.C,ST2*%
X311420000Y64190000D03*
%TD*%
%TO.C,ST2*%
X311420000Y5070000D03*
%TD*%
%TO.C,ST2*%
X237060000Y64190000D03*
%TD*%
%TO.C,ST2*%
X237060000Y5070000D03*
%TD*%
%TO.C,ST2*%
X162700000Y64190000D03*
%TD*%
%TO.C,ST2*%
X162700000Y5070000D03*
%TD*%
%TO.C,ST2*%
X88340000Y64190000D03*
%TD*%
%TO.C,ST2*%
X88340000Y5070000D03*
%TD*%
%TO.C,ST2*%
X13980000Y64190000D03*
%TD*%
D23*
%TO.C,J4*%
X302401250Y103920000D03*
X302401250Y98140000D03*
D24*
X298751250Y105348000D03*
D25*
X302931250Y105348000D03*
X302931250Y96712000D03*
D24*
X298751250Y96712000D03*
%TD*%
D23*
%TO.C,J4*%
X302401250Y44800000D03*
X302401250Y39020000D03*
D24*
X298751250Y46228000D03*
D25*
X302931250Y46228000D03*
X302931250Y37592000D03*
D24*
X298751250Y37592000D03*
%TD*%
D23*
%TO.C,J4*%
X228041250Y103920000D03*
X228041250Y98140000D03*
D24*
X224391250Y105348000D03*
D25*
X228571250Y105348000D03*
X228571250Y96712000D03*
D24*
X224391250Y96712000D03*
%TD*%
D23*
%TO.C,J4*%
X228041250Y44800000D03*
X228041250Y39020000D03*
D24*
X224391250Y46228000D03*
D25*
X228571250Y46228000D03*
X228571250Y37592000D03*
D24*
X224391250Y37592000D03*
%TD*%
D23*
%TO.C,J4*%
X153681250Y103920000D03*
X153681250Y98140000D03*
D24*
X150031250Y105348000D03*
D25*
X154211250Y105348000D03*
X154211250Y96712000D03*
D24*
X150031250Y96712000D03*
%TD*%
D23*
%TO.C,J4*%
X153681250Y44800000D03*
X153681250Y39020000D03*
D24*
X150031250Y46228000D03*
D25*
X154211250Y46228000D03*
X154211250Y37592000D03*
D24*
X150031250Y37592000D03*
%TD*%
D23*
%TO.C,J4*%
X79321250Y103920000D03*
X79321250Y98140000D03*
D24*
X75671250Y105348000D03*
D25*
X79851250Y105348000D03*
X79851250Y96712000D03*
D24*
X75671250Y96712000D03*
%TD*%
D23*
%TO.C,J4*%
X79321250Y44800000D03*
X79321250Y39020000D03*
D24*
X75671250Y46228000D03*
D25*
X79851250Y46228000D03*
X79851250Y37592000D03*
D24*
X75671250Y37592000D03*
%TD*%
D23*
%TO.C,J4*%
X4961250Y103920000D03*
X4961250Y98140000D03*
D24*
X1311250Y105348000D03*
D25*
X5491250Y105348000D03*
X5491250Y96712000D03*
D24*
X1311250Y96712000D03*
%TD*%
D16*
%TO.C,J6*%
X317770000Y70120000D03*
X320310000Y70120000D03*
%TD*%
%TO.C,J6*%
X317770000Y11000000D03*
X320310000Y11000000D03*
%TD*%
%TO.C,J6*%
X243410000Y70120000D03*
X245950000Y70120000D03*
%TD*%
%TO.C,J6*%
X243410000Y11000000D03*
X245950000Y11000000D03*
%TD*%
%TO.C,J6*%
X169050000Y70120000D03*
X171590000Y70120000D03*
%TD*%
%TO.C,J6*%
X169050000Y11000000D03*
X171590000Y11000000D03*
%TD*%
%TO.C,J6*%
X94690000Y70120000D03*
X97230000Y70120000D03*
%TD*%
%TO.C,J6*%
X94690000Y11000000D03*
X97230000Y11000000D03*
%TD*%
%TO.C,J6*%
X20330000Y70120000D03*
X22870000Y70120000D03*
%TD*%
D26*
%TO.C,J3*%
X299345000Y70296000D03*
X303917000Y70296000D03*
%TD*%
%TO.C,J3*%
X299345000Y11176000D03*
X303917000Y11176000D03*
%TD*%
%TO.C,J3*%
X224985000Y70296000D03*
X229557000Y70296000D03*
%TD*%
%TO.C,J3*%
X224985000Y11176000D03*
X229557000Y11176000D03*
%TD*%
%TO.C,J3*%
X150625000Y70296000D03*
X155197000Y70296000D03*
%TD*%
%TO.C,J3*%
X150625000Y11176000D03*
X155197000Y11176000D03*
%TD*%
%TO.C,J3*%
X76265000Y70296000D03*
X80837000Y70296000D03*
%TD*%
%TO.C,J3*%
X76265000Y11176000D03*
X80837000Y11176000D03*
%TD*%
%TO.C,J3*%
X1905000Y70296000D03*
X6477000Y70296000D03*
%TD*%
D22*
%TO.C,ST1*%
X312690000Y112460000D03*
%TD*%
%TO.C,ST1*%
X312690000Y53340000D03*
%TD*%
%TO.C,ST1*%
X238330000Y112460000D03*
%TD*%
%TO.C,ST1*%
X238330000Y53340000D03*
%TD*%
%TO.C,ST1*%
X163970000Y112460000D03*
%TD*%
%TO.C,ST1*%
X163970000Y53340000D03*
%TD*%
%TO.C,ST1*%
X89610000Y112460000D03*
%TD*%
%TO.C,ST1*%
X89610000Y53340000D03*
%TD*%
%TO.C,ST1*%
X15250000Y112460000D03*
%TD*%
%TO.C,ST3*%
X363490000Y97210000D03*
%TD*%
%TO.C,ST3*%
X363490000Y38090000D03*
%TD*%
%TO.C,ST3*%
X289130000Y97210000D03*
%TD*%
%TO.C,ST3*%
X289130000Y38090000D03*
%TD*%
%TO.C,ST3*%
X214770000Y97210000D03*
%TD*%
%TO.C,ST3*%
X214770000Y38090000D03*
%TD*%
%TO.C,ST3*%
X140410000Y97210000D03*
%TD*%
%TO.C,ST3*%
X140410000Y38090000D03*
%TD*%
%TO.C,ST3*%
X66050000Y97210000D03*
%TD*%
D27*
%TO.C,J14*%
X301540000Y91502000D03*
X301540000Y83502000D03*
%TD*%
%TO.C,J14*%
X301540000Y32382000D03*
X301540000Y24382000D03*
%TD*%
%TO.C,J14*%
X227180000Y91502000D03*
X227180000Y83502000D03*
%TD*%
%TO.C,J14*%
X227180000Y32382000D03*
X227180000Y24382000D03*
%TD*%
%TO.C,J14*%
X152820000Y91502000D03*
X152820000Y83502000D03*
%TD*%
%TO.C,J14*%
X152820000Y32382000D03*
X152820000Y24382000D03*
%TD*%
%TO.C,J14*%
X78460000Y91502000D03*
X78460000Y83502000D03*
%TD*%
%TO.C,J14*%
X78460000Y32382000D03*
X78460000Y24382000D03*
%TD*%
%TO.C,J14*%
X4100000Y91502000D03*
X4100000Y83502000D03*
%TD*%
D22*
%TO.C,ST4*%
X363490000Y69270000D03*
%TD*%
%TO.C,ST4*%
X363490000Y10150000D03*
%TD*%
%TO.C,ST4*%
X289130000Y69270000D03*
%TD*%
%TO.C,ST4*%
X289130000Y10150000D03*
%TD*%
%TO.C,ST4*%
X214770000Y69270000D03*
%TD*%
%TO.C,ST4*%
X214770000Y10150000D03*
%TD*%
%TO.C,ST4*%
X140410000Y69270000D03*
%TD*%
%TO.C,ST4*%
X140410000Y10150000D03*
%TD*%
%TO.C,ST4*%
X66050000Y69270000D03*
%TD*%
D16*
%TO.C,J10*%
X347440000Y98120000D03*
X347440000Y100660000D03*
X347440000Y103200000D03*
%TD*%
%TO.C,J10*%
X347440000Y39000000D03*
X347440000Y41540000D03*
X347440000Y44080000D03*
%TD*%
%TO.C,J10*%
X273080000Y98120000D03*
X273080000Y100660000D03*
X273080000Y103200000D03*
%TD*%
%TO.C,J10*%
X273080000Y39000000D03*
X273080000Y41540000D03*
X273080000Y44080000D03*
%TD*%
%TO.C,J10*%
X198720000Y98120000D03*
X198720000Y100660000D03*
X198720000Y103200000D03*
%TD*%
%TO.C,J10*%
X198720000Y39000000D03*
X198720000Y41540000D03*
X198720000Y44080000D03*
%TD*%
%TO.C,J10*%
X124360000Y98120000D03*
X124360000Y100660000D03*
X124360000Y103200000D03*
%TD*%
%TO.C,J10*%
X124360000Y39000000D03*
X124360000Y41540000D03*
X124360000Y44080000D03*
%TD*%
%TO.C,J10*%
X50000000Y98120000D03*
X50000000Y100660000D03*
X50000000Y103200000D03*
%TD*%
%TO.C,H1*%
X333010000Y60380000D03*
X335550000Y60380000D03*
X360950000Y60380000D03*
X358410000Y60380000D03*
X355870000Y60380000D03*
X353330000Y60380000D03*
X350790000Y60380000D03*
X348250000Y60380000D03*
X321326000Y116260000D03*
X360950000Y116260000D03*
X358410000Y116260000D03*
X355870000Y116260000D03*
X353330000Y116260000D03*
X350790000Y116260000D03*
X348250000Y116260000D03*
X345710000Y116260000D03*
X343170000Y116260000D03*
X339106000Y116260000D03*
X336566000Y116260000D03*
X334026000Y116260000D03*
X331486000Y116260000D03*
X328946000Y116260000D03*
X326406000Y116260000D03*
X318786000Y116260000D03*
X316246000Y116260000D03*
X323866000Y116260000D03*
X338090000Y60380000D03*
X340630000Y60380000D03*
X327930000Y60380000D03*
X325390000Y60380000D03*
X343170000Y60380000D03*
X330470000Y60380000D03*
%TD*%
%TO.C,H1*%
X333010000Y1260000D03*
X335550000Y1260000D03*
X360950000Y1260000D03*
X358410000Y1260000D03*
X355870000Y1260000D03*
X353330000Y1260000D03*
X350790000Y1260000D03*
X348250000Y1260000D03*
X321326000Y57140000D03*
X360950000Y57140000D03*
X358410000Y57140000D03*
X355870000Y57140000D03*
X353330000Y57140000D03*
X350790000Y57140000D03*
X348250000Y57140000D03*
X345710000Y57140000D03*
X343170000Y57140000D03*
X339106000Y57140000D03*
X336566000Y57140000D03*
X334026000Y57140000D03*
X331486000Y57140000D03*
X328946000Y57140000D03*
X326406000Y57140000D03*
X318786000Y57140000D03*
X316246000Y57140000D03*
X323866000Y57140000D03*
X338090000Y1260000D03*
X340630000Y1260000D03*
X327930000Y1260000D03*
X325390000Y1260000D03*
X343170000Y1260000D03*
X330470000Y1260000D03*
%TD*%
%TO.C,H1*%
X258650000Y60380000D03*
X261190000Y60380000D03*
X286590000Y60380000D03*
X284050000Y60380000D03*
X281510000Y60380000D03*
X278970000Y60380000D03*
X276430000Y60380000D03*
X273890000Y60380000D03*
X246966000Y116260000D03*
X286590000Y116260000D03*
X284050000Y116260000D03*
X281510000Y116260000D03*
X278970000Y116260000D03*
X276430000Y116260000D03*
X273890000Y116260000D03*
X271350000Y116260000D03*
X268810000Y116260000D03*
X264746000Y116260000D03*
X262206000Y116260000D03*
X259666000Y116260000D03*
X257126000Y116260000D03*
X254586000Y116260000D03*
X252046000Y116260000D03*
X244426000Y116260000D03*
X241886000Y116260000D03*
X249506000Y116260000D03*
X263730000Y60380000D03*
X266270000Y60380000D03*
X253570000Y60380000D03*
X251030000Y60380000D03*
X268810000Y60380000D03*
X256110000Y60380000D03*
%TD*%
%TO.C,H1*%
X258650000Y1260000D03*
X261190000Y1260000D03*
X286590000Y1260000D03*
X284050000Y1260000D03*
X281510000Y1260000D03*
X278970000Y1260000D03*
X276430000Y1260000D03*
X273890000Y1260000D03*
X246966000Y57140000D03*
X286590000Y57140000D03*
X284050000Y57140000D03*
X281510000Y57140000D03*
X278970000Y57140000D03*
X276430000Y57140000D03*
X273890000Y57140000D03*
X271350000Y57140000D03*
X268810000Y57140000D03*
X264746000Y57140000D03*
X262206000Y57140000D03*
X259666000Y57140000D03*
X257126000Y57140000D03*
X254586000Y57140000D03*
X252046000Y57140000D03*
X244426000Y57140000D03*
X241886000Y57140000D03*
X249506000Y57140000D03*
X263730000Y1260000D03*
X266270000Y1260000D03*
X253570000Y1260000D03*
X251030000Y1260000D03*
X268810000Y1260000D03*
X256110000Y1260000D03*
%TD*%
%TO.C,H1*%
X184290000Y60380000D03*
X186830000Y60380000D03*
X212230000Y60380000D03*
X209690000Y60380000D03*
X207150000Y60380000D03*
X204610000Y60380000D03*
X202070000Y60380000D03*
X199530000Y60380000D03*
X172606000Y116260000D03*
X212230000Y116260000D03*
X209690000Y116260000D03*
X207150000Y116260000D03*
X204610000Y116260000D03*
X202070000Y116260000D03*
X199530000Y116260000D03*
X196990000Y116260000D03*
X194450000Y116260000D03*
X190386000Y116260000D03*
X187846000Y116260000D03*
X185306000Y116260000D03*
X182766000Y116260000D03*
X180226000Y116260000D03*
X177686000Y116260000D03*
X170066000Y116260000D03*
X167526000Y116260000D03*
X175146000Y116260000D03*
X189370000Y60380000D03*
X191910000Y60380000D03*
X179210000Y60380000D03*
X176670000Y60380000D03*
X194450000Y60380000D03*
X181750000Y60380000D03*
%TD*%
%TO.C,H1*%
X184290000Y1260000D03*
X186830000Y1260000D03*
X212230000Y1260000D03*
X209690000Y1260000D03*
X207150000Y1260000D03*
X204610000Y1260000D03*
X202070000Y1260000D03*
X199530000Y1260000D03*
X172606000Y57140000D03*
X212230000Y57140000D03*
X209690000Y57140000D03*
X207150000Y57140000D03*
X204610000Y57140000D03*
X202070000Y57140000D03*
X199530000Y57140000D03*
X196990000Y57140000D03*
X194450000Y57140000D03*
X190386000Y57140000D03*
X187846000Y57140000D03*
X185306000Y57140000D03*
X182766000Y57140000D03*
X180226000Y57140000D03*
X177686000Y57140000D03*
X170066000Y57140000D03*
X167526000Y57140000D03*
X175146000Y57140000D03*
X189370000Y1260000D03*
X191910000Y1260000D03*
X179210000Y1260000D03*
X176670000Y1260000D03*
X194450000Y1260000D03*
X181750000Y1260000D03*
%TD*%
%TO.C,H1*%
X109930000Y60380000D03*
X112470000Y60380000D03*
X137870000Y60380000D03*
X135330000Y60380000D03*
X132790000Y60380000D03*
X130250000Y60380000D03*
X127710000Y60380000D03*
X125170000Y60380000D03*
X98246000Y116260000D03*
X137870000Y116260000D03*
X135330000Y116260000D03*
X132790000Y116260000D03*
X130250000Y116260000D03*
X127710000Y116260000D03*
X125170000Y116260000D03*
X122630000Y116260000D03*
X120090000Y116260000D03*
X116026000Y116260000D03*
X113486000Y116260000D03*
X110946000Y116260000D03*
X108406000Y116260000D03*
X105866000Y116260000D03*
X103326000Y116260000D03*
X95706000Y116260000D03*
X93166000Y116260000D03*
X100786000Y116260000D03*
X115010000Y60380000D03*
X117550000Y60380000D03*
X104850000Y60380000D03*
X102310000Y60380000D03*
X120090000Y60380000D03*
X107390000Y60380000D03*
%TD*%
%TO.C,H1*%
X109930000Y1260000D03*
X112470000Y1260000D03*
X137870000Y1260000D03*
X135330000Y1260000D03*
X132790000Y1260000D03*
X130250000Y1260000D03*
X127710000Y1260000D03*
X125170000Y1260000D03*
X98246000Y57140000D03*
X137870000Y57140000D03*
X135330000Y57140000D03*
X132790000Y57140000D03*
X130250000Y57140000D03*
X127710000Y57140000D03*
X125170000Y57140000D03*
X122630000Y57140000D03*
X120090000Y57140000D03*
X116026000Y57140000D03*
X113486000Y57140000D03*
X110946000Y57140000D03*
X108406000Y57140000D03*
X105866000Y57140000D03*
X103326000Y57140000D03*
X95706000Y57140000D03*
X93166000Y57140000D03*
X100786000Y57140000D03*
X115010000Y1260000D03*
X117550000Y1260000D03*
X104850000Y1260000D03*
X102310000Y1260000D03*
X120090000Y1260000D03*
X107390000Y1260000D03*
%TD*%
%TO.C,H1*%
X35570000Y60380000D03*
X38110000Y60380000D03*
X63510000Y60380000D03*
X60970000Y60380000D03*
X58430000Y60380000D03*
X55890000Y60380000D03*
X53350000Y60380000D03*
X50810000Y60380000D03*
X23886000Y116260000D03*
X63510000Y116260000D03*
X60970000Y116260000D03*
X58430000Y116260000D03*
X55890000Y116260000D03*
X53350000Y116260000D03*
X50810000Y116260000D03*
X48270000Y116260000D03*
X45730000Y116260000D03*
X41666000Y116260000D03*
X39126000Y116260000D03*
X36586000Y116260000D03*
X34046000Y116260000D03*
X31506000Y116260000D03*
X28966000Y116260000D03*
X21346000Y116260000D03*
X18806000Y116260000D03*
X26426000Y116260000D03*
X40650000Y60380000D03*
X43190000Y60380000D03*
X30490000Y60380000D03*
X27950000Y60380000D03*
X45730000Y60380000D03*
X33030000Y60380000D03*
%TD*%
%TO.C,H1*%
X35570000Y1260000D03*
X38110000Y1260000D03*
X63510000Y1260000D03*
X60970000Y1260000D03*
X58430000Y1260000D03*
X55890000Y1260000D03*
X53350000Y1260000D03*
X50810000Y1260000D03*
X23886000Y57140000D03*
X63510000Y57140000D03*
X60970000Y57140000D03*
X58430000Y57140000D03*
X55890000Y57140000D03*
X53350000Y57140000D03*
X50810000Y57140000D03*
X48270000Y57140000D03*
X45730000Y57140000D03*
X41666000Y57140000D03*
X39126000Y57140000D03*
X36586000Y57140000D03*
X34046000Y57140000D03*
X31506000Y57140000D03*
X28966000Y57140000D03*
X21346000Y57140000D03*
X18806000Y57140000D03*
X26426000Y57140000D03*
X40650000Y1260000D03*
X43190000Y1260000D03*
X30490000Y1260000D03*
X27950000Y1260000D03*
X45730000Y1260000D03*
X33030000Y1260000D03*
%TD*%
%TO.C,J10*%
X50000000Y39000000D03*
X50000000Y41540000D03*
X50000000Y44080000D03*
%TD*%
D22*
%TO.C,ST4*%
X66050000Y10150000D03*
%TD*%
D27*
%TO.C,J14*%
X4100000Y32382000D03*
X4100000Y24382000D03*
%TD*%
D22*
%TO.C,ST3*%
X66050000Y38090000D03*
%TD*%
%TO.C,ST1*%
X15250000Y53340000D03*
%TD*%
D26*
%TO.C,J3*%
X1905000Y11176000D03*
X6477000Y11176000D03*
%TD*%
D16*
%TO.C,J6*%
X20330000Y11000000D03*
X22870000Y11000000D03*
%TD*%
D23*
%TO.C,J4*%
X4961250Y44800000D03*
X4961250Y39020000D03*
D24*
X1311250Y46228000D03*
D25*
X5491250Y46228000D03*
X5491250Y37592000D03*
D24*
X1311250Y37592000D03*
%TD*%
D22*
%TO.C,ST2*%
X13980000Y5070000D03*
%TD*%
D21*
%TO.C,FID3*%
X9000000Y57400000D03*
%TD*%
D13*
%TO.C,TP10*%
X10160000Y55880000D03*
%TD*%
D21*
%TO.C,FID2*%
X66000000Y6500000D03*
%TD*%
D13*
%TO.C,TP3*%
X50800000Y22860000D03*
%TD*%
D18*
%TO.C,JP1*%
X1329300Y35500000D03*
X2370700Y35500000D03*
%TD*%
D12*
%TO.C,TP11*%
X15240000Y45720000D03*
%TD*%
D13*
%TO.C,TP1*%
X17780000Y20320000D03*
%TD*%
%TO.C,TP5*%
X55880000Y27940000D03*
%TD*%
D12*
%TO.C,TP6*%
X22860000Y33020000D03*
%TD*%
D13*
%TO.C,TP4*%
X60960000Y27940000D03*
%TD*%
D12*
%TO.C,TP9*%
X25400000Y45720000D03*
%TD*%
D20*
%TO.C,J5*%
X2000000Y44577000D03*
X2000000Y42799000D03*
X2000000Y41021000D03*
X2000000Y39243000D03*
%TD*%
D19*
%TO.C,JP5*%
X35950000Y17729300D03*
X35950000Y18770700D03*
%TD*%
D18*
%TO.C,JP3*%
X2828600Y50100000D03*
X3870000Y50100000D03*
D14*
X4911400Y50100000D03*
%TD*%
D13*
%TO.C,TP2*%
X50800000Y20320000D03*
%TD*%
D16*
%TO.C,JP4*%
X41500000Y21270000D03*
D17*
X41500000Y20508000D03*
X41500000Y19492000D03*
D16*
X41500000Y18730000D03*
%TD*%
D15*
%TO.C,JP2*%
X17100000Y14593600D03*
X17100000Y15406400D03*
%TD*%
D14*
%TO.C,JP6*%
X42020700Y10000000D03*
X40979300Y10000000D03*
%TD*%
D13*
%TO.C,TP8*%
X22860000Y15240000D03*
%TD*%
D12*
%TO.C,TP7*%
X22860000Y35560000D03*
%TD*%
M02*
