%TF.GenerationSoftware,KiCad,Pcbnew,8.0.6*%
%TF.CreationDate,2024-12-20T13:40:34-07:00*%
%TF.ProjectId,SparkFun_IoT_RedBoard-RP2350_panelized,53706172-6b46-4756-9e5f-496f545f5265,v01*%
%TF.SameCoordinates,Original*%
%TF.FileFunction,Soldermask,Top*%
%TF.FilePolarity,Negative*%
%FSLAX46Y46*%
G04 Gerber Fmt 4.6, Leading zero omitted, Abs format (unit mm)*
G04 Created by KiCad (PCBNEW 8.0.6) date 2024-12-20 13:40:34*
%MOMM*%
%LPD*%
G01*
G04 APERTURE LIST*
G04 Aperture macros list*
%AMRoundRect*
0 Rectangle with rounded corners*
0 $1 Rounding radius*
0 $2 $3 $4 $5 $6 $7 $8 $9 X,Y pos of 4 corners*
0 Add a 4 corners polygon primitive as box body*
4,1,4,$2,$3,$4,$5,$6,$7,$8,$9,$2,$3,0*
0 Add four circle primitives for the rounded corners*
1,1,$1+$1,$2,$3*
1,1,$1+$1,$4,$5*
1,1,$1+$1,$6,$7*
1,1,$1+$1,$8,$9*
0 Add four rect primitives between the rounded corners*
20,1,$1+$1,$2,$3,$4,$5,0*
20,1,$1+$1,$4,$5,$6,$7,0*
20,1,$1+$1,$6,$7,$8,$9,0*
20,1,$1+$1,$8,$9,$2,$3,0*%
%AMFreePoly0*
4,1,14,0.490355,2.060355,0.505000,2.025000,0.505000,-2.025000,0.490355,-2.060355,0.455000,-2.075000,-0.455000,-2.075000,-0.490355,-2.060355,-0.505000,-2.025000,-0.505000,1.570000,-0.490355,1.605355,-0.035355,2.060355,0.000000,2.075000,0.455000,2.075000,0.490355,2.060355,0.490355,2.060355,$1*%
G04 Aperture macros list end*
%ADD10C,0.000000*%
%ADD11C,3.000000*%
%ADD12C,1.979600*%
%ADD13C,3.200000*%
%ADD14RoundRect,0.160000X-0.160000X-0.210000X0.160000X-0.210000X0.160000X0.210000X-0.160000X0.210000X0*%
%ADD15RoundRect,0.165000X0.195000X-0.165000X0.195000X0.165000X-0.195000X0.165000X-0.195000X-0.165000X0*%
%ADD16RoundRect,0.160000X0.160000X0.210000X-0.160000X0.210000X-0.160000X-0.210000X0.160000X-0.210000X0*%
%ADD17C,0.750000*%
%ADD18RoundRect,0.050000X0.500000X-0.150000X0.500000X0.150000X-0.500000X0.150000X-0.500000X-0.150000X0*%
%ADD19RoundRect,0.050000X-0.500000X0.150000X-0.500000X-0.150000X0.500000X-0.150000X0.500000X0.150000X0*%
%ADD20RoundRect,0.050000X0.500000X-0.300000X0.500000X0.300000X-0.500000X0.300000X-0.500000X-0.300000X0*%
%ADD21RoundRect,0.050000X-0.500000X0.300000X-0.500000X-0.300000X0.500000X-0.300000X0.500000X0.300000X0*%
%ADD22O,1.700000X1.100000*%
%ADD23O,2.200000X1.100000*%
%ADD24RoundRect,0.160000X-0.210000X0.160000X-0.210000X-0.160000X0.210000X-0.160000X0.210000X0.160000X0*%
%ADD25RoundRect,0.050000X0.381000X0.762000X-0.381000X0.762000X-0.381000X-0.762000X0.381000X-0.762000X0*%
%ADD26RoundRect,0.160000X0.210000X-0.160000X0.210000X0.160000X-0.210000X0.160000X-0.210000X-0.160000X0*%
%ADD27RoundRect,0.165000X-0.165000X-0.195000X0.165000X-0.195000X0.165000X0.195000X-0.165000X0.195000X0*%
%ADD28C,2.132000*%
%ADD29RoundRect,0.050000X-1.400000X-1.200000X1.400000X-1.200000X1.400000X1.200000X-1.400000X1.200000X0*%
%ADD30RoundRect,0.165000X0.165000X0.195000X-0.165000X0.195000X-0.165000X-0.195000X0.165000X-0.195000X0*%
%ADD31RoundRect,0.050000X-0.750000X0.300000X-0.750000X-0.300000X0.750000X-0.300000X0.750000X0.300000X0*%
%ADD32RoundRect,0.050000X-0.750000X0.400000X-0.750000X-0.400000X0.750000X-0.400000X0.750000X0.400000X0*%
%ADD33RoundRect,0.050000X-0.600000X0.275000X-0.600000X-0.275000X0.600000X-0.275000X0.600000X0.275000X0*%
%ADD34RoundRect,0.050000X-0.400000X-0.750000X0.400000X-0.750000X0.400000X0.750000X-0.400000X0.750000X0*%
%ADD35RoundRect,0.050000X-0.300000X-0.150000X0.300000X-0.150000X0.300000X0.150000X-0.300000X0.150000X0*%
%ADD36RoundRect,0.050000X-0.200000X-0.865000X0.200000X-0.865000X0.200000X0.865000X-0.200000X0.865000X0*%
%ADD37RoundRect,0.165000X-0.195000X0.165000X-0.195000X-0.165000X0.195000X-0.165000X0.195000X0.165000X0*%
%ADD38RoundRect,0.243750X0.243750X0.281250X-0.243750X0.281250X-0.243750X-0.281250X0.243750X-0.281250X0*%
%ADD39RoundRect,0.220000X-0.330000X-0.580000X0.330000X-0.580000X0.330000X0.580000X-0.330000X0.580000X0*%
%ADD40RoundRect,0.220000X-0.580000X0.330000X-0.580000X-0.330000X0.580000X-0.330000X0.580000X0.330000X0*%
%ADD41RoundRect,0.275000X0.275000X0.500000X-0.275000X0.500000X-0.275000X-0.500000X0.275000X-0.500000X0*%
%ADD42RoundRect,0.066667X-0.133333X0.318333X-0.133333X-0.318333X0.133333X-0.318333X0.133333X0.318333X0*%
%ADD43RoundRect,0.050000X0.500000X2.300000X-0.500000X2.300000X-0.500000X-2.300000X0.500000X-2.300000X0*%
%ADD44RoundRect,0.050000X-0.800000X1.700000X-0.800000X-1.700000X0.800000X-1.700000X0.800000X1.700000X0*%
%ADD45RoundRect,0.050000X0.275000X0.600000X-0.275000X0.600000X-0.275000X-0.600000X0.275000X-0.600000X0*%
%ADD46RoundRect,0.050000X0.800000X0.275000X-0.800000X0.275000X-0.800000X-0.275000X0.800000X-0.275000X0*%
%ADD47RoundRect,0.050000X-0.350000X0.350000X-0.350000X-0.350000X0.350000X-0.350000X0.350000X0.350000X0*%
%ADD48RoundRect,0.050000X-0.675000X0.300000X-0.675000X-0.300000X0.675000X-0.300000X0.675000X0.300000X0*%
%ADD49RoundRect,0.050000X-1.000000X0.600000X-1.000000X-0.600000X1.000000X-0.600000X1.000000X0.600000X0*%
%ADD50RoundRect,0.064000X-0.096000X0.376000X-0.096000X-0.376000X0.096000X-0.376000X0.096000X0.376000X0*%
%ADD51RoundRect,0.064000X-0.376000X-0.096000X0.376000X-0.096000X0.376000X0.096000X-0.376000X0.096000X0*%
%ADD52RoundRect,0.064000X0.096000X-0.376000X0.096000X0.376000X-0.096000X0.376000X-0.096000X-0.376000X0*%
%ADD53RoundRect,0.064000X0.376000X0.096000X-0.376000X0.096000X-0.376000X-0.096000X0.376000X-0.096000X0*%
%ADD54RoundRect,0.050000X1.700000X-1.700000X1.700000X1.700000X-1.700000X1.700000X-1.700000X-1.700000X0*%
%ADD55RoundRect,0.243750X-0.243750X-0.281250X0.243750X-0.281250X0.243750X0.281250X-0.243750X0.281250X0*%
%ADD56RoundRect,0.050000X0.762000X-0.381000X0.762000X0.381000X-0.762000X0.381000X-0.762000X-0.381000X0*%
%ADD57RoundRect,0.222222X0.927778X-0.577778X0.927778X0.577778X-0.927778X0.577778X-0.927778X-0.577778X0*%
%ADD58RoundRect,0.050000X0.500000X-0.600000X0.500000X0.600000X-0.500000X0.600000X-0.500000X-0.600000X0*%
%ADD59RoundRect,0.250000X0.250000X0.275000X-0.250000X0.275000X-0.250000X-0.275000X0.250000X-0.275000X0*%
%ADD60RoundRect,0.050000X-0.800000X-0.900000X0.800000X-0.900000X0.800000X0.900000X-0.800000X0.900000X0*%
%ADD61RoundRect,0.050000X0.600000X-0.275000X0.600000X0.275000X-0.600000X0.275000X-0.600000X-0.275000X0*%
%ADD62C,1.100000*%
%ADD63RoundRect,0.050000X-0.800000X-0.350000X0.800000X-0.350000X0.800000X0.350000X-0.800000X0.350000X0*%
%ADD64RoundRect,0.050000X-0.800000X0.600000X-0.800000X-0.600000X0.800000X-0.600000X0.800000X0.600000X0*%
%ADD65RoundRect,0.050000X-1.100000X0.600000X-1.100000X-0.600000X1.100000X-0.600000X1.100000X0.600000X0*%
%ADD66RoundRect,0.050000X-0.700000X0.800000X-0.700000X-0.800000X0.700000X-0.800000X0.700000X0.800000X0*%
%ADD67RoundRect,0.050000X0.250000X0.425000X-0.250000X0.425000X-0.250000X-0.425000X0.250000X-0.425000X0*%
%ADD68FreePoly0,90.000000*%
%ADD69RoundRect,0.275000X-0.275000X-0.500000X0.275000X-0.500000X0.275000X0.500000X-0.275000X0.500000X0*%
%ADD70RoundRect,0.050000X1.750000X-0.925000X1.750000X0.925000X-1.750000X0.925000X-1.750000X-0.925000X0*%
%ADD71C,0.600000*%
%ADD72RoundRect,0.250000X-0.250000X-0.275000X0.250000X-0.275000X0.250000X0.275000X-0.250000X0.275000X0*%
%ADD73RoundRect,0.050000X-0.230000X-0.325000X0.230000X-0.325000X0.230000X0.325000X-0.230000X0.325000X0*%
%ADD74RoundRect,0.050000X0.125000X-0.200000X0.125000X0.200000X-0.125000X0.200000X-0.125000X-0.200000X0*%
%ADD75RoundRect,0.050000X0.800000X-0.100000X0.800000X0.100000X-0.800000X0.100000X-0.800000X-0.100000X0*%
%ADD76RoundRect,0.050000X1.447800X-0.838200X1.447800X0.838200X-1.447800X0.838200X-1.447800X-0.838200X0*%
%ADD77RoundRect,0.050000X0.775000X-0.300000X0.775000X0.300000X-0.775000X0.300000X-0.775000X-0.300000X0*%
%ADD78RoundRect,0.050000X0.900000X-0.600000X0.900000X0.600000X-0.900000X0.600000X-0.900000X-0.600000X0*%
G04 APERTURE END LIST*
D10*
G36*
X54514920Y95112868D02*
G01*
X54532662Y95112286D01*
X54547631Y95111202D01*
X54566047Y95109013D01*
X54584538Y95106179D01*
X54603083Y95102708D01*
X54621659Y95098609D01*
X54640242Y95093889D01*
X54658810Y95088559D01*
X54677339Y95082626D01*
X54695808Y95076098D01*
X54714194Y95068984D01*
X54732473Y95061292D01*
X54750623Y95053031D01*
X54768621Y95044210D01*
X54786444Y95034836D01*
X54804070Y95024918D01*
X54821475Y95014465D01*
X54838638Y95003484D01*
X54851983Y94994556D01*
X54863363Y94986676D01*
X54872835Y94979799D01*
X54880455Y94973876D01*
X54883590Y94971259D01*
X54886283Y94968863D01*
X54888542Y94966682D01*
X54890374Y94964712D01*
X54891786Y94962945D01*
X54892786Y94961376D01*
X54893381Y94959999D01*
X54893578Y94958808D01*
X54893590Y94957811D01*
X54893591Y94957362D01*
X54893578Y94956947D01*
X54893541Y94956566D01*
X54893472Y94956218D01*
X54893422Y94956056D01*
X54893360Y94955903D01*
X54893286Y94955759D01*
X54893198Y94955623D01*
X54893096Y94955495D01*
X54892977Y94955377D01*
X54892841Y94955266D01*
X54892687Y94955164D01*
X54892514Y94955071D01*
X54892320Y94954986D01*
X54892104Y94954910D01*
X54891866Y94954843D01*
X54891604Y94954784D01*
X54891318Y94954733D01*
X54891005Y94954692D01*
X54890665Y94954659D01*
X54889899Y94954619D01*
X54889011Y94954614D01*
X54887991Y94954644D01*
X54886833Y94954709D01*
X54885525Y94954809D01*
X54884059Y94954944D01*
X54882427Y94955115D01*
X54880619Y94955321D01*
X54878626Y94955563D01*
X54876440Y94955841D01*
X54871452Y94956504D01*
X54865583Y94957311D01*
X54850914Y94959363D01*
X54841603Y94960508D01*
X54832116Y94961369D01*
X54822485Y94961948D01*
X54812742Y94962248D01*
X54802918Y94962272D01*
X54793045Y94962023D01*
X54783155Y94961505D01*
X54773279Y94960719D01*
X54763449Y94959669D01*
X54753697Y94958358D01*
X54744054Y94956789D01*
X54734551Y94954965D01*
X54725221Y94952888D01*
X54716095Y94950562D01*
X54707205Y94947990D01*
X54698582Y94945175D01*
X54687309Y94940964D01*
X54676308Y94936240D01*
X54665595Y94931017D01*
X54655187Y94925311D01*
X54645102Y94919135D01*
X54635354Y94912504D01*
X54625963Y94905433D01*
X54616943Y94897936D01*
X54608311Y94890028D01*
X54600084Y94881723D01*
X54592280Y94873035D01*
X54584913Y94863980D01*
X54578002Y94854571D01*
X54571562Y94844824D01*
X54565611Y94834752D01*
X54560165Y94824371D01*
X54556899Y94817429D01*
X54553972Y94810546D01*
X54551385Y94803717D01*
X54549136Y94796933D01*
X54547225Y94790186D01*
X54545650Y94783468D01*
X54544411Y94776772D01*
X54543507Y94770091D01*
X54542937Y94763416D01*
X54542700Y94756740D01*
X54542795Y94750054D01*
X54543222Y94743352D01*
X54543979Y94736626D01*
X54545066Y94729867D01*
X54546482Y94723069D01*
X54548227Y94716223D01*
X54549576Y94711770D01*
X54551249Y94706942D01*
X54553220Y94701789D01*
X54555461Y94696361D01*
X54557948Y94690709D01*
X54560655Y94684880D01*
X54566623Y94672897D01*
X54573159Y94660811D01*
X54580056Y94649020D01*
X54583574Y94643359D01*
X54587105Y94637923D01*
X54590623Y94632759D01*
X54594102Y94627918D01*
X54598088Y94622717D01*
X54602644Y94617106D01*
X54607701Y94611153D01*
X54613193Y94604923D01*
X54625216Y94591904D01*
X54638180Y94578582D01*
X54651550Y94565494D01*
X54664795Y94553173D01*
X54677379Y94542156D01*
X54683258Y94537303D01*
X54688771Y94532976D01*
X54702556Y94522785D01*
X54716465Y94513091D01*
X54730450Y94503916D01*
X54744461Y94495282D01*
X54758448Y94487211D01*
X54772362Y94479724D01*
X54786152Y94472844D01*
X54799771Y94466591D01*
X54813167Y94460988D01*
X54826291Y94456057D01*
X54839094Y94451820D01*
X54851527Y94448297D01*
X54863538Y94445511D01*
X54875080Y94443484D01*
X54886102Y94442237D01*
X54896554Y94441792D01*
X54905331Y94442076D01*
X54913913Y94442982D01*
X54922278Y94444493D01*
X54930403Y94446595D01*
X54938264Y94449272D01*
X54945837Y94452507D01*
X54953101Y94456286D01*
X54960032Y94460592D01*
X54966606Y94465410D01*
X54972801Y94470725D01*
X54978594Y94476521D01*
X54983961Y94482782D01*
X54988879Y94489492D01*
X54993325Y94496636D01*
X54997275Y94504198D01*
X55000708Y94512163D01*
X55002650Y94517486D01*
X55004423Y94522998D01*
X55006027Y94528682D01*
X55007459Y94534520D01*
X55008717Y94540494D01*
X55009800Y94546587D01*
X55010705Y94552779D01*
X55011432Y94559054D01*
X55011977Y94565392D01*
X55012340Y94571778D01*
X55012519Y94578191D01*
X55012511Y94584616D01*
X55012315Y94591032D01*
X55011929Y94597424D01*
X55011351Y94603772D01*
X55010580Y94610059D01*
X55007392Y94633375D01*
X55006134Y94642801D01*
X55012319Y94642801D01*
X55014144Y94642702D01*
X55016241Y94642410D01*
X55018592Y94641933D01*
X55021179Y94641277D01*
X55023985Y94640449D01*
X55026992Y94639457D01*
X55030183Y94638307D01*
X55033539Y94637006D01*
X55037043Y94635563D01*
X55040677Y94633982D01*
X55044425Y94632273D01*
X55048267Y94630441D01*
X55052187Y94628494D01*
X55056166Y94626440D01*
X55060188Y94624284D01*
X55064234Y94622034D01*
X55081187Y94611731D01*
X55098016Y94600110D01*
X55114681Y94587219D01*
X55131145Y94573106D01*
X55147370Y94557819D01*
X55163317Y94541406D01*
X55178949Y94523915D01*
X55194228Y94505394D01*
X55209115Y94485891D01*
X55223571Y94465454D01*
X55237560Y94444131D01*
X55251043Y94421971D01*
X55263982Y94399020D01*
X55276339Y94375328D01*
X55288075Y94350942D01*
X55299153Y94325911D01*
X55312821Y94291833D01*
X55325128Y94257315D01*
X55336086Y94222314D01*
X55345704Y94186787D01*
X55353994Y94150692D01*
X55360966Y94113984D01*
X55366632Y94076620D01*
X55371001Y94038559D01*
X55372394Y94020317D01*
X55373442Y93998625D01*
X55374138Y93974677D01*
X55374475Y93949669D01*
X55374446Y93924796D01*
X55374042Y93901254D01*
X55373257Y93880237D01*
X55372083Y93862941D01*
X55369522Y93837834D01*
X55366445Y93813076D01*
X55362846Y93788647D01*
X55358718Y93764523D01*
X55354055Y93740683D01*
X55348851Y93717105D01*
X55343100Y93693767D01*
X55336794Y93670646D01*
X55329929Y93647721D01*
X55322497Y93624970D01*
X55314492Y93602370D01*
X55305908Y93579900D01*
X55296739Y93557537D01*
X55286978Y93535259D01*
X55276619Y93513045D01*
X55265655Y93490871D01*
X55251037Y93463176D01*
X55235460Y93435682D01*
X55218975Y93408447D01*
X55201628Y93381529D01*
X55183467Y93354986D01*
X55164541Y93328875D01*
X55144897Y93303254D01*
X55124584Y93278180D01*
X55103650Y93253712D01*
X55082142Y93229907D01*
X55060108Y93206822D01*
X55037597Y93184515D01*
X55014657Y93163045D01*
X54991335Y93142468D01*
X54967680Y93122842D01*
X54943740Y93104225D01*
X54921332Y93087898D01*
X54898520Y93072307D01*
X54875307Y93057452D01*
X54851691Y93043333D01*
X54827674Y93029951D01*
X54803254Y93017304D01*
X54778432Y93005394D01*
X54753208Y92994220D01*
X54727583Y92983783D01*
X54701556Y92974082D01*
X54675127Y92965117D01*
X54648297Y92956889D01*
X54621066Y92949397D01*
X54593433Y92942642D01*
X54565399Y92936624D01*
X54536965Y92931342D01*
X54515038Y92927702D01*
X54495682Y92924888D01*
X54486385Y92923757D01*
X54477031Y92922792D01*
X54467386Y92921980D01*
X54457218Y92921307D01*
X54434377Y92920325D01*
X54406642Y92919737D01*
X54372146Y92919435D01*
X54329023Y92919312D01*
X54260604Y92919123D01*
X54222157Y92918564D01*
X54210534Y92918029D01*
X54202040Y92917263D01*
X54195217Y92916219D01*
X54188612Y92914852D01*
X54178097Y92912366D01*
X54167790Y92909605D01*
X54157663Y92906552D01*
X54147686Y92903194D01*
X54137832Y92899516D01*
X54128072Y92895503D01*
X54118377Y92891142D01*
X54108720Y92886418D01*
X54099071Y92881315D01*
X54089402Y92875821D01*
X54079685Y92869920D01*
X54069891Y92863597D01*
X54059993Y92856839D01*
X54049961Y92849631D01*
X54039767Y92841958D01*
X54029382Y92833807D01*
X54023009Y92828543D01*
X54015906Y92822377D01*
X53999656Y92807487D01*
X53980932Y92789440D01*
X53960030Y92768536D01*
X53937249Y92745080D01*
X53912886Y92719373D01*
X53887239Y92691717D01*
X53860606Y92662415D01*
X53801260Y92596923D01*
X53747601Y92538358D01*
X53675979Y92460004D01*
X53606816Y92382419D01*
X53538859Y92304175D01*
X53470852Y92223848D01*
X53460292Y92211289D01*
X53451228Y92200660D01*
X53443581Y92191875D01*
X53437273Y92184849D01*
X53432226Y92179496D01*
X53428360Y92175730D01*
X53426846Y92174416D01*
X53425598Y92173466D01*
X53424606Y92172870D01*
X53423860Y92172618D01*
X53423384Y92172545D01*
X53422921Y92172454D01*
X53422475Y92172348D01*
X53422046Y92172228D01*
X53421638Y92172095D01*
X53421252Y92171950D01*
X53420892Y92171795D01*
X53420560Y92171631D01*
X53420258Y92171458D01*
X53419988Y92171279D01*
X53419753Y92171095D01*
X53419556Y92170907D01*
X53419398Y92170715D01*
X53419335Y92170619D01*
X53419283Y92170523D01*
X53419241Y92170426D01*
X53419212Y92170330D01*
X53419193Y92170234D01*
X53419187Y92170138D01*
X53419180Y92169896D01*
X53419158Y92169673D01*
X53419121Y92169468D01*
X53419071Y92169282D01*
X53419007Y92169115D01*
X53418929Y92168966D01*
X53418840Y92168835D01*
X53418738Y92168723D01*
X53418624Y92168629D01*
X53418499Y92168553D01*
X53418362Y92168495D01*
X53418216Y92168455D01*
X53418059Y92168432D01*
X53417892Y92168428D01*
X53417716Y92168441D01*
X53417531Y92168472D01*
X53417338Y92168520D01*
X53417137Y92168585D01*
X53416927Y92168668D01*
X53416711Y92168768D01*
X53416488Y92168886D01*
X53416259Y92169020D01*
X53416023Y92169171D01*
X53415782Y92169340D01*
X53415536Y92169525D01*
X53415285Y92169726D01*
X53415030Y92169944D01*
X53414771Y92170179D01*
X53414508Y92170431D01*
X53414243Y92170698D01*
X53413974Y92170982D01*
X53413704Y92171282D01*
X53413346Y92173614D01*
X53413024Y92180073D01*
X53412488Y92207290D01*
X53411812Y92332349D01*
X53411600Y92577154D01*
X53411780Y92972398D01*
X53412362Y93770668D01*
X53416596Y93799442D01*
X53419851Y93819937D01*
X53423474Y93839646D01*
X53427478Y93858601D01*
X53431878Y93876832D01*
X53436685Y93894374D01*
X53441913Y93911257D01*
X53447575Y93927514D01*
X53453686Y93943176D01*
X53460257Y93958278D01*
X53467302Y93972849D01*
X53474835Y93986923D01*
X53482868Y94000532D01*
X53491416Y94013707D01*
X53500490Y94026482D01*
X53510105Y94038887D01*
X53520274Y94050956D01*
X53531541Y94063128D01*
X53543587Y94074865D01*
X53556376Y94086147D01*
X53569871Y94096954D01*
X53584034Y94107268D01*
X53598830Y94117069D01*
X53614220Y94126338D01*
X53630167Y94135057D01*
X53646636Y94143204D01*
X53663589Y94150763D01*
X53680988Y94157712D01*
X53698798Y94164033D01*
X53716981Y94169707D01*
X53735500Y94174715D01*
X53754318Y94179037D01*
X53773398Y94182654D01*
X53786520Y94184460D01*
X53802208Y94185938D01*
X53819644Y94187062D01*
X53838011Y94187810D01*
X53856493Y94188155D01*
X53874271Y94188075D01*
X53890530Y94187545D01*
X53904451Y94186540D01*
X53915526Y94185271D01*
X53927159Y94183642D01*
X53939060Y94181711D01*
X53950940Y94179532D01*
X53962512Y94177162D01*
X53973486Y94174658D01*
X53983574Y94172074D01*
X53992488Y94169467D01*
X53997459Y94167870D01*
X53999507Y94167181D01*
X54001287Y94166549D01*
X54002819Y94165962D01*
X54004119Y94165407D01*
X54005208Y94164873D01*
X54006103Y94164349D01*
X54006822Y94163821D01*
X54007385Y94163277D01*
X54007809Y94162707D01*
X54008113Y94162097D01*
X54008316Y94161435D01*
X54008436Y94160711D01*
X54008491Y94159911D01*
X54008500Y94159023D01*
X54008490Y94158572D01*
X54008468Y94158141D01*
X54008431Y94157728D01*
X54008376Y94157332D01*
X54008299Y94156950D01*
X54008198Y94156580D01*
X54008071Y94156221D01*
X54007914Y94155871D01*
X54007725Y94155527D01*
X54007501Y94155188D01*
X54007238Y94154852D01*
X54006935Y94154517D01*
X54006587Y94154181D01*
X54006193Y94153842D01*
X54005750Y94153499D01*
X54005254Y94153148D01*
X54004703Y94152789D01*
X54004095Y94152419D01*
X54003425Y94152037D01*
X54002692Y94151640D01*
X54001892Y94151226D01*
X54001023Y94150795D01*
X53999066Y94149869D01*
X53996797Y94148847D01*
X53994195Y94147713D01*
X53991235Y94146452D01*
X53987896Y94145048D01*
X53976847Y94140207D01*
X53965887Y94134981D01*
X53955069Y94129410D01*
X53944445Y94123534D01*
X53934068Y94117390D01*
X53923990Y94111019D01*
X53914264Y94104458D01*
X53904943Y94097748D01*
X53896078Y94090928D01*
X53887723Y94084036D01*
X53879930Y94077111D01*
X53872751Y94070194D01*
X53866240Y94063321D01*
X53860448Y94056534D01*
X53855428Y94049871D01*
X53851232Y94043370D01*
X53848583Y94038640D01*
X53846160Y94033851D01*
X53843964Y94029009D01*
X53841995Y94024119D01*
X53840256Y94019189D01*
X53838748Y94014224D01*
X53837471Y94009231D01*
X53836426Y94004215D01*
X53835615Y93999182D01*
X53835040Y93994140D01*
X53834700Y93989093D01*
X53834597Y93984049D01*
X53834733Y93979012D01*
X53835108Y93973990D01*
X53835724Y93968989D01*
X53836581Y93964014D01*
X53838099Y93957075D01*
X53839897Y93950214D01*
X53841971Y93943435D01*
X53844315Y93936743D01*
X53846926Y93930142D01*
X53849798Y93923637D01*
X53852929Y93917232D01*
X53856312Y93910930D01*
X53863818Y93898659D01*
X53872283Y93886857D01*
X53881670Y93875561D01*
X53891942Y93864806D01*
X53903064Y93854626D01*
X53915000Y93845057D01*
X53927714Y93836134D01*
X53941170Y93827892D01*
X53955332Y93820367D01*
X53970163Y93813594D01*
X53985629Y93807608D01*
X54001693Y93802444D01*
X54013542Y93799151D01*
X54024339Y93796499D01*
X54029493Y93795395D01*
X54034564Y93794429D01*
X54039611Y93793592D01*
X54044695Y93792878D01*
X54049875Y93792278D01*
X54055212Y93791784D01*
X54060765Y93791390D01*
X54066594Y93791088D01*
X54079322Y93790726D01*
X54093875Y93790638D01*
X54105055Y93790695D01*
X54114438Y93790843D01*
X54122389Y93791109D01*
X54129271Y93791522D01*
X54135450Y93792109D01*
X54141289Y93792898D01*
X54147153Y93793917D01*
X54153406Y93795194D01*
X54175340Y93800633D01*
X54196335Y93807280D01*
X54216346Y93815090D01*
X54235325Y93824017D01*
X54253226Y93834017D01*
X54270004Y93845045D01*
X54285611Y93857054D01*
X54300000Y93870000D01*
X54313126Y93883837D01*
X54324943Y93898521D01*
X54335402Y93914006D01*
X54344459Y93930247D01*
X54348447Y93938637D01*
X54352066Y93947199D01*
X54355312Y93955927D01*
X54358178Y93964816D01*
X54360659Y93973860D01*
X54362748Y93983053D01*
X54364439Y93992390D01*
X54365728Y94001866D01*
X54366383Y94009671D01*
X54366609Y94017745D01*
X54366414Y94026057D01*
X54365807Y94034577D01*
X54364795Y94043274D01*
X54363386Y94052120D01*
X54361587Y94061083D01*
X54359408Y94070133D01*
X54356855Y94079241D01*
X54353936Y94088376D01*
X54350660Y94097507D01*
X54347033Y94106605D01*
X54343065Y94115640D01*
X54338763Y94124580D01*
X54334134Y94133397D01*
X54329187Y94142060D01*
X54325579Y94148019D01*
X54321980Y94153726D01*
X54318309Y94159274D01*
X54314486Y94164755D01*
X54310432Y94170260D01*
X54306066Y94175883D01*
X54301307Y94181716D01*
X54296077Y94187849D01*
X54290294Y94194376D01*
X54283878Y94201389D01*
X54276750Y94208980D01*
X54268829Y94217240D01*
X54250288Y94236140D01*
X54227615Y94258824D01*
X54199114Y94287413D01*
X54175064Y94312146D01*
X54154647Y94333976D01*
X54137045Y94353858D01*
X54121443Y94372746D01*
X54107023Y94391594D01*
X54092967Y94411356D01*
X54078459Y94432985D01*
X54063409Y94456973D01*
X54049771Y94480879D01*
X54037549Y94504690D01*
X54026745Y94528394D01*
X54017360Y94551978D01*
X54009398Y94575430D01*
X54002861Y94598736D01*
X53997751Y94621885D01*
X53994070Y94644864D01*
X53991822Y94667661D01*
X53991008Y94690263D01*
X53991630Y94712656D01*
X53993692Y94734830D01*
X53997196Y94756771D01*
X54002143Y94778467D01*
X54008537Y94799905D01*
X54014135Y94815247D01*
X54020638Y94830472D01*
X54028034Y94845569D01*
X54036315Y94860528D01*
X54045470Y94875335D01*
X54055489Y94889981D01*
X54066362Y94904452D01*
X54078080Y94918738D01*
X54090632Y94932826D01*
X54104009Y94946706D01*
X54118201Y94960365D01*
X54133197Y94973793D01*
X54148988Y94986977D01*
X54165564Y94999906D01*
X54182915Y95012568D01*
X54201031Y95024951D01*
X54213138Y95032763D01*
X54225288Y95040197D01*
X54237492Y95047260D01*
X54249761Y95053955D01*
X54262109Y95060287D01*
X54274546Y95066262D01*
X54287084Y95071883D01*
X54299735Y95077155D01*
X54312511Y95082084D01*
X54325422Y95086673D01*
X54338482Y95090928D01*
X54351702Y95094854D01*
X54365093Y95098454D01*
X54378668Y95101734D01*
X54392438Y95104698D01*
X54406414Y95107352D01*
X54419725Y95109207D01*
X54436284Y95110724D01*
X54455086Y95111876D01*
X54475128Y95112636D01*
X54495407Y95112976D01*
X54514920Y95112868D01*
G37*
G36*
X54514920Y35992868D02*
G01*
X54532662Y35992286D01*
X54547631Y35991202D01*
X54566047Y35989013D01*
X54584538Y35986179D01*
X54603083Y35982708D01*
X54621659Y35978609D01*
X54640242Y35973889D01*
X54658810Y35968559D01*
X54677339Y35962626D01*
X54695808Y35956098D01*
X54714194Y35948984D01*
X54732473Y35941292D01*
X54750623Y35933031D01*
X54768621Y35924210D01*
X54786444Y35914836D01*
X54804070Y35904918D01*
X54821475Y35894465D01*
X54838638Y35883484D01*
X54851983Y35874556D01*
X54863363Y35866676D01*
X54872835Y35859799D01*
X54880455Y35853876D01*
X54883590Y35851259D01*
X54886283Y35848863D01*
X54888542Y35846682D01*
X54890374Y35844712D01*
X54891786Y35842945D01*
X54892786Y35841376D01*
X54893381Y35839999D01*
X54893578Y35838808D01*
X54893590Y35837811D01*
X54893591Y35837362D01*
X54893578Y35836947D01*
X54893541Y35836566D01*
X54893472Y35836218D01*
X54893422Y35836056D01*
X54893360Y35835903D01*
X54893286Y35835759D01*
X54893198Y35835623D01*
X54893096Y35835495D01*
X54892977Y35835377D01*
X54892841Y35835266D01*
X54892687Y35835164D01*
X54892514Y35835071D01*
X54892320Y35834986D01*
X54892104Y35834910D01*
X54891866Y35834843D01*
X54891604Y35834784D01*
X54891318Y35834733D01*
X54891005Y35834692D01*
X54890665Y35834659D01*
X54889899Y35834619D01*
X54889011Y35834614D01*
X54887991Y35834644D01*
X54886833Y35834709D01*
X54885525Y35834809D01*
X54884059Y35834944D01*
X54882427Y35835115D01*
X54880619Y35835321D01*
X54878626Y35835563D01*
X54876440Y35835841D01*
X54871452Y35836504D01*
X54865583Y35837311D01*
X54850914Y35839363D01*
X54841603Y35840508D01*
X54832116Y35841369D01*
X54822485Y35841948D01*
X54812742Y35842248D01*
X54802918Y35842272D01*
X54793045Y35842023D01*
X54783155Y35841505D01*
X54773279Y35840719D01*
X54763449Y35839669D01*
X54753697Y35838358D01*
X54744054Y35836789D01*
X54734551Y35834965D01*
X54725221Y35832888D01*
X54716095Y35830562D01*
X54707205Y35827990D01*
X54698582Y35825175D01*
X54687309Y35820964D01*
X54676308Y35816240D01*
X54665595Y35811017D01*
X54655187Y35805311D01*
X54645102Y35799135D01*
X54635354Y35792504D01*
X54625963Y35785433D01*
X54616943Y35777936D01*
X54608311Y35770028D01*
X54600084Y35761723D01*
X54592280Y35753035D01*
X54584913Y35743980D01*
X54578002Y35734571D01*
X54571562Y35724824D01*
X54565611Y35714752D01*
X54560165Y35704371D01*
X54556899Y35697429D01*
X54553972Y35690546D01*
X54551385Y35683717D01*
X54549136Y35676933D01*
X54547225Y35670186D01*
X54545650Y35663468D01*
X54544411Y35656772D01*
X54543507Y35650091D01*
X54542937Y35643416D01*
X54542700Y35636740D01*
X54542795Y35630054D01*
X54543222Y35623352D01*
X54543979Y35616626D01*
X54545066Y35609867D01*
X54546482Y35603069D01*
X54548227Y35596223D01*
X54549576Y35591770D01*
X54551249Y35586942D01*
X54553220Y35581789D01*
X54555461Y35576361D01*
X54557948Y35570709D01*
X54560655Y35564880D01*
X54566623Y35552897D01*
X54573159Y35540811D01*
X54580056Y35529020D01*
X54583574Y35523359D01*
X54587105Y35517923D01*
X54590623Y35512759D01*
X54594102Y35507918D01*
X54598088Y35502717D01*
X54602644Y35497106D01*
X54607701Y35491153D01*
X54613193Y35484923D01*
X54625216Y35471904D01*
X54638180Y35458582D01*
X54651550Y35445494D01*
X54664795Y35433173D01*
X54677379Y35422156D01*
X54683258Y35417303D01*
X54688771Y35412976D01*
X54702556Y35402785D01*
X54716465Y35393091D01*
X54730450Y35383916D01*
X54744461Y35375282D01*
X54758448Y35367211D01*
X54772362Y35359724D01*
X54786152Y35352844D01*
X54799771Y35346591D01*
X54813167Y35340988D01*
X54826291Y35336057D01*
X54839094Y35331820D01*
X54851527Y35328297D01*
X54863538Y35325511D01*
X54875080Y35323484D01*
X54886102Y35322237D01*
X54896554Y35321792D01*
X54905331Y35322076D01*
X54913913Y35322982D01*
X54922278Y35324493D01*
X54930403Y35326595D01*
X54938264Y35329272D01*
X54945837Y35332507D01*
X54953101Y35336286D01*
X54960032Y35340592D01*
X54966606Y35345410D01*
X54972801Y35350725D01*
X54978594Y35356521D01*
X54983961Y35362782D01*
X54988879Y35369492D01*
X54993325Y35376636D01*
X54997275Y35384198D01*
X55000708Y35392163D01*
X55002650Y35397486D01*
X55004423Y35402998D01*
X55006027Y35408682D01*
X55007459Y35414520D01*
X55008717Y35420494D01*
X55009800Y35426587D01*
X55010705Y35432779D01*
X55011432Y35439054D01*
X55011977Y35445392D01*
X55012340Y35451778D01*
X55012519Y35458191D01*
X55012511Y35464616D01*
X55012315Y35471032D01*
X55011929Y35477424D01*
X55011351Y35483772D01*
X55010580Y35490059D01*
X55007392Y35513375D01*
X55006134Y35522801D01*
X55012319Y35522801D01*
X55014144Y35522702D01*
X55016241Y35522410D01*
X55018592Y35521933D01*
X55021179Y35521277D01*
X55023985Y35520449D01*
X55026992Y35519457D01*
X55030183Y35518307D01*
X55033539Y35517006D01*
X55037043Y35515563D01*
X55040677Y35513982D01*
X55044425Y35512273D01*
X55048267Y35510441D01*
X55052187Y35508494D01*
X55056166Y35506440D01*
X55060188Y35504284D01*
X55064234Y35502034D01*
X55081187Y35491731D01*
X55098016Y35480110D01*
X55114681Y35467219D01*
X55131145Y35453106D01*
X55147370Y35437819D01*
X55163317Y35421406D01*
X55178949Y35403915D01*
X55194228Y35385394D01*
X55209115Y35365891D01*
X55223571Y35345454D01*
X55237560Y35324131D01*
X55251043Y35301971D01*
X55263982Y35279020D01*
X55276339Y35255328D01*
X55288075Y35230942D01*
X55299153Y35205911D01*
X55312821Y35171833D01*
X55325128Y35137315D01*
X55336086Y35102314D01*
X55345704Y35066787D01*
X55353994Y35030692D01*
X55360966Y34993984D01*
X55366632Y34956620D01*
X55371001Y34918559D01*
X55372394Y34900317D01*
X55373442Y34878625D01*
X55374138Y34854677D01*
X55374475Y34829669D01*
X55374446Y34804796D01*
X55374042Y34781254D01*
X55373257Y34760237D01*
X55372083Y34742941D01*
X55369522Y34717834D01*
X55366445Y34693076D01*
X55362846Y34668647D01*
X55358718Y34644523D01*
X55354055Y34620683D01*
X55348851Y34597105D01*
X55343100Y34573767D01*
X55336794Y34550646D01*
X55329929Y34527721D01*
X55322497Y34504970D01*
X55314492Y34482370D01*
X55305908Y34459900D01*
X55296739Y34437537D01*
X55286978Y34415259D01*
X55276619Y34393045D01*
X55265655Y34370871D01*
X55251037Y34343176D01*
X55235460Y34315682D01*
X55218975Y34288447D01*
X55201628Y34261529D01*
X55183467Y34234986D01*
X55164541Y34208875D01*
X55144897Y34183254D01*
X55124584Y34158180D01*
X55103650Y34133712D01*
X55082142Y34109907D01*
X55060108Y34086822D01*
X55037597Y34064515D01*
X55014657Y34043045D01*
X54991335Y34022468D01*
X54967680Y34002842D01*
X54943740Y33984225D01*
X54921332Y33967898D01*
X54898520Y33952307D01*
X54875307Y33937452D01*
X54851691Y33923333D01*
X54827674Y33909951D01*
X54803254Y33897304D01*
X54778432Y33885394D01*
X54753208Y33874220D01*
X54727583Y33863783D01*
X54701556Y33854082D01*
X54675127Y33845117D01*
X54648297Y33836889D01*
X54621066Y33829397D01*
X54593433Y33822642D01*
X54565399Y33816624D01*
X54536965Y33811342D01*
X54515038Y33807702D01*
X54495682Y33804888D01*
X54486385Y33803757D01*
X54477031Y33802792D01*
X54467386Y33801980D01*
X54457218Y33801307D01*
X54434377Y33800325D01*
X54406642Y33799737D01*
X54372146Y33799435D01*
X54329023Y33799312D01*
X54260604Y33799123D01*
X54222157Y33798564D01*
X54210534Y33798029D01*
X54202040Y33797263D01*
X54195217Y33796219D01*
X54188612Y33794852D01*
X54178097Y33792366D01*
X54167790Y33789605D01*
X54157663Y33786552D01*
X54147686Y33783194D01*
X54137832Y33779516D01*
X54128072Y33775503D01*
X54118377Y33771142D01*
X54108720Y33766418D01*
X54099071Y33761315D01*
X54089402Y33755821D01*
X54079685Y33749920D01*
X54069891Y33743597D01*
X54059993Y33736839D01*
X54049961Y33729631D01*
X54039767Y33721958D01*
X54029382Y33713807D01*
X54023009Y33708543D01*
X54015906Y33702377D01*
X53999656Y33687487D01*
X53980932Y33669440D01*
X53960030Y33648536D01*
X53937249Y33625080D01*
X53912886Y33599373D01*
X53887239Y33571717D01*
X53860606Y33542415D01*
X53801260Y33476923D01*
X53747601Y33418358D01*
X53675979Y33340004D01*
X53606816Y33262419D01*
X53538859Y33184175D01*
X53470852Y33103848D01*
X53460292Y33091289D01*
X53451228Y33080660D01*
X53443581Y33071875D01*
X53437273Y33064849D01*
X53432226Y33059496D01*
X53428360Y33055730D01*
X53426846Y33054416D01*
X53425598Y33053466D01*
X53424606Y33052870D01*
X53423860Y33052618D01*
X53423384Y33052545D01*
X53422921Y33052454D01*
X53422475Y33052348D01*
X53422046Y33052228D01*
X53421638Y33052095D01*
X53421252Y33051950D01*
X53420892Y33051795D01*
X53420560Y33051631D01*
X53420258Y33051458D01*
X53419988Y33051279D01*
X53419753Y33051095D01*
X53419556Y33050907D01*
X53419398Y33050715D01*
X53419335Y33050619D01*
X53419283Y33050523D01*
X53419241Y33050426D01*
X53419212Y33050330D01*
X53419193Y33050234D01*
X53419187Y33050138D01*
X53419180Y33049896D01*
X53419158Y33049673D01*
X53419121Y33049468D01*
X53419071Y33049282D01*
X53419007Y33049115D01*
X53418929Y33048966D01*
X53418840Y33048835D01*
X53418738Y33048723D01*
X53418624Y33048629D01*
X53418499Y33048553D01*
X53418362Y33048495D01*
X53418216Y33048455D01*
X53418059Y33048432D01*
X53417892Y33048428D01*
X53417716Y33048441D01*
X53417531Y33048472D01*
X53417338Y33048520D01*
X53417137Y33048585D01*
X53416927Y33048668D01*
X53416711Y33048768D01*
X53416488Y33048886D01*
X53416259Y33049020D01*
X53416023Y33049171D01*
X53415782Y33049340D01*
X53415536Y33049525D01*
X53415285Y33049726D01*
X53415030Y33049944D01*
X53414771Y33050179D01*
X53414508Y33050431D01*
X53414243Y33050698D01*
X53413974Y33050982D01*
X53413704Y33051282D01*
X53413346Y33053614D01*
X53413024Y33060073D01*
X53412488Y33087290D01*
X53411812Y33212349D01*
X53411600Y33457154D01*
X53411780Y33852398D01*
X53412362Y34650668D01*
X53416596Y34679442D01*
X53419851Y34699937D01*
X53423474Y34719646D01*
X53427478Y34738601D01*
X53431878Y34756832D01*
X53436685Y34774374D01*
X53441913Y34791257D01*
X53447575Y34807514D01*
X53453686Y34823176D01*
X53460257Y34838278D01*
X53467302Y34852849D01*
X53474835Y34866923D01*
X53482868Y34880532D01*
X53491416Y34893707D01*
X53500490Y34906482D01*
X53510105Y34918887D01*
X53520274Y34930956D01*
X53531541Y34943128D01*
X53543587Y34954865D01*
X53556376Y34966147D01*
X53569871Y34976954D01*
X53584034Y34987268D01*
X53598830Y34997069D01*
X53614220Y35006338D01*
X53630167Y35015057D01*
X53646636Y35023204D01*
X53663589Y35030763D01*
X53680988Y35037712D01*
X53698798Y35044033D01*
X53716981Y35049707D01*
X53735500Y35054715D01*
X53754318Y35059037D01*
X53773398Y35062654D01*
X53786520Y35064460D01*
X53802208Y35065938D01*
X53819644Y35067062D01*
X53838011Y35067810D01*
X53856493Y35068155D01*
X53874271Y35068075D01*
X53890530Y35067545D01*
X53904451Y35066540D01*
X53915526Y35065271D01*
X53927159Y35063642D01*
X53939060Y35061711D01*
X53950940Y35059532D01*
X53962512Y35057162D01*
X53973486Y35054658D01*
X53983574Y35052074D01*
X53992488Y35049467D01*
X53997459Y35047870D01*
X53999507Y35047181D01*
X54001287Y35046549D01*
X54002819Y35045962D01*
X54004119Y35045407D01*
X54005208Y35044873D01*
X54006103Y35044349D01*
X54006822Y35043821D01*
X54007385Y35043277D01*
X54007809Y35042707D01*
X54008113Y35042097D01*
X54008316Y35041435D01*
X54008436Y35040711D01*
X54008491Y35039911D01*
X54008500Y35039023D01*
X54008490Y35038572D01*
X54008468Y35038141D01*
X54008431Y35037728D01*
X54008376Y35037332D01*
X54008299Y35036950D01*
X54008198Y35036580D01*
X54008071Y35036221D01*
X54007914Y35035871D01*
X54007725Y35035527D01*
X54007501Y35035188D01*
X54007238Y35034852D01*
X54006935Y35034517D01*
X54006587Y35034181D01*
X54006193Y35033842D01*
X54005750Y35033499D01*
X54005254Y35033148D01*
X54004703Y35032789D01*
X54004095Y35032419D01*
X54003425Y35032037D01*
X54002692Y35031640D01*
X54001892Y35031226D01*
X54001023Y35030795D01*
X53999066Y35029869D01*
X53996797Y35028847D01*
X53994195Y35027713D01*
X53991235Y35026452D01*
X53987896Y35025048D01*
X53976847Y35020207D01*
X53965887Y35014981D01*
X53955069Y35009410D01*
X53944445Y35003534D01*
X53934068Y34997390D01*
X53923990Y34991019D01*
X53914264Y34984458D01*
X53904943Y34977748D01*
X53896078Y34970928D01*
X53887723Y34964036D01*
X53879930Y34957111D01*
X53872751Y34950194D01*
X53866240Y34943321D01*
X53860448Y34936534D01*
X53855428Y34929871D01*
X53851232Y34923370D01*
X53848583Y34918640D01*
X53846160Y34913851D01*
X53843964Y34909009D01*
X53841995Y34904119D01*
X53840256Y34899189D01*
X53838748Y34894224D01*
X53837471Y34889231D01*
X53836426Y34884215D01*
X53835615Y34879182D01*
X53835040Y34874140D01*
X53834700Y34869093D01*
X53834597Y34864049D01*
X53834733Y34859012D01*
X53835108Y34853990D01*
X53835724Y34848989D01*
X53836581Y34844014D01*
X53838099Y34837075D01*
X53839897Y34830214D01*
X53841971Y34823435D01*
X53844315Y34816743D01*
X53846926Y34810142D01*
X53849798Y34803637D01*
X53852929Y34797232D01*
X53856312Y34790930D01*
X53863818Y34778659D01*
X53872283Y34766857D01*
X53881670Y34755561D01*
X53891942Y34744806D01*
X53903064Y34734626D01*
X53915000Y34725057D01*
X53927714Y34716134D01*
X53941170Y34707892D01*
X53955332Y34700367D01*
X53970163Y34693594D01*
X53985629Y34687608D01*
X54001693Y34682444D01*
X54013542Y34679151D01*
X54024339Y34676499D01*
X54029493Y34675395D01*
X54034564Y34674429D01*
X54039611Y34673592D01*
X54044695Y34672878D01*
X54049875Y34672278D01*
X54055212Y34671784D01*
X54060765Y34671390D01*
X54066594Y34671088D01*
X54079322Y34670726D01*
X54093875Y34670638D01*
X54105055Y34670695D01*
X54114438Y34670843D01*
X54122389Y34671109D01*
X54129271Y34671522D01*
X54135450Y34672109D01*
X54141289Y34672898D01*
X54147153Y34673917D01*
X54153406Y34675194D01*
X54175340Y34680633D01*
X54196335Y34687280D01*
X54216346Y34695090D01*
X54235325Y34704017D01*
X54253226Y34714017D01*
X54270004Y34725045D01*
X54285611Y34737054D01*
X54300000Y34750000D01*
X54313126Y34763837D01*
X54324943Y34778521D01*
X54335402Y34794006D01*
X54344459Y34810247D01*
X54348447Y34818637D01*
X54352066Y34827199D01*
X54355312Y34835927D01*
X54358178Y34844816D01*
X54360659Y34853860D01*
X54362748Y34863053D01*
X54364439Y34872390D01*
X54365728Y34881866D01*
X54366383Y34889671D01*
X54366609Y34897745D01*
X54366414Y34906057D01*
X54365807Y34914577D01*
X54364795Y34923274D01*
X54363386Y34932120D01*
X54361587Y34941083D01*
X54359408Y34950133D01*
X54356855Y34959241D01*
X54353936Y34968376D01*
X54350660Y34977507D01*
X54347033Y34986605D01*
X54343065Y34995640D01*
X54338763Y35004580D01*
X54334134Y35013397D01*
X54329187Y35022060D01*
X54325579Y35028019D01*
X54321980Y35033726D01*
X54318309Y35039274D01*
X54314486Y35044755D01*
X54310432Y35050260D01*
X54306066Y35055883D01*
X54301307Y35061716D01*
X54296077Y35067849D01*
X54290294Y35074376D01*
X54283878Y35081389D01*
X54276750Y35088980D01*
X54268829Y35097240D01*
X54250288Y35116140D01*
X54227615Y35138824D01*
X54199114Y35167413D01*
X54175064Y35192146D01*
X54154647Y35213976D01*
X54137045Y35233858D01*
X54121443Y35252746D01*
X54107023Y35271594D01*
X54092967Y35291356D01*
X54078459Y35312985D01*
X54063409Y35336973D01*
X54049771Y35360879D01*
X54037549Y35384690D01*
X54026745Y35408394D01*
X54017360Y35431978D01*
X54009398Y35455430D01*
X54002861Y35478736D01*
X53997751Y35501885D01*
X53994070Y35524864D01*
X53991822Y35547661D01*
X53991008Y35570263D01*
X53991630Y35592656D01*
X53993692Y35614830D01*
X53997196Y35636771D01*
X54002143Y35658467D01*
X54008537Y35679905D01*
X54014135Y35695247D01*
X54020638Y35710472D01*
X54028034Y35725569D01*
X54036315Y35740528D01*
X54045470Y35755335D01*
X54055489Y35769981D01*
X54066362Y35784452D01*
X54078080Y35798738D01*
X54090632Y35812826D01*
X54104009Y35826706D01*
X54118201Y35840365D01*
X54133197Y35853793D01*
X54148988Y35866977D01*
X54165564Y35879906D01*
X54182915Y35892568D01*
X54201031Y35904951D01*
X54213138Y35912763D01*
X54225288Y35920197D01*
X54237492Y35927260D01*
X54249761Y35933955D01*
X54262109Y35940287D01*
X54274546Y35946262D01*
X54287084Y35951883D01*
X54299735Y35957155D01*
X54312511Y35962084D01*
X54325422Y35966673D01*
X54338482Y35970928D01*
X54351702Y35974854D01*
X54365093Y35978454D01*
X54378668Y35981734D01*
X54392438Y35984698D01*
X54406414Y35987352D01*
X54419725Y35989207D01*
X54436284Y35990724D01*
X54455086Y35991876D01*
X54475128Y35992636D01*
X54495407Y35992976D01*
X54514920Y35992868D01*
G37*
%TO.C,J9*%
G36*
X45255400Y113060000D02*
G01*
X46255400Y113060000D01*
X46255400Y115060000D01*
X45255400Y115060000D01*
X45255400Y113060000D01*
G37*
G36*
X45255400Y109860000D02*
G01*
X46255400Y109860000D01*
X46255400Y111860000D01*
X45255400Y111860000D01*
X45255400Y109860000D01*
G37*
G36*
X47795400Y113060000D02*
G01*
X48795400Y113060000D01*
X48795400Y115060000D01*
X47795400Y115060000D01*
X47795400Y113060000D01*
G37*
G36*
X47795400Y109860000D02*
G01*
X48795400Y109860000D01*
X48795400Y111860000D01*
X47795400Y111860000D01*
X47795400Y109860000D01*
G37*
G36*
X50335400Y113060000D02*
G01*
X51335400Y113060000D01*
X51335400Y115060000D01*
X50335400Y115060000D01*
X50335400Y113060000D01*
G37*
G36*
X50335400Y109860000D02*
G01*
X51335400Y109860000D01*
X51335400Y111860000D01*
X50335400Y111860000D01*
X50335400Y109860000D01*
G37*
G36*
X52875400Y113060000D02*
G01*
X53875400Y113060000D01*
X53875400Y115060000D01*
X52875400Y115060000D01*
X52875400Y113060000D01*
G37*
G36*
X52875400Y109860000D02*
G01*
X53875400Y109860000D01*
X53875400Y111860000D01*
X52875400Y111860000D01*
X52875400Y109860000D01*
G37*
G36*
X55415400Y113060000D02*
G01*
X56415400Y113060000D01*
X56415400Y115060000D01*
X55415400Y115060000D01*
X55415400Y113060000D01*
G37*
G36*
X55415400Y109860000D02*
G01*
X56415400Y109860000D01*
X56415400Y111860000D01*
X55415400Y111860000D01*
X55415400Y109860000D01*
G37*
G36*
X57955400Y113060000D02*
G01*
X58955400Y113060000D01*
X58955400Y115060000D01*
X57955400Y115060000D01*
X57955400Y113060000D01*
G37*
G36*
X57955400Y109860000D02*
G01*
X58955400Y109860000D01*
X58955400Y111860000D01*
X57955400Y111860000D01*
X57955400Y109860000D01*
G37*
G36*
X60495400Y113060000D02*
G01*
X61495400Y113060000D01*
X61495400Y115060000D01*
X60495400Y115060000D01*
X60495400Y113060000D01*
G37*
G36*
X60495400Y109860000D02*
G01*
X61495400Y109860000D01*
X61495400Y111860000D01*
X60495400Y111860000D01*
X60495400Y109860000D01*
G37*
G36*
X63035400Y113060000D02*
G01*
X64035400Y113060000D01*
X64035400Y115060000D01*
X63035400Y115060000D01*
X63035400Y113060000D01*
G37*
G36*
X63035400Y109860000D02*
G01*
X64035400Y109860000D01*
X64035400Y111860000D01*
X63035400Y111860000D01*
X63035400Y109860000D01*
G37*
%TO.C,J8*%
G36*
X18306000Y113060000D02*
G01*
X19306000Y113060000D01*
X19306000Y115060000D01*
X18306000Y115060000D01*
X18306000Y113060000D01*
G37*
G36*
X18306000Y109860000D02*
G01*
X19306000Y109860000D01*
X19306000Y111860000D01*
X18306000Y111860000D01*
X18306000Y109860000D01*
G37*
G36*
X20846000Y113060000D02*
G01*
X21846000Y113060000D01*
X21846000Y115060000D01*
X20846000Y115060000D01*
X20846000Y113060000D01*
G37*
G36*
X20846000Y109860000D02*
G01*
X21846000Y109860000D01*
X21846000Y111860000D01*
X20846000Y111860000D01*
X20846000Y109860000D01*
G37*
G36*
X23386000Y113060000D02*
G01*
X24386000Y113060000D01*
X24386000Y115060000D01*
X23386000Y115060000D01*
X23386000Y113060000D01*
G37*
G36*
X23386000Y109860000D02*
G01*
X24386000Y109860000D01*
X24386000Y111860000D01*
X23386000Y111860000D01*
X23386000Y109860000D01*
G37*
G36*
X25926000Y113060000D02*
G01*
X26926000Y113060000D01*
X26926000Y115060000D01*
X25926000Y115060000D01*
X25926000Y113060000D01*
G37*
G36*
X25926000Y109860000D02*
G01*
X26926000Y109860000D01*
X26926000Y111860000D01*
X25926000Y111860000D01*
X25926000Y109860000D01*
G37*
G36*
X28466000Y113060000D02*
G01*
X29466000Y113060000D01*
X29466000Y115060000D01*
X28466000Y115060000D01*
X28466000Y113060000D01*
G37*
G36*
X28466000Y109860000D02*
G01*
X29466000Y109860000D01*
X29466000Y111860000D01*
X28466000Y111860000D01*
X28466000Y109860000D01*
G37*
G36*
X31006000Y113060000D02*
G01*
X32006000Y113060000D01*
X32006000Y115060000D01*
X31006000Y115060000D01*
X31006000Y113060000D01*
G37*
G36*
X31006000Y109860000D02*
G01*
X32006000Y109860000D01*
X32006000Y111860000D01*
X31006000Y111860000D01*
X31006000Y109860000D01*
G37*
G36*
X33546000Y113060000D02*
G01*
X34546000Y113060000D01*
X34546000Y115060000D01*
X33546000Y115060000D01*
X33546000Y113060000D01*
G37*
G36*
X33546000Y109860000D02*
G01*
X34546000Y109860000D01*
X34546000Y111860000D01*
X33546000Y111860000D01*
X33546000Y109860000D01*
G37*
G36*
X36086000Y113060000D02*
G01*
X37086000Y113060000D01*
X37086000Y115060000D01*
X36086000Y115060000D01*
X36086000Y113060000D01*
G37*
G36*
X36086000Y109860000D02*
G01*
X37086000Y109860000D01*
X37086000Y111860000D01*
X36086000Y111860000D01*
X36086000Y109860000D01*
G37*
G36*
X38626000Y113060000D02*
G01*
X39626000Y113060000D01*
X39626000Y115060000D01*
X38626000Y115060000D01*
X38626000Y113060000D01*
G37*
G36*
X38626000Y109860000D02*
G01*
X39626000Y109860000D01*
X39626000Y111860000D01*
X38626000Y111860000D01*
X38626000Y109860000D01*
G37*
G36*
X41166000Y113060000D02*
G01*
X42166000Y113060000D01*
X42166000Y115060000D01*
X41166000Y115060000D01*
X41166000Y113060000D01*
G37*
G36*
X41166000Y109860000D02*
G01*
X42166000Y109860000D01*
X42166000Y111860000D01*
X41166000Y111860000D01*
X41166000Y109860000D01*
G37*
%TO.C,J2*%
G36*
X50310000Y64790000D02*
G01*
X51310000Y64790000D01*
X51310000Y66790000D01*
X50310000Y66790000D01*
X50310000Y64790000D01*
G37*
G36*
X50310000Y61590000D02*
G01*
X51310000Y61590000D01*
X51310000Y63590000D01*
X50310000Y63590000D01*
X50310000Y61590000D01*
G37*
G36*
X52850000Y64790000D02*
G01*
X53850000Y64790000D01*
X53850000Y66790000D01*
X52850000Y66790000D01*
X52850000Y64790000D01*
G37*
G36*
X52850000Y61590000D02*
G01*
X53850000Y61590000D01*
X53850000Y63590000D01*
X52850000Y63590000D01*
X52850000Y61590000D01*
G37*
G36*
X55390000Y64790000D02*
G01*
X56390000Y64790000D01*
X56390000Y66790000D01*
X55390000Y66790000D01*
X55390000Y64790000D01*
G37*
G36*
X55390000Y61590000D02*
G01*
X56390000Y61590000D01*
X56390000Y63590000D01*
X55390000Y63590000D01*
X55390000Y61590000D01*
G37*
G36*
X57930000Y64790000D02*
G01*
X58930000Y64790000D01*
X58930000Y66790000D01*
X57930000Y66790000D01*
X57930000Y64790000D01*
G37*
G36*
X57930000Y61590000D02*
G01*
X58930000Y61590000D01*
X58930000Y63590000D01*
X57930000Y63590000D01*
X57930000Y61590000D01*
G37*
G36*
X60470000Y64790000D02*
G01*
X61470000Y64790000D01*
X61470000Y66790000D01*
X60470000Y66790000D01*
X60470000Y64790000D01*
G37*
G36*
X60470000Y61590000D02*
G01*
X61470000Y61590000D01*
X61470000Y63590000D01*
X60470000Y63590000D01*
X60470000Y61590000D01*
G37*
G36*
X63010000Y64790000D02*
G01*
X64010000Y64790000D01*
X64010000Y66790000D01*
X63010000Y66790000D01*
X63010000Y64790000D01*
G37*
G36*
X63010000Y61590000D02*
G01*
X64010000Y61590000D01*
X64010000Y63590000D01*
X63010000Y63590000D01*
X63010000Y61590000D01*
G37*
%TO.C,U8*%
G36*
X13430000Y69150000D02*
G01*
X12590000Y69150000D01*
X12590000Y69590000D01*
X13430000Y69590000D01*
X13430000Y69150000D01*
G37*
G36*
X13430000Y68650000D02*
G01*
X12590000Y68650000D01*
X12590000Y69090000D01*
X13430000Y69090000D01*
X13430000Y68650000D01*
G37*
G36*
X13430000Y68150000D02*
G01*
X12590000Y68150000D01*
X12590000Y68590000D01*
X13430000Y68590000D01*
X13430000Y68150000D01*
G37*
G36*
X13430000Y67650000D02*
G01*
X12590000Y67650000D01*
X12590000Y68090000D01*
X13430000Y68090000D01*
X13430000Y67650000D01*
G37*
G36*
X14470000Y67860000D02*
G01*
X13530000Y67860000D01*
X13530000Y69380000D01*
X14470000Y69380000D01*
X14470000Y67860000D01*
G37*
G36*
X15430000Y69150000D02*
G01*
X14590000Y69150000D01*
X14590000Y69590000D01*
X15430000Y69590000D01*
X15430000Y69150000D01*
G37*
G36*
X15430000Y68650000D02*
G01*
X14590000Y68650000D01*
X14590000Y69090000D01*
X15430000Y69090000D01*
X15430000Y68650000D01*
G37*
G36*
X15430000Y68150000D02*
G01*
X14590000Y68150000D01*
X14590000Y68590000D01*
X15430000Y68590000D01*
X15430000Y68150000D01*
G37*
G36*
X15430000Y67650000D02*
G01*
X14590000Y67650000D01*
X14590000Y68090000D01*
X15430000Y68090000D01*
X15430000Y67650000D01*
G37*
%TO.C,J1*%
G36*
X27450000Y64790000D02*
G01*
X28450000Y64790000D01*
X28450000Y66790000D01*
X27450000Y66790000D01*
X27450000Y64790000D01*
G37*
G36*
X27450000Y61590000D02*
G01*
X28450000Y61590000D01*
X28450000Y63590000D01*
X27450000Y63590000D01*
X27450000Y61590000D01*
G37*
G36*
X29990000Y64790000D02*
G01*
X30990000Y64790000D01*
X30990000Y66790000D01*
X29990000Y66790000D01*
X29990000Y64790000D01*
G37*
G36*
X29990000Y61590000D02*
G01*
X30990000Y61590000D01*
X30990000Y63590000D01*
X29990000Y63590000D01*
X29990000Y61590000D01*
G37*
G36*
X32530000Y64790000D02*
G01*
X33530000Y64790000D01*
X33530000Y66790000D01*
X32530000Y66790000D01*
X32530000Y64790000D01*
G37*
G36*
X32530000Y61590000D02*
G01*
X33530000Y61590000D01*
X33530000Y63590000D01*
X32530000Y63590000D01*
X32530000Y61590000D01*
G37*
G36*
X35070000Y64790000D02*
G01*
X36070000Y64790000D01*
X36070000Y66790000D01*
X35070000Y66790000D01*
X35070000Y64790000D01*
G37*
G36*
X35070000Y61590000D02*
G01*
X36070000Y61590000D01*
X36070000Y63590000D01*
X35070000Y63590000D01*
X35070000Y61590000D01*
G37*
G36*
X37610000Y64790000D02*
G01*
X38610000Y64790000D01*
X38610000Y66790000D01*
X37610000Y66790000D01*
X37610000Y64790000D01*
G37*
G36*
X37610000Y61590000D02*
G01*
X38610000Y61590000D01*
X38610000Y63590000D01*
X37610000Y63590000D01*
X37610000Y61590000D01*
G37*
G36*
X40150000Y64790000D02*
G01*
X41150000Y64790000D01*
X41150000Y66790000D01*
X40150000Y66790000D01*
X40150000Y64790000D01*
G37*
G36*
X40150000Y61590000D02*
G01*
X41150000Y61590000D01*
X41150000Y63590000D01*
X40150000Y63590000D01*
X40150000Y61590000D01*
G37*
G36*
X42690000Y64790000D02*
G01*
X43690000Y64790000D01*
X43690000Y66790000D01*
X42690000Y66790000D01*
X42690000Y64790000D01*
G37*
G36*
X42690000Y61590000D02*
G01*
X43690000Y61590000D01*
X43690000Y63590000D01*
X42690000Y63590000D01*
X42690000Y61590000D01*
G37*
G36*
X45230000Y64790000D02*
G01*
X46230000Y64790000D01*
X46230000Y66790000D01*
X45230000Y66790000D01*
X45230000Y64790000D01*
G37*
G36*
X45230000Y61590000D02*
G01*
X46230000Y61590000D01*
X46230000Y63590000D01*
X45230000Y63590000D01*
X45230000Y61590000D01*
G37*
G36*
X27450000Y5670000D02*
G01*
X28450000Y5670000D01*
X28450000Y7670000D01*
X27450000Y7670000D01*
X27450000Y5670000D01*
G37*
G36*
X27450000Y2470000D02*
G01*
X28450000Y2470000D01*
X28450000Y4470000D01*
X27450000Y4470000D01*
X27450000Y2470000D01*
G37*
G36*
X29990000Y5670000D02*
G01*
X30990000Y5670000D01*
X30990000Y7670000D01*
X29990000Y7670000D01*
X29990000Y5670000D01*
G37*
G36*
X29990000Y2470000D02*
G01*
X30990000Y2470000D01*
X30990000Y4470000D01*
X29990000Y4470000D01*
X29990000Y2470000D01*
G37*
G36*
X32530000Y5670000D02*
G01*
X33530000Y5670000D01*
X33530000Y7670000D01*
X32530000Y7670000D01*
X32530000Y5670000D01*
G37*
G36*
X32530000Y2470000D02*
G01*
X33530000Y2470000D01*
X33530000Y4470000D01*
X32530000Y4470000D01*
X32530000Y2470000D01*
G37*
G36*
X35070000Y5670000D02*
G01*
X36070000Y5670000D01*
X36070000Y7670000D01*
X35070000Y7670000D01*
X35070000Y5670000D01*
G37*
G36*
X35070000Y2470000D02*
G01*
X36070000Y2470000D01*
X36070000Y4470000D01*
X35070000Y4470000D01*
X35070000Y2470000D01*
G37*
G36*
X37610000Y5670000D02*
G01*
X38610000Y5670000D01*
X38610000Y7670000D01*
X37610000Y7670000D01*
X37610000Y5670000D01*
G37*
G36*
X37610000Y2470000D02*
G01*
X38610000Y2470000D01*
X38610000Y4470000D01*
X37610000Y4470000D01*
X37610000Y2470000D01*
G37*
G36*
X40150000Y5670000D02*
G01*
X41150000Y5670000D01*
X41150000Y7670000D01*
X40150000Y7670000D01*
X40150000Y5670000D01*
G37*
G36*
X40150000Y2470000D02*
G01*
X41150000Y2470000D01*
X41150000Y4470000D01*
X40150000Y4470000D01*
X40150000Y2470000D01*
G37*
G36*
X42690000Y5670000D02*
G01*
X43690000Y5670000D01*
X43690000Y7670000D01*
X42690000Y7670000D01*
X42690000Y5670000D01*
G37*
G36*
X42690000Y2470000D02*
G01*
X43690000Y2470000D01*
X43690000Y4470000D01*
X42690000Y4470000D01*
X42690000Y2470000D01*
G37*
G36*
X45230000Y5670000D02*
G01*
X46230000Y5670000D01*
X46230000Y7670000D01*
X45230000Y7670000D01*
X45230000Y5670000D01*
G37*
G36*
X45230000Y2470000D02*
G01*
X46230000Y2470000D01*
X46230000Y4470000D01*
X45230000Y4470000D01*
X45230000Y2470000D01*
G37*
%TO.C,U8*%
G36*
X13430000Y10030000D02*
G01*
X12590000Y10030000D01*
X12590000Y10470000D01*
X13430000Y10470000D01*
X13430000Y10030000D01*
G37*
G36*
X13430000Y9530000D02*
G01*
X12590000Y9530000D01*
X12590000Y9970000D01*
X13430000Y9970000D01*
X13430000Y9530000D01*
G37*
G36*
X13430000Y9030000D02*
G01*
X12590000Y9030000D01*
X12590000Y9470000D01*
X13430000Y9470000D01*
X13430000Y9030000D01*
G37*
G36*
X13430000Y8530000D02*
G01*
X12590000Y8530000D01*
X12590000Y8970000D01*
X13430000Y8970000D01*
X13430000Y8530000D01*
G37*
G36*
X14470000Y8740000D02*
G01*
X13530000Y8740000D01*
X13530000Y10260000D01*
X14470000Y10260000D01*
X14470000Y8740000D01*
G37*
G36*
X15430000Y10030000D02*
G01*
X14590000Y10030000D01*
X14590000Y10470000D01*
X15430000Y10470000D01*
X15430000Y10030000D01*
G37*
G36*
X15430000Y9530000D02*
G01*
X14590000Y9530000D01*
X14590000Y9970000D01*
X15430000Y9970000D01*
X15430000Y9530000D01*
G37*
G36*
X15430000Y9030000D02*
G01*
X14590000Y9030000D01*
X14590000Y9470000D01*
X15430000Y9470000D01*
X15430000Y9030000D01*
G37*
G36*
X15430000Y8530000D02*
G01*
X14590000Y8530000D01*
X14590000Y8970000D01*
X15430000Y8970000D01*
X15430000Y8530000D01*
G37*
%TO.C,J2*%
G36*
X50310000Y5670000D02*
G01*
X51310000Y5670000D01*
X51310000Y7670000D01*
X50310000Y7670000D01*
X50310000Y5670000D01*
G37*
G36*
X50310000Y2470000D02*
G01*
X51310000Y2470000D01*
X51310000Y4470000D01*
X50310000Y4470000D01*
X50310000Y2470000D01*
G37*
G36*
X52850000Y5670000D02*
G01*
X53850000Y5670000D01*
X53850000Y7670000D01*
X52850000Y7670000D01*
X52850000Y5670000D01*
G37*
G36*
X52850000Y2470000D02*
G01*
X53850000Y2470000D01*
X53850000Y4470000D01*
X52850000Y4470000D01*
X52850000Y2470000D01*
G37*
G36*
X55390000Y5670000D02*
G01*
X56390000Y5670000D01*
X56390000Y7670000D01*
X55390000Y7670000D01*
X55390000Y5670000D01*
G37*
G36*
X55390000Y2470000D02*
G01*
X56390000Y2470000D01*
X56390000Y4470000D01*
X55390000Y4470000D01*
X55390000Y2470000D01*
G37*
G36*
X57930000Y5670000D02*
G01*
X58930000Y5670000D01*
X58930000Y7670000D01*
X57930000Y7670000D01*
X57930000Y5670000D01*
G37*
G36*
X57930000Y2470000D02*
G01*
X58930000Y2470000D01*
X58930000Y4470000D01*
X57930000Y4470000D01*
X57930000Y2470000D01*
G37*
G36*
X60470000Y5670000D02*
G01*
X61470000Y5670000D01*
X61470000Y7670000D01*
X60470000Y7670000D01*
X60470000Y5670000D01*
G37*
G36*
X60470000Y2470000D02*
G01*
X61470000Y2470000D01*
X61470000Y4470000D01*
X60470000Y4470000D01*
X60470000Y2470000D01*
G37*
G36*
X63010000Y5670000D02*
G01*
X64010000Y5670000D01*
X64010000Y7670000D01*
X63010000Y7670000D01*
X63010000Y5670000D01*
G37*
G36*
X63010000Y2470000D02*
G01*
X64010000Y2470000D01*
X64010000Y4470000D01*
X63010000Y4470000D01*
X63010000Y2470000D01*
G37*
%TO.C,J8*%
G36*
X18306000Y53940000D02*
G01*
X19306000Y53940000D01*
X19306000Y55940000D01*
X18306000Y55940000D01*
X18306000Y53940000D01*
G37*
G36*
X18306000Y50740000D02*
G01*
X19306000Y50740000D01*
X19306000Y52740000D01*
X18306000Y52740000D01*
X18306000Y50740000D01*
G37*
G36*
X20846000Y53940000D02*
G01*
X21846000Y53940000D01*
X21846000Y55940000D01*
X20846000Y55940000D01*
X20846000Y53940000D01*
G37*
G36*
X20846000Y50740000D02*
G01*
X21846000Y50740000D01*
X21846000Y52740000D01*
X20846000Y52740000D01*
X20846000Y50740000D01*
G37*
G36*
X23386000Y53940000D02*
G01*
X24386000Y53940000D01*
X24386000Y55940000D01*
X23386000Y55940000D01*
X23386000Y53940000D01*
G37*
G36*
X23386000Y50740000D02*
G01*
X24386000Y50740000D01*
X24386000Y52740000D01*
X23386000Y52740000D01*
X23386000Y50740000D01*
G37*
G36*
X25926000Y53940000D02*
G01*
X26926000Y53940000D01*
X26926000Y55940000D01*
X25926000Y55940000D01*
X25926000Y53940000D01*
G37*
G36*
X25926000Y50740000D02*
G01*
X26926000Y50740000D01*
X26926000Y52740000D01*
X25926000Y52740000D01*
X25926000Y50740000D01*
G37*
G36*
X28466000Y53940000D02*
G01*
X29466000Y53940000D01*
X29466000Y55940000D01*
X28466000Y55940000D01*
X28466000Y53940000D01*
G37*
G36*
X28466000Y50740000D02*
G01*
X29466000Y50740000D01*
X29466000Y52740000D01*
X28466000Y52740000D01*
X28466000Y50740000D01*
G37*
G36*
X31006000Y53940000D02*
G01*
X32006000Y53940000D01*
X32006000Y55940000D01*
X31006000Y55940000D01*
X31006000Y53940000D01*
G37*
G36*
X31006000Y50740000D02*
G01*
X32006000Y50740000D01*
X32006000Y52740000D01*
X31006000Y52740000D01*
X31006000Y50740000D01*
G37*
G36*
X33546000Y53940000D02*
G01*
X34546000Y53940000D01*
X34546000Y55940000D01*
X33546000Y55940000D01*
X33546000Y53940000D01*
G37*
G36*
X33546000Y50740000D02*
G01*
X34546000Y50740000D01*
X34546000Y52740000D01*
X33546000Y52740000D01*
X33546000Y50740000D01*
G37*
G36*
X36086000Y53940000D02*
G01*
X37086000Y53940000D01*
X37086000Y55940000D01*
X36086000Y55940000D01*
X36086000Y53940000D01*
G37*
G36*
X36086000Y50740000D02*
G01*
X37086000Y50740000D01*
X37086000Y52740000D01*
X36086000Y52740000D01*
X36086000Y50740000D01*
G37*
G36*
X38626000Y53940000D02*
G01*
X39626000Y53940000D01*
X39626000Y55940000D01*
X38626000Y55940000D01*
X38626000Y53940000D01*
G37*
G36*
X38626000Y50740000D02*
G01*
X39626000Y50740000D01*
X39626000Y52740000D01*
X38626000Y52740000D01*
X38626000Y50740000D01*
G37*
G36*
X41166000Y53940000D02*
G01*
X42166000Y53940000D01*
X42166000Y55940000D01*
X41166000Y55940000D01*
X41166000Y53940000D01*
G37*
G36*
X41166000Y50740000D02*
G01*
X42166000Y50740000D01*
X42166000Y52740000D01*
X41166000Y52740000D01*
X41166000Y50740000D01*
G37*
%TO.C,J9*%
G36*
X45255400Y53940000D02*
G01*
X46255400Y53940000D01*
X46255400Y55940000D01*
X45255400Y55940000D01*
X45255400Y53940000D01*
G37*
G36*
X45255400Y50740000D02*
G01*
X46255400Y50740000D01*
X46255400Y52740000D01*
X45255400Y52740000D01*
X45255400Y50740000D01*
G37*
G36*
X47795400Y53940000D02*
G01*
X48795400Y53940000D01*
X48795400Y55940000D01*
X47795400Y55940000D01*
X47795400Y53940000D01*
G37*
G36*
X47795400Y50740000D02*
G01*
X48795400Y50740000D01*
X48795400Y52740000D01*
X47795400Y52740000D01*
X47795400Y50740000D01*
G37*
G36*
X50335400Y53940000D02*
G01*
X51335400Y53940000D01*
X51335400Y55940000D01*
X50335400Y55940000D01*
X50335400Y53940000D01*
G37*
G36*
X50335400Y50740000D02*
G01*
X51335400Y50740000D01*
X51335400Y52740000D01*
X50335400Y52740000D01*
X50335400Y50740000D01*
G37*
G36*
X52875400Y53940000D02*
G01*
X53875400Y53940000D01*
X53875400Y55940000D01*
X52875400Y55940000D01*
X52875400Y53940000D01*
G37*
G36*
X52875400Y50740000D02*
G01*
X53875400Y50740000D01*
X53875400Y52740000D01*
X52875400Y52740000D01*
X52875400Y50740000D01*
G37*
G36*
X55415400Y53940000D02*
G01*
X56415400Y53940000D01*
X56415400Y55940000D01*
X55415400Y55940000D01*
X55415400Y53940000D01*
G37*
G36*
X55415400Y50740000D02*
G01*
X56415400Y50740000D01*
X56415400Y52740000D01*
X55415400Y52740000D01*
X55415400Y50740000D01*
G37*
G36*
X57955400Y53940000D02*
G01*
X58955400Y53940000D01*
X58955400Y55940000D01*
X57955400Y55940000D01*
X57955400Y53940000D01*
G37*
G36*
X57955400Y50740000D02*
G01*
X58955400Y50740000D01*
X58955400Y52740000D01*
X57955400Y52740000D01*
X57955400Y50740000D01*
G37*
G36*
X60495400Y53940000D02*
G01*
X61495400Y53940000D01*
X61495400Y55940000D01*
X60495400Y55940000D01*
X60495400Y53940000D01*
G37*
G36*
X60495400Y50740000D02*
G01*
X61495400Y50740000D01*
X61495400Y52740000D01*
X60495400Y52740000D01*
X60495400Y50740000D01*
G37*
G36*
X63035400Y53940000D02*
G01*
X64035400Y53940000D01*
X64035400Y55940000D01*
X63035400Y55940000D01*
X63035400Y53940000D01*
G37*
G36*
X63035400Y50740000D02*
G01*
X64035400Y50740000D01*
X64035400Y52740000D01*
X63035400Y52740000D01*
X63035400Y50740000D01*
G37*
%TD*%
D11*
%TO.C,*%
X71820000Y119767500D03*
%TD*%
%TO.C,*%
X-3220000Y119767500D03*
%TD*%
%TO.C,*%
X-3220000Y-2247500D03*
%TD*%
D12*
%TO.C,JP4*%
X41500000Y80390000D03*
X41500000Y77850000D03*
%TD*%
D13*
%TO.C,ST2*%
X13980000Y64190000D03*
%TD*%
D14*
%TO.C,R25*%
X38640000Y76920000D03*
X39660000Y76920000D03*
%TD*%
D15*
%TO.C,C2*%
X37400000Y104140000D03*
X37400000Y105100000D03*
%TD*%
D16*
%TO.C,R8*%
X32010000Y103120000D03*
X30990000Y103120000D03*
%TD*%
D17*
%TO.C,J4*%
X4961250Y103920000D03*
X4961250Y98140000D03*
D18*
X6066250Y102280000D03*
X6066250Y101280000D03*
D19*
X6066250Y100780000D03*
X6066250Y99780000D03*
X6066250Y99280000D03*
X6066250Y100280000D03*
D18*
X6066250Y101780000D03*
X6066250Y102780000D03*
D20*
X6066250Y104255000D03*
D21*
X6066250Y97805000D03*
D22*
X1311250Y105348000D03*
D23*
X5491250Y105348000D03*
X5491250Y96712000D03*
D22*
X1311250Y96712000D03*
D20*
X6066250Y103480000D03*
D21*
X6066250Y98580000D03*
%TD*%
D24*
%TO.C,R33*%
X16500000Y93130000D03*
X16500000Y92110000D03*
%TD*%
D25*
%TO.C,SW2*%
X7095000Y110426000D03*
X7095000Y116014000D03*
X10905000Y110426000D03*
X10905000Y116014000D03*
%TD*%
D26*
%TO.C,R27*%
X32750000Y71910000D03*
X32750000Y72930000D03*
%TD*%
D14*
%TO.C,R30*%
X40990000Y71120000D03*
X42010000Y71120000D03*
%TD*%
D15*
%TO.C,C12*%
X38400000Y104140000D03*
X38400000Y105100000D03*
%TD*%
D27*
%TO.C,C5*%
X31020000Y102120000D03*
X31980000Y102120000D03*
%TD*%
D12*
%TO.C,J6*%
X20330000Y70120000D03*
X22870000Y70120000D03*
%TD*%
D14*
%TO.C,R24*%
X38640000Y78020000D03*
X39660000Y78020000D03*
%TD*%
D26*
%TO.C,R7*%
X35500000Y104110000D03*
X35500000Y105130000D03*
%TD*%
D15*
%TO.C,C17*%
X41800000Y104140000D03*
X41800000Y105100000D03*
%TD*%
D28*
%TO.C,J3*%
X1905000Y70296000D03*
X6477000Y70296000D03*
D29*
X1905000Y64596000D03*
X8005000Y64596000D03*
X1905000Y75996000D03*
X8005000Y75996000D03*
%TD*%
D14*
%TO.C,R4*%
X23190000Y100320000D03*
X24210000Y100320000D03*
%TD*%
D30*
%TO.C,C19*%
X24180000Y97920000D03*
X23220000Y97920000D03*
%TD*%
D13*
%TO.C,ST1*%
X15250000Y112460000D03*
%TD*%
D31*
%TO.C,J11*%
X58300000Y103570000D03*
X61100000Y103070000D03*
X58300000Y102570000D03*
X61100000Y102070000D03*
X58300000Y101570000D03*
X61100000Y101070000D03*
X58300000Y100570000D03*
X61100000Y100070000D03*
X58300000Y99570000D03*
X61100000Y99070000D03*
X58300000Y98570000D03*
X61100000Y98070000D03*
X58300000Y97570000D03*
X61100000Y97070000D03*
X58300000Y96570000D03*
X61100000Y96070000D03*
X58300000Y95570000D03*
X61100000Y95070000D03*
X58300000Y94570000D03*
X61100000Y94070000D03*
X58300000Y93570000D03*
X61100000Y93070000D03*
D32*
X61100000Y104570000D03*
X58300000Y104570000D03*
X61100000Y92070000D03*
X58300000Y92070000D03*
%TD*%
D33*
%TO.C,U9*%
X28649900Y72920000D03*
X28649900Y71970000D03*
X28649900Y71020000D03*
X31250100Y71020000D03*
X31250100Y72920000D03*
%TD*%
D24*
%TO.C,R28*%
X17600000Y79330000D03*
X17600000Y78310000D03*
%TD*%
D34*
%TO.C,U5*%
X21850000Y77495000D03*
D35*
X21750000Y76445000D03*
X21750000Y75995000D03*
X21750000Y75545000D03*
X23450000Y75545000D03*
X23450000Y75995000D03*
X23450000Y76445000D03*
D34*
X23350000Y77495000D03*
D36*
X22600000Y77610000D03*
%TD*%
D26*
%TO.C,R1*%
X8600000Y97810000D03*
X8600000Y98830000D03*
%TD*%
D16*
%TO.C,R21*%
X39260000Y79620000D03*
X38240000Y79620000D03*
%TD*%
D37*
%TO.C,C4*%
X38100000Y90400000D03*
X38100000Y89440000D03*
%TD*%
D38*
%TO.C,D3*%
X45787500Y73120000D03*
X44212500Y73120000D03*
%TD*%
D16*
%TO.C,R12*%
X47510000Y101820000D03*
X46490000Y101820000D03*
%TD*%
D39*
%TO.C,U2*%
X62750000Y86320000D03*
X61250000Y86320000D03*
X59750000Y86320000D03*
X58250000Y86320000D03*
X56750000Y86320000D03*
X55250000Y86320000D03*
X53750000Y86320000D03*
D40*
X52700000Y84320000D03*
X52700000Y82820000D03*
X52700000Y81320000D03*
X52700000Y79820000D03*
X52700000Y78320000D03*
X52700000Y76820000D03*
X52700000Y75320000D03*
D39*
X53750000Y73320000D03*
X55250000Y73320000D03*
X56750000Y73320000D03*
X58250000Y73320000D03*
X59750000Y73320000D03*
X61250000Y73320000D03*
X62750000Y73320000D03*
%TD*%
D41*
%TO.C,C24*%
X25650000Y80020000D03*
X23750000Y80020000D03*
%TD*%
D42*
%TO.C,U6*%
X36350000Y82860000D03*
X35850000Y82860000D03*
X35350000Y82860000D03*
X34850000Y82860000D03*
X34850000Y81380000D03*
X35350000Y81380000D03*
X35850000Y81380000D03*
X36350000Y81380000D03*
%TD*%
D37*
%TO.C,C11*%
X44500000Y93800000D03*
X44500000Y92840000D03*
%TD*%
D16*
%TO.C,R26*%
X36460000Y73920000D03*
X35440000Y73920000D03*
%TD*%
D14*
%TO.C,R13*%
X55490000Y88020000D03*
X56510000Y88020000D03*
%TD*%
D43*
%TO.C,J7*%
X22600000Y66320000D03*
X20600000Y66320000D03*
D44*
X25000000Y61120000D03*
X18200000Y61120000D03*
%TD*%
D24*
%TO.C,R34*%
X12500000Y116030000D03*
X12500000Y115010000D03*
%TD*%
D37*
%TO.C,C6*%
X32000000Y100700000D03*
X32000000Y99740000D03*
%TD*%
D41*
%TO.C,C25*%
X25650000Y82020000D03*
X23750000Y82020000D03*
%TD*%
D30*
%TO.C,C13*%
X30980000Y97520000D03*
X30020000Y97520000D03*
%TD*%
D45*
%TO.C,U11*%
X36450000Y72420100D03*
X35500000Y72420100D03*
X34550000Y72420100D03*
X34550000Y69819900D03*
X36450000Y69819900D03*
%TD*%
D33*
%TO.C,D2*%
X8699900Y101770000D03*
X8699900Y100820000D03*
X8699900Y99870000D03*
X11300100Y99870000D03*
X11300000Y100820000D03*
X11300100Y101770000D03*
%TD*%
D24*
%TO.C,R9*%
X29500000Y104230000D03*
X29500000Y103210000D03*
%TD*%
D30*
%TO.C,C28*%
X32030000Y69870000D03*
X31070000Y69870000D03*
%TD*%
D46*
%TO.C,L1*%
X29500000Y99395000D03*
X29500000Y100845000D03*
%TD*%
D15*
%TO.C,C22*%
X24500000Y75540000D03*
X24500000Y76500000D03*
%TD*%
D16*
%TO.C,R6*%
X3310000Y109220000D03*
X2290000Y109220000D03*
%TD*%
D47*
%TO.C,D4*%
X8750000Y60405000D03*
X9850000Y60405000D03*
X9850000Y62235000D03*
X8750000Y62235000D03*
%TD*%
D37*
%TO.C,C29*%
X37800000Y72900000D03*
X37800000Y71940000D03*
%TD*%
D14*
%TO.C,R22*%
X12990000Y70420000D03*
X14010000Y70420000D03*
%TD*%
D15*
%TO.C,C8*%
X33500000Y104140000D03*
X33500000Y105100000D03*
%TD*%
D48*
%TO.C,J13*%
X4889000Y115230000D03*
X4889000Y114230000D03*
X4889000Y113230000D03*
X4889000Y112230000D03*
D49*
X1214000Y110930000D03*
X1214000Y116530000D03*
%TD*%
D27*
%TO.C,C33*%
X28870000Y69870000D03*
X29830000Y69870000D03*
%TD*%
D50*
%TO.C,U1*%
X34200000Y92223500D03*
X34600000Y92223500D03*
X35000000Y92223500D03*
X35400000Y92223500D03*
X35800000Y92223500D03*
X36200000Y92223500D03*
X36600000Y92223500D03*
X37000000Y92223500D03*
X37400000Y92223500D03*
X37800000Y92223500D03*
X38200000Y92223500D03*
X38600000Y92223500D03*
X39000000Y92223500D03*
X39400000Y92223500D03*
X39800000Y92223500D03*
X40200000Y92223500D03*
X40600000Y92223500D03*
X41000000Y92223500D03*
X41400000Y92223500D03*
X41800000Y92223500D03*
D51*
X42896500Y93320000D03*
X42896500Y93720000D03*
X42896500Y94120000D03*
X42896500Y94520000D03*
X42896500Y94920000D03*
X42896500Y95320000D03*
X42896500Y95720000D03*
X42896500Y96120000D03*
X42896500Y96520000D03*
X42896500Y96920000D03*
X42896500Y97320000D03*
X42896500Y97720000D03*
X42896500Y98120000D03*
X42896500Y98520000D03*
X42896500Y98920000D03*
X42896500Y99320000D03*
X42896500Y99720000D03*
X42896500Y100120000D03*
X42896500Y100520000D03*
X42896500Y100920000D03*
D52*
X41800000Y102016500D03*
X41400000Y102016500D03*
X41000000Y102016500D03*
X40600000Y102016500D03*
X40200000Y102016500D03*
X39800000Y102016500D03*
X39400000Y102016500D03*
X39000000Y102016500D03*
X38600000Y102016500D03*
X38200000Y102016500D03*
X37800000Y102016500D03*
X37400000Y102016500D03*
X37000000Y102016500D03*
X36600000Y102016500D03*
X36200000Y102016500D03*
X35800000Y102016500D03*
X35400000Y102016500D03*
X35000000Y102016500D03*
X34600000Y102016500D03*
X34200000Y102016500D03*
D53*
X33103500Y100920000D03*
X33103500Y100520000D03*
X33103500Y100120000D03*
X33103500Y99720000D03*
X33103500Y99320000D03*
X33103500Y98920000D03*
X33103500Y98520000D03*
X33103500Y98120000D03*
X33103500Y97720000D03*
X33103500Y97320000D03*
X33103500Y96920000D03*
X33103500Y96520000D03*
X33103500Y96120000D03*
X33103500Y95720000D03*
X33103500Y95320000D03*
X33103500Y94920000D03*
X33103500Y94520000D03*
X33103500Y94120000D03*
X33103500Y93720000D03*
X33103500Y93320000D03*
D54*
X38000000Y97120000D03*
%TD*%
D16*
%TO.C,R19*%
X20810000Y74820000D03*
X19790000Y74820000D03*
%TD*%
D27*
%TO.C,C23*%
X19820000Y75820000D03*
X20780000Y75820000D03*
%TD*%
D55*
%TO.C,D6*%
X44212500Y75120000D03*
X45787500Y75120000D03*
%TD*%
D37*
%TO.C,C34*%
X7250000Y62300000D03*
X7250000Y61340000D03*
%TD*%
D56*
%TO.C,SW1*%
X22006000Y107025000D03*
X27594000Y107025000D03*
X22006000Y103215000D03*
X27594000Y103215000D03*
%TD*%
D30*
%TO.C,C1*%
X45480000Y97920000D03*
X44520000Y97920000D03*
%TD*%
D57*
%TO.C,D1*%
X13600000Y76620000D03*
X13600000Y72620000D03*
%TD*%
D13*
%TO.C,ST3*%
X66050000Y97210000D03*
%TD*%
D27*
%TO.C,C31*%
X34370000Y75020000D03*
X35330000Y75020000D03*
%TD*%
D58*
%TO.C,Y1*%
X47650000Y92670000D03*
X47650000Y94370000D03*
X46350000Y94370000D03*
X46350000Y92670000D03*
%TD*%
D59*
%TO.C,L2*%
X55275000Y70720000D03*
X53725000Y70720000D03*
%TD*%
D60*
%TO.C,F2*%
X10900000Y97420000D03*
X13700000Y97420000D03*
%TD*%
D61*
%TO.C,U10*%
X37250100Y76420000D03*
X37250100Y77370000D03*
X37250100Y78320000D03*
X34649900Y78320000D03*
X34649900Y76420000D03*
%TD*%
D62*
%TO.C,J14*%
X4100000Y91502000D03*
X4100000Y83502000D03*
D63*
X14600000Y84302000D03*
X14600000Y85402000D03*
X14600000Y86502000D03*
X14600000Y87602000D03*
X14600000Y88702000D03*
X14600000Y89802000D03*
X14600000Y90902000D03*
X14600000Y92002000D03*
X14600000Y93102000D03*
D64*
X14000000Y94302000D03*
D65*
X4500000Y94302000D03*
X4500000Y78802000D03*
D66*
X14100000Y79702000D03*
%TD*%
D67*
%TO.C,U3*%
X24195000Y91145000D03*
X25465000Y91145000D03*
X26735000Y91145000D03*
X28005000Y91145000D03*
X28005000Y96695000D03*
X26735000Y96695000D03*
X25465000Y96695000D03*
X24195000Y96695000D03*
D68*
X26100000Y93920000D03*
%TD*%
D16*
%TO.C,R16*%
X24210000Y89820000D03*
X23190000Y89820000D03*
%TD*%
D69*
%TO.C,C21*%
X20250000Y80020000D03*
X22150000Y80020000D03*
%TD*%
D55*
%TO.C,D7*%
X44212500Y69120000D03*
X45787500Y69120000D03*
%TD*%
D37*
%TO.C,C3*%
X34500000Y105100000D03*
X34500000Y104140000D03*
%TD*%
D14*
%TO.C,R32*%
X40990000Y69120000D03*
X42010000Y69120000D03*
%TD*%
D26*
%TO.C,R35*%
X20000000Y103210000D03*
X20000000Y104230000D03*
%TD*%
D24*
%TO.C,R2*%
X8600000Y104230000D03*
X8600000Y103210000D03*
%TD*%
D37*
%TO.C,C16*%
X44500000Y96300000D03*
X44500000Y95340000D03*
%TD*%
D42*
%TO.C,U7*%
X39250000Y82860000D03*
X38750000Y82860000D03*
X38250000Y82860000D03*
X37750000Y82860000D03*
X37750000Y81380000D03*
X38250000Y81380000D03*
X38750000Y81380000D03*
X39250000Y81380000D03*
%TD*%
D70*
%TO.C,L3*%
X30000000Y75345000D03*
X30000000Y80895000D03*
%TD*%
D30*
%TO.C,C30*%
X37530000Y75020000D03*
X36570000Y75020000D03*
%TD*%
D37*
%TO.C,C18*%
X30600000Y94600000D03*
X30600000Y93640000D03*
%TD*%
D71*
%TO.C,FID1*%
X9000000Y116520000D03*
%TD*%
D37*
%TO.C,C10*%
X31000000Y100700000D03*
X31000000Y99740000D03*
%TD*%
D72*
%TO.C,C35*%
X16825000Y87620000D03*
X18375000Y87620000D03*
%TD*%
D14*
%TO.C,R3*%
X23190000Y99120000D03*
X24210000Y99120000D03*
%TD*%
D16*
%TO.C,R11*%
X47510000Y99420000D03*
X46490000Y99420000D03*
%TD*%
D73*
%TO.C,Q1*%
X56600000Y70020000D03*
X57600000Y70020000D03*
X57100000Y71170000D03*
%TD*%
D16*
%TO.C,R10*%
X47510000Y96720000D03*
X46490000Y96720000D03*
%TD*%
D71*
%TO.C,FID4*%
X66000000Y65620000D03*
%TD*%
D14*
%TO.C,R5*%
X4290000Y109220000D03*
X5310000Y109220000D03*
%TD*%
D26*
%TO.C,R17*%
X19405000Y92518400D03*
X19405000Y93538400D03*
%TD*%
D37*
%TO.C,C27*%
X39100000Y72900000D03*
X39100000Y71940000D03*
%TD*%
D15*
%TO.C,C36*%
X10400000Y103240000D03*
X10400000Y104200000D03*
%TD*%
D16*
%TO.C,R18*%
X36360000Y79620000D03*
X35340000Y79620000D03*
%TD*%
D15*
%TO.C,C32*%
X37800000Y69340000D03*
X37800000Y70300000D03*
%TD*%
D16*
%TO.C,R14*%
X51010000Y81320000D03*
X49990000Y81320000D03*
%TD*%
D13*
%TO.C,ST4*%
X66050000Y69270000D03*
%TD*%
D27*
%TO.C,C9*%
X46520000Y95720000D03*
X47480000Y95720000D03*
%TD*%
D12*
%TO.C,J10*%
X50000000Y98120000D03*
X50000000Y100660000D03*
X50000000Y103200000D03*
%TD*%
D16*
%TO.C,R20*%
X22810000Y74520000D03*
X21790000Y74520000D03*
%TD*%
D74*
%TO.C,U4*%
X20650000Y92770000D03*
X21150000Y92770000D03*
X21650000Y92770000D03*
X22150000Y92770000D03*
X22150000Y95270000D03*
X21650000Y95270000D03*
X21150000Y95270000D03*
X20650000Y95270000D03*
D75*
X21400000Y94020000D03*
%TD*%
D16*
%TO.C,R23*%
X42010000Y73120000D03*
X40990000Y73120000D03*
%TD*%
D30*
%TO.C,C7*%
X47480000Y91120000D03*
X46520000Y91120000D03*
%TD*%
D26*
%TO.C,R29*%
X16400000Y78310000D03*
X16400000Y79330000D03*
%TD*%
D56*
%TO.C,SW3*%
X12406000Y107025000D03*
X17994000Y107025000D03*
X12406000Y103215000D03*
X17994000Y103215000D03*
%TD*%
D14*
%TO.C,R31*%
X40990000Y75120000D03*
X42010000Y75120000D03*
%TD*%
D15*
%TO.C,C20*%
X19405000Y94548400D03*
X19405000Y95508400D03*
%TD*%
D76*
%TO.C,F1*%
X17100000Y71732400D03*
X17100000Y76507600D03*
%TD*%
D55*
%TO.C,D5*%
X44212500Y71120000D03*
X45787500Y71120000D03*
%TD*%
D37*
%TO.C,C14*%
X35200000Y90500000D03*
X35200000Y89540000D03*
%TD*%
D12*
%TO.C,H1*%
X35570000Y60380000D03*
X38110000Y60380000D03*
X63510000Y60380000D03*
X60970000Y60380000D03*
X58430000Y60380000D03*
X55890000Y60380000D03*
X53350000Y60380000D03*
X50810000Y60380000D03*
X23886000Y116260000D03*
X63510000Y116260000D03*
X60970000Y116260000D03*
X58430000Y116260000D03*
X55890000Y116260000D03*
X53350000Y116260000D03*
X50810000Y116260000D03*
X48270000Y116260000D03*
X45730000Y116260000D03*
X41666000Y116260000D03*
X39126000Y116260000D03*
X36586000Y116260000D03*
X34046000Y116260000D03*
X31506000Y116260000D03*
X28966000Y116260000D03*
X21346000Y116260000D03*
X18806000Y116260000D03*
X26426000Y116260000D03*
X40650000Y60380000D03*
X43190000Y60380000D03*
X30490000Y60380000D03*
X27950000Y60380000D03*
X45730000Y60380000D03*
X33030000Y60380000D03*
%TD*%
D15*
%TO.C,C26*%
X16450000Y68640000D03*
X16450000Y69600000D03*
%TD*%
D26*
%TO.C,R15*%
X58600000Y70210000D03*
X58600000Y71230000D03*
%TD*%
D77*
%TO.C,J12*%
X55521500Y99620000D03*
X55521500Y100620000D03*
X55521500Y101620000D03*
D78*
X52996500Y98320000D03*
X52996500Y102920000D03*
%TD*%
D37*
%TO.C,C15*%
X39800000Y90100000D03*
X39800000Y89140000D03*
%TD*%
%TO.C,C15*%
X39800000Y30980000D03*
X39800000Y30020000D03*
%TD*%
D77*
%TO.C,J12*%
X55521500Y40500000D03*
X55521500Y41500000D03*
X55521500Y42500000D03*
D78*
X52996500Y39200000D03*
X52996500Y43800000D03*
%TD*%
D26*
%TO.C,R15*%
X58600000Y11090000D03*
X58600000Y12110000D03*
%TD*%
D15*
%TO.C,C26*%
X16450000Y9520000D03*
X16450000Y10480000D03*
%TD*%
D12*
%TO.C,H1*%
X35570000Y1260000D03*
X38110000Y1260000D03*
X63510000Y1260000D03*
X60970000Y1260000D03*
X58430000Y1260000D03*
X55890000Y1260000D03*
X53350000Y1260000D03*
X50810000Y1260000D03*
X23886000Y57140000D03*
X63510000Y57140000D03*
X60970000Y57140000D03*
X58430000Y57140000D03*
X55890000Y57140000D03*
X53350000Y57140000D03*
X50810000Y57140000D03*
X48270000Y57140000D03*
X45730000Y57140000D03*
X41666000Y57140000D03*
X39126000Y57140000D03*
X36586000Y57140000D03*
X34046000Y57140000D03*
X31506000Y57140000D03*
X28966000Y57140000D03*
X21346000Y57140000D03*
X18806000Y57140000D03*
X26426000Y57140000D03*
X40650000Y1260000D03*
X43190000Y1260000D03*
X30490000Y1260000D03*
X27950000Y1260000D03*
X45730000Y1260000D03*
X33030000Y1260000D03*
%TD*%
D37*
%TO.C,C14*%
X35200000Y31380000D03*
X35200000Y30420000D03*
%TD*%
D55*
%TO.C,D5*%
X44212500Y12000000D03*
X45787500Y12000000D03*
%TD*%
D76*
%TO.C,F1*%
X17100000Y12612400D03*
X17100000Y17387600D03*
%TD*%
D15*
%TO.C,C20*%
X19405000Y35428400D03*
X19405000Y36388400D03*
%TD*%
D14*
%TO.C,R31*%
X40990000Y16000000D03*
X42010000Y16000000D03*
%TD*%
D56*
%TO.C,SW3*%
X12406000Y47905000D03*
X17994000Y47905000D03*
X12406000Y44095000D03*
X17994000Y44095000D03*
%TD*%
D26*
%TO.C,R29*%
X16400000Y19190000D03*
X16400000Y20210000D03*
%TD*%
D30*
%TO.C,C7*%
X47480000Y32000000D03*
X46520000Y32000000D03*
%TD*%
D16*
%TO.C,R23*%
X42010000Y14000000D03*
X40990000Y14000000D03*
%TD*%
D74*
%TO.C,U4*%
X20650000Y33650000D03*
X21150000Y33650000D03*
X21650000Y33650000D03*
X22150000Y33650000D03*
X22150000Y36150000D03*
X21650000Y36150000D03*
X21150000Y36150000D03*
X20650000Y36150000D03*
D75*
X21400000Y34900000D03*
%TD*%
D16*
%TO.C,R20*%
X22810000Y15400000D03*
X21790000Y15400000D03*
%TD*%
D12*
%TO.C,J10*%
X50000000Y39000000D03*
X50000000Y41540000D03*
X50000000Y44080000D03*
%TD*%
D27*
%TO.C,C9*%
X46520000Y36600000D03*
X47480000Y36600000D03*
%TD*%
D13*
%TO.C,ST4*%
X66050000Y10150000D03*
%TD*%
D16*
%TO.C,R14*%
X51010000Y22200000D03*
X49990000Y22200000D03*
%TD*%
D15*
%TO.C,C32*%
X37800000Y10220000D03*
X37800000Y11180000D03*
%TD*%
D16*
%TO.C,R18*%
X36360000Y20500000D03*
X35340000Y20500000D03*
%TD*%
D15*
%TO.C,C36*%
X10400000Y44120000D03*
X10400000Y45080000D03*
%TD*%
D37*
%TO.C,C27*%
X39100000Y13780000D03*
X39100000Y12820000D03*
%TD*%
D26*
%TO.C,R17*%
X19405000Y33398400D03*
X19405000Y34418400D03*
%TD*%
D14*
%TO.C,R5*%
X4290000Y50100000D03*
X5310000Y50100000D03*
%TD*%
D71*
%TO.C,FID4*%
X66000000Y6500000D03*
%TD*%
D16*
%TO.C,R10*%
X47510000Y37600000D03*
X46490000Y37600000D03*
%TD*%
D73*
%TO.C,Q1*%
X56600000Y10900000D03*
X57600000Y10900000D03*
X57100000Y12050000D03*
%TD*%
D16*
%TO.C,R11*%
X47510000Y40300000D03*
X46490000Y40300000D03*
%TD*%
D14*
%TO.C,R3*%
X23190000Y40000000D03*
X24210000Y40000000D03*
%TD*%
D72*
%TO.C,C35*%
X16825000Y28500000D03*
X18375000Y28500000D03*
%TD*%
D37*
%TO.C,C10*%
X31000000Y41580000D03*
X31000000Y40620000D03*
%TD*%
D71*
%TO.C,FID1*%
X9000000Y57400000D03*
%TD*%
D37*
%TO.C,C18*%
X30600000Y35480000D03*
X30600000Y34520000D03*
%TD*%
D30*
%TO.C,C30*%
X37530000Y15900000D03*
X36570000Y15900000D03*
%TD*%
D70*
%TO.C,L3*%
X30000000Y16225000D03*
X30000000Y21775000D03*
%TD*%
D42*
%TO.C,U7*%
X39250000Y23740000D03*
X38750000Y23740000D03*
X38250000Y23740000D03*
X37750000Y23740000D03*
X37750000Y22260000D03*
X38250000Y22260000D03*
X38750000Y22260000D03*
X39250000Y22260000D03*
%TD*%
D37*
%TO.C,C16*%
X44500000Y37180000D03*
X44500000Y36220000D03*
%TD*%
D24*
%TO.C,R2*%
X8600000Y45110000D03*
X8600000Y44090000D03*
%TD*%
D26*
%TO.C,R35*%
X20000000Y44090000D03*
X20000000Y45110000D03*
%TD*%
D14*
%TO.C,R32*%
X40990000Y10000000D03*
X42010000Y10000000D03*
%TD*%
D37*
%TO.C,C3*%
X34500000Y45980000D03*
X34500000Y45020000D03*
%TD*%
D55*
%TO.C,D7*%
X44212500Y10000000D03*
X45787500Y10000000D03*
%TD*%
D69*
%TO.C,C21*%
X20250000Y20900000D03*
X22150000Y20900000D03*
%TD*%
D16*
%TO.C,R16*%
X24210000Y30700000D03*
X23190000Y30700000D03*
%TD*%
D67*
%TO.C,U3*%
X24195000Y32025000D03*
X25465000Y32025000D03*
X26735000Y32025000D03*
X28005000Y32025000D03*
X28005000Y37575000D03*
X26735000Y37575000D03*
X25465000Y37575000D03*
X24195000Y37575000D03*
D68*
X26100000Y34800000D03*
%TD*%
D62*
%TO.C,J14*%
X4100000Y32382000D03*
X4100000Y24382000D03*
D63*
X14600000Y25182000D03*
X14600000Y26282000D03*
X14600000Y27382000D03*
X14600000Y28482000D03*
X14600000Y29582000D03*
X14600000Y30682000D03*
X14600000Y31782000D03*
X14600000Y32882000D03*
X14600000Y33982000D03*
D64*
X14000000Y35182000D03*
D65*
X4500000Y35182000D03*
X4500000Y19682000D03*
D66*
X14100000Y20582000D03*
%TD*%
D61*
%TO.C,U10*%
X37250100Y17300000D03*
X37250100Y18250000D03*
X37250100Y19200000D03*
X34649900Y19200000D03*
X34649900Y17300000D03*
%TD*%
D60*
%TO.C,F2*%
X10900000Y38300000D03*
X13700000Y38300000D03*
%TD*%
D59*
%TO.C,L2*%
X55275000Y11600000D03*
X53725000Y11600000D03*
%TD*%
D58*
%TO.C,Y1*%
X47650000Y33550000D03*
X47650000Y35250000D03*
X46350000Y35250000D03*
X46350000Y33550000D03*
%TD*%
D27*
%TO.C,C31*%
X34370000Y15900000D03*
X35330000Y15900000D03*
%TD*%
D13*
%TO.C,ST3*%
X66050000Y38090000D03*
%TD*%
D57*
%TO.C,D1*%
X13600000Y17500000D03*
X13600000Y13500000D03*
%TD*%
D30*
%TO.C,C1*%
X45480000Y38800000D03*
X44520000Y38800000D03*
%TD*%
D56*
%TO.C,SW1*%
X22006000Y47905000D03*
X27594000Y47905000D03*
X22006000Y44095000D03*
X27594000Y44095000D03*
%TD*%
D37*
%TO.C,C34*%
X7250000Y3180000D03*
X7250000Y2220000D03*
%TD*%
D55*
%TO.C,D6*%
X44212500Y16000000D03*
X45787500Y16000000D03*
%TD*%
D27*
%TO.C,C23*%
X19820000Y16700000D03*
X20780000Y16700000D03*
%TD*%
D16*
%TO.C,R19*%
X20810000Y15700000D03*
X19790000Y15700000D03*
%TD*%
D50*
%TO.C,U1*%
X34200000Y33103500D03*
X34600000Y33103500D03*
X35000000Y33103500D03*
X35400000Y33103500D03*
X35800000Y33103500D03*
X36200000Y33103500D03*
X36600000Y33103500D03*
X37000000Y33103500D03*
X37400000Y33103500D03*
X37800000Y33103500D03*
X38200000Y33103500D03*
X38600000Y33103500D03*
X39000000Y33103500D03*
X39400000Y33103500D03*
X39800000Y33103500D03*
X40200000Y33103500D03*
X40600000Y33103500D03*
X41000000Y33103500D03*
X41400000Y33103500D03*
X41800000Y33103500D03*
D51*
X42896500Y34200000D03*
X42896500Y34600000D03*
X42896500Y35000000D03*
X42896500Y35400000D03*
X42896500Y35800000D03*
X42896500Y36200000D03*
X42896500Y36600000D03*
X42896500Y37000000D03*
X42896500Y37400000D03*
X42896500Y37800000D03*
X42896500Y38200000D03*
X42896500Y38600000D03*
X42896500Y39000000D03*
X42896500Y39400000D03*
X42896500Y39800000D03*
X42896500Y40200000D03*
X42896500Y40600000D03*
X42896500Y41000000D03*
X42896500Y41400000D03*
X42896500Y41800000D03*
D52*
X41800000Y42896500D03*
X41400000Y42896500D03*
X41000000Y42896500D03*
X40600000Y42896500D03*
X40200000Y42896500D03*
X39800000Y42896500D03*
X39400000Y42896500D03*
X39000000Y42896500D03*
X38600000Y42896500D03*
X38200000Y42896500D03*
X37800000Y42896500D03*
X37400000Y42896500D03*
X37000000Y42896500D03*
X36600000Y42896500D03*
X36200000Y42896500D03*
X35800000Y42896500D03*
X35400000Y42896500D03*
X35000000Y42896500D03*
X34600000Y42896500D03*
X34200000Y42896500D03*
D53*
X33103500Y41800000D03*
X33103500Y41400000D03*
X33103500Y41000000D03*
X33103500Y40600000D03*
X33103500Y40200000D03*
X33103500Y39800000D03*
X33103500Y39400000D03*
X33103500Y39000000D03*
X33103500Y38600000D03*
X33103500Y38200000D03*
X33103500Y37800000D03*
X33103500Y37400000D03*
X33103500Y37000000D03*
X33103500Y36600000D03*
X33103500Y36200000D03*
X33103500Y35800000D03*
X33103500Y35400000D03*
X33103500Y35000000D03*
X33103500Y34600000D03*
X33103500Y34200000D03*
D54*
X38000000Y38000000D03*
%TD*%
D27*
%TO.C,C33*%
X28870000Y10750000D03*
X29830000Y10750000D03*
%TD*%
D48*
%TO.C,J13*%
X4889000Y56110000D03*
X4889000Y55110000D03*
X4889000Y54110000D03*
X4889000Y53110000D03*
D49*
X1214000Y51810000D03*
X1214000Y57410000D03*
%TD*%
D15*
%TO.C,C8*%
X33500000Y45020000D03*
X33500000Y45980000D03*
%TD*%
D14*
%TO.C,R22*%
X12990000Y11300000D03*
X14010000Y11300000D03*
%TD*%
D37*
%TO.C,C29*%
X37800000Y13780000D03*
X37800000Y12820000D03*
%TD*%
D47*
%TO.C,D4*%
X8750000Y1285000D03*
X9850000Y1285000D03*
X9850000Y3115000D03*
X8750000Y3115000D03*
%TD*%
D16*
%TO.C,R6*%
X3310000Y50100000D03*
X2290000Y50100000D03*
%TD*%
D15*
%TO.C,C22*%
X24500000Y16420000D03*
X24500000Y17380000D03*
%TD*%
D46*
%TO.C,L1*%
X29500000Y40275000D03*
X29500000Y41725000D03*
%TD*%
D30*
%TO.C,C28*%
X32030000Y10750000D03*
X31070000Y10750000D03*
%TD*%
D24*
%TO.C,R9*%
X29500000Y45110000D03*
X29500000Y44090000D03*
%TD*%
D33*
%TO.C,D2*%
X8699900Y42650000D03*
X8699900Y41700000D03*
X8699900Y40750000D03*
X11300100Y40750000D03*
X11300000Y41700000D03*
X11300100Y42650000D03*
%TD*%
D45*
%TO.C,U11*%
X36450000Y13300100D03*
X35500000Y13300100D03*
X34550000Y13300100D03*
X34550000Y10699900D03*
X36450000Y10699900D03*
%TD*%
D30*
%TO.C,C13*%
X30980000Y38400000D03*
X30020000Y38400000D03*
%TD*%
D41*
%TO.C,C25*%
X25650000Y22900000D03*
X23750000Y22900000D03*
%TD*%
D37*
%TO.C,C6*%
X32000000Y41580000D03*
X32000000Y40620000D03*
%TD*%
D24*
%TO.C,R34*%
X12500000Y56910000D03*
X12500000Y55890000D03*
%TD*%
D43*
%TO.C,J7*%
X22600000Y7200000D03*
X20600000Y7200000D03*
D44*
X25000000Y2000000D03*
X18200000Y2000000D03*
%TD*%
D14*
%TO.C,R13*%
X55490000Y28900000D03*
X56510000Y28900000D03*
%TD*%
D16*
%TO.C,R26*%
X36460000Y14800000D03*
X35440000Y14800000D03*
%TD*%
D37*
%TO.C,C11*%
X44500000Y34680000D03*
X44500000Y33720000D03*
%TD*%
D42*
%TO.C,U6*%
X36350000Y23740000D03*
X35850000Y23740000D03*
X35350000Y23740000D03*
X34850000Y23740000D03*
X34850000Y22260000D03*
X35350000Y22260000D03*
X35850000Y22260000D03*
X36350000Y22260000D03*
%TD*%
D41*
%TO.C,C24*%
X25650000Y20900000D03*
X23750000Y20900000D03*
%TD*%
D39*
%TO.C,U2*%
X62750000Y27200000D03*
X61250000Y27200000D03*
X59750000Y27200000D03*
X58250000Y27200000D03*
X56750000Y27200000D03*
X55250000Y27200000D03*
X53750000Y27200000D03*
D40*
X52700000Y25200000D03*
X52700000Y23700000D03*
X52700000Y22200000D03*
X52700000Y20700000D03*
X52700000Y19200000D03*
X52700000Y17700000D03*
X52700000Y16200000D03*
D39*
X53750000Y14200000D03*
X55250000Y14200000D03*
X56750000Y14200000D03*
X58250000Y14200000D03*
X59750000Y14200000D03*
X61250000Y14200000D03*
X62750000Y14200000D03*
%TD*%
D16*
%TO.C,R12*%
X47510000Y42700000D03*
X46490000Y42700000D03*
%TD*%
D38*
%TO.C,D3*%
X45787500Y14000000D03*
X44212500Y14000000D03*
%TD*%
D37*
%TO.C,C4*%
X38100000Y31280000D03*
X38100000Y30320000D03*
%TD*%
D16*
%TO.C,R21*%
X39260000Y20500000D03*
X38240000Y20500000D03*
%TD*%
D26*
%TO.C,R1*%
X8600000Y38690000D03*
X8600000Y39710000D03*
%TD*%
D34*
%TO.C,U5*%
X21850000Y18375000D03*
D35*
X21750000Y17325000D03*
X21750000Y16875000D03*
X21750000Y16425000D03*
X23450000Y16425000D03*
X23450000Y16875000D03*
X23450000Y17325000D03*
D34*
X23350000Y18375000D03*
D36*
X22600000Y18490000D03*
%TD*%
D24*
%TO.C,R28*%
X17600000Y20210000D03*
X17600000Y19190000D03*
%TD*%
D33*
%TO.C,U9*%
X28649900Y13800000D03*
X28649900Y12850000D03*
X28649900Y11900000D03*
X31250100Y11900000D03*
X31250100Y13800000D03*
%TD*%
D31*
%TO.C,J11*%
X58300000Y44450000D03*
X61100000Y43950000D03*
X58300000Y43450000D03*
X61100000Y42950000D03*
X58300000Y42450000D03*
X61100000Y41950000D03*
X58300000Y41450000D03*
X61100000Y40950000D03*
X58300000Y40450000D03*
X61100000Y39950000D03*
X58300000Y39450000D03*
X61100000Y38950000D03*
X58300000Y38450000D03*
X61100000Y37950000D03*
X58300000Y37450000D03*
X61100000Y36950000D03*
X58300000Y36450000D03*
X61100000Y35950000D03*
X58300000Y35450000D03*
X61100000Y34950000D03*
X58300000Y34450000D03*
X61100000Y33950000D03*
D32*
X61100000Y45450000D03*
X58300000Y45450000D03*
X61100000Y32950000D03*
X58300000Y32950000D03*
%TD*%
D13*
%TO.C,ST1*%
X15250000Y53340000D03*
%TD*%
D30*
%TO.C,C19*%
X24180000Y38800000D03*
X23220000Y38800000D03*
%TD*%
D14*
%TO.C,R4*%
X23190000Y41200000D03*
X24210000Y41200000D03*
%TD*%
D28*
%TO.C,J3*%
X1905000Y11176000D03*
X6477000Y11176000D03*
D29*
X1905000Y5476000D03*
X8005000Y5476000D03*
X1905000Y16876000D03*
X8005000Y16876000D03*
%TD*%
D15*
%TO.C,C17*%
X41800000Y45020000D03*
X41800000Y45980000D03*
%TD*%
D26*
%TO.C,R7*%
X35500000Y44990000D03*
X35500000Y46010000D03*
%TD*%
D14*
%TO.C,R24*%
X38640000Y18900000D03*
X39660000Y18900000D03*
%TD*%
D12*
%TO.C,J6*%
X20330000Y11000000D03*
X22870000Y11000000D03*
%TD*%
D27*
%TO.C,C5*%
X31020000Y43000000D03*
X31980000Y43000000D03*
%TD*%
D15*
%TO.C,C12*%
X38400000Y45020000D03*
X38400000Y45980000D03*
%TD*%
D14*
%TO.C,R30*%
X40990000Y12000000D03*
X42010000Y12000000D03*
%TD*%
D26*
%TO.C,R27*%
X32750000Y12790000D03*
X32750000Y13810000D03*
%TD*%
D25*
%TO.C,SW2*%
X7095000Y51306000D03*
X7095000Y56894000D03*
X10905000Y51306000D03*
X10905000Y56894000D03*
%TD*%
D24*
%TO.C,R33*%
X16500000Y34010000D03*
X16500000Y32990000D03*
%TD*%
D17*
%TO.C,J4*%
X4961250Y44800000D03*
X4961250Y39020000D03*
D18*
X6066250Y43160000D03*
X6066250Y42160000D03*
D19*
X6066250Y41660000D03*
X6066250Y40660000D03*
X6066250Y40160000D03*
X6066250Y41160000D03*
D18*
X6066250Y42660000D03*
X6066250Y43660000D03*
D20*
X6066250Y45135000D03*
D21*
X6066250Y38685000D03*
D22*
X1311250Y46228000D03*
D23*
X5491250Y46228000D03*
X5491250Y37592000D03*
D22*
X1311250Y37592000D03*
D20*
X6066250Y44360000D03*
D21*
X6066250Y39460000D03*
%TD*%
D16*
%TO.C,R8*%
X32010000Y44000000D03*
X30990000Y44000000D03*
%TD*%
D15*
%TO.C,C2*%
X37400000Y45020000D03*
X37400000Y45980000D03*
%TD*%
D14*
%TO.C,R25*%
X38640000Y17800000D03*
X39660000Y17800000D03*
%TD*%
D13*
%TO.C,ST2*%
X13980000Y5070000D03*
%TD*%
D12*
%TO.C,JP4*%
X41500000Y21270000D03*
X41500000Y18730000D03*
%TD*%
M02*
