%TF.GenerationSoftware,KiCad,Pcbnew,8.0.6*%
%TF.CreationDate,2024-12-20T13:40:34-07:00*%
%TF.ProjectId,SparkFun_IoT_RedBoard-RP2350_panelized,53706172-6b46-4756-9e5f-496f545f5265,v01*%
%TF.SameCoordinates,Original*%
%TF.FileFunction,Paste,Top*%
%TF.FilePolarity,Positive*%
%FSLAX46Y46*%
G04 Gerber Fmt 4.6, Leading zero omitted, Abs format (unit mm)*
G04 Created by KiCad (PCBNEW 8.0.6) date 2024-12-20 13:40:34*
%MOMM*%
%LPD*%
G01*
G04 APERTURE LIST*
G04 Aperture macros list*
%AMRoundRect*
0 Rectangle with rounded corners*
0 $1 Rounding radius*
0 $2 $3 $4 $5 $6 $7 $8 $9 X,Y pos of 4 corners*
0 Add a 4 corners polygon primitive as box body*
4,1,4,$2,$3,$4,$5,$6,$7,$8,$9,$2,$3,0*
0 Add four circle primitives for the rounded corners*
1,1,$1+$1,$2,$3*
1,1,$1+$1,$4,$5*
1,1,$1+$1,$6,$7*
1,1,$1+$1,$8,$9*
0 Add four rect primitives between the rounded corners*
20,1,$1+$1,$2,$3,$4,$5,0*
20,1,$1+$1,$4,$5,$6,$7,0*
20,1,$1+$1,$6,$7,$8,$9,0*
20,1,$1+$1,$8,$9,$2,$3,0*%
G04 Aperture macros list end*
%ADD10C,0.000000*%
%ADD11RoundRect,0.135000X-0.135000X-0.185000X0.135000X-0.185000X0.135000X0.185000X-0.135000X0.185000X0*%
%ADD12RoundRect,0.140000X0.170000X-0.140000X0.170000X0.140000X-0.170000X0.140000X-0.170000X-0.140000X0*%
%ADD13RoundRect,0.135000X0.135000X0.185000X-0.135000X0.185000X-0.135000X-0.185000X0.135000X-0.185000X0*%
%ADD14R,1.000000X0.300000*%
%ADD15R,1.000000X0.600000*%
%ADD16O,1.600000X1.000000*%
%ADD17O,2.100000X1.000000*%
%ADD18RoundRect,0.135000X-0.185000X0.135000X-0.185000X-0.135000X0.185000X-0.135000X0.185000X0.135000X0*%
%ADD19R,0.762000X1.524000*%
%ADD20RoundRect,0.135000X0.185000X-0.135000X0.185000X0.135000X-0.185000X0.135000X-0.185000X-0.135000X0*%
%ADD21RoundRect,0.140000X-0.140000X-0.170000X0.140000X-0.170000X0.140000X0.170000X-0.140000X0.170000X0*%
%ADD22R,2.800000X2.400000*%
%ADD23RoundRect,0.140000X0.140000X0.170000X-0.140000X0.170000X-0.140000X-0.170000X0.140000X-0.170000X0*%
%ADD24R,1.500000X0.600000*%
%ADD25R,1.500000X0.800000*%
%ADD26R,1.200000X0.550000*%
%ADD27RoundRect,0.140000X-0.170000X0.140000X-0.170000X-0.140000X0.170000X-0.140000X0.170000X0.140000X0*%
%ADD28RoundRect,0.218750X0.218750X0.256250X-0.218750X0.256250X-0.218750X-0.256250X0.218750X-0.256250X0*%
%ADD29RoundRect,0.200000X-0.300000X-0.550000X0.300000X-0.550000X0.300000X0.550000X-0.300000X0.550000X0*%
%ADD30RoundRect,0.200000X-0.550000X0.300000X-0.550000X-0.300000X0.550000X-0.300000X0.550000X0.300000X0*%
%ADD31RoundRect,0.250000X0.250000X0.475000X-0.250000X0.475000X-0.250000X-0.475000X0.250000X-0.475000X0*%
%ADD32RoundRect,0.050000X-0.100000X0.285000X-0.100000X-0.285000X0.100000X-0.285000X0.100000X0.285000X0*%
%ADD33R,1.000000X4.600000*%
%ADD34R,1.600000X3.400000*%
%ADD35R,0.550000X1.200000*%
%ADD36R,1.600000X0.550000*%
%ADD37R,0.700000X0.700000*%
%ADD38R,1.350000X0.600000*%
%ADD39R,2.000000X1.200000*%
%ADD40RoundRect,0.218750X-0.218750X-0.256250X0.218750X-0.256250X0.218750X0.256250X-0.218750X0.256250X0*%
%ADD41R,1.524000X0.762000*%
%ADD42RoundRect,0.208333X0.891667X-0.541667X0.891667X0.541667X-0.891667X0.541667X-0.891667X-0.541667X0*%
%ADD43R,1.000000X1.200000*%
%ADD44RoundRect,0.225000X0.225000X0.250000X-0.225000X0.250000X-0.225000X-0.250000X0.225000X-0.250000X0*%
%ADD45R,1.600000X1.800000*%
%ADD46R,1.600000X0.700000*%
%ADD47R,1.600000X1.200000*%
%ADD48R,2.200000X1.200000*%
%ADD49R,1.400000X1.600000*%
%ADD50R,0.500000X0.850000*%
%ADD51RoundRect,0.250000X-0.250000X-0.475000X0.250000X-0.475000X0.250000X0.475000X-0.250000X0.475000X0*%
%ADD52R,3.500000X1.850000*%
%ADD53RoundRect,0.225000X-0.225000X-0.250000X0.225000X-0.250000X0.225000X0.250000X-0.225000X0.250000X0*%
%ADD54R,0.460000X0.650000*%
%ADD55R,2.895600X1.676400*%
%ADD56R,1.550000X0.600000*%
%ADD57R,1.800000X1.200000*%
G04 APERTURE END LIST*
%TO.C,J9*%
G36*
X45255400Y113060000D02*
G01*
X46255400Y113060000D01*
X46255400Y115060000D01*
X45255400Y115060000D01*
X45255400Y113060000D01*
G37*
G36*
X45255400Y109860000D02*
G01*
X46255400Y109860000D01*
X46255400Y111860000D01*
X45255400Y111860000D01*
X45255400Y109860000D01*
G37*
G36*
X47795400Y113060000D02*
G01*
X48795400Y113060000D01*
X48795400Y115060000D01*
X47795400Y115060000D01*
X47795400Y113060000D01*
G37*
G36*
X47795400Y109860000D02*
G01*
X48795400Y109860000D01*
X48795400Y111860000D01*
X47795400Y111860000D01*
X47795400Y109860000D01*
G37*
G36*
X50335400Y113060000D02*
G01*
X51335400Y113060000D01*
X51335400Y115060000D01*
X50335400Y115060000D01*
X50335400Y113060000D01*
G37*
G36*
X50335400Y109860000D02*
G01*
X51335400Y109860000D01*
X51335400Y111860000D01*
X50335400Y111860000D01*
X50335400Y109860000D01*
G37*
G36*
X52875400Y113060000D02*
G01*
X53875400Y113060000D01*
X53875400Y115060000D01*
X52875400Y115060000D01*
X52875400Y113060000D01*
G37*
G36*
X52875400Y109860000D02*
G01*
X53875400Y109860000D01*
X53875400Y111860000D01*
X52875400Y111860000D01*
X52875400Y109860000D01*
G37*
G36*
X55415400Y113060000D02*
G01*
X56415400Y113060000D01*
X56415400Y115060000D01*
X55415400Y115060000D01*
X55415400Y113060000D01*
G37*
G36*
X55415400Y109860000D02*
G01*
X56415400Y109860000D01*
X56415400Y111860000D01*
X55415400Y111860000D01*
X55415400Y109860000D01*
G37*
G36*
X57955400Y113060000D02*
G01*
X58955400Y113060000D01*
X58955400Y115060000D01*
X57955400Y115060000D01*
X57955400Y113060000D01*
G37*
G36*
X57955400Y109860000D02*
G01*
X58955400Y109860000D01*
X58955400Y111860000D01*
X57955400Y111860000D01*
X57955400Y109860000D01*
G37*
G36*
X60495400Y113060000D02*
G01*
X61495400Y113060000D01*
X61495400Y115060000D01*
X60495400Y115060000D01*
X60495400Y113060000D01*
G37*
G36*
X60495400Y109860000D02*
G01*
X61495400Y109860000D01*
X61495400Y111860000D01*
X60495400Y111860000D01*
X60495400Y109860000D01*
G37*
G36*
X63035400Y113060000D02*
G01*
X64035400Y113060000D01*
X64035400Y115060000D01*
X63035400Y115060000D01*
X63035400Y113060000D01*
G37*
G36*
X63035400Y109860000D02*
G01*
X64035400Y109860000D01*
X64035400Y111860000D01*
X63035400Y111860000D01*
X63035400Y109860000D01*
G37*
%TO.C,U5*%
G36*
X21520000Y76560000D02*
G01*
X21970000Y76560000D01*
X21970000Y76330000D01*
X21520000Y76330000D01*
X21520000Y76560000D01*
G37*
G36*
X21520000Y76110000D02*
G01*
X21970000Y76110000D01*
X21970000Y75880000D01*
X21520000Y75880000D01*
X21520000Y76110000D01*
G37*
G36*
X21520000Y75660000D02*
G01*
X21970000Y75660000D01*
X21970000Y75430000D01*
X21520000Y75430000D01*
X21520000Y75660000D01*
G37*
G36*
X21550000Y78060000D02*
G01*
X22150000Y78060000D01*
X22150000Y76930000D01*
X21550000Y76930000D01*
X21550000Y78060000D01*
G37*
G36*
X22450000Y78300000D02*
G01*
X22750000Y78300000D01*
X22750000Y77000000D01*
X22450000Y77000000D01*
X22450000Y78300000D01*
G37*
G36*
X23050000Y78060000D02*
G01*
X23650000Y78060000D01*
X23650000Y76930000D01*
X23050000Y76930000D01*
X23050000Y78060000D01*
G37*
G36*
X23230000Y76560000D02*
G01*
X23680000Y76560000D01*
X23680000Y76330000D01*
X23230000Y76330000D01*
X23230000Y76560000D01*
G37*
G36*
X23230000Y76110000D02*
G01*
X23680000Y76110000D01*
X23680000Y75880000D01*
X23230000Y75880000D01*
X23230000Y76110000D01*
G37*
G36*
X23230000Y75660000D02*
G01*
X23680000Y75660000D01*
X23680000Y75430000D01*
X23230000Y75430000D01*
X23230000Y75660000D01*
G37*
%TO.C,J8*%
G36*
X18306000Y113060000D02*
G01*
X19306000Y113060000D01*
X19306000Y115060000D01*
X18306000Y115060000D01*
X18306000Y113060000D01*
G37*
G36*
X18306000Y109860000D02*
G01*
X19306000Y109860000D01*
X19306000Y111860000D01*
X18306000Y111860000D01*
X18306000Y109860000D01*
G37*
G36*
X20846000Y113060000D02*
G01*
X21846000Y113060000D01*
X21846000Y115060000D01*
X20846000Y115060000D01*
X20846000Y113060000D01*
G37*
G36*
X20846000Y109860000D02*
G01*
X21846000Y109860000D01*
X21846000Y111860000D01*
X20846000Y111860000D01*
X20846000Y109860000D01*
G37*
G36*
X23386000Y113060000D02*
G01*
X24386000Y113060000D01*
X24386000Y115060000D01*
X23386000Y115060000D01*
X23386000Y113060000D01*
G37*
G36*
X23386000Y109860000D02*
G01*
X24386000Y109860000D01*
X24386000Y111860000D01*
X23386000Y111860000D01*
X23386000Y109860000D01*
G37*
G36*
X25926000Y113060000D02*
G01*
X26926000Y113060000D01*
X26926000Y115060000D01*
X25926000Y115060000D01*
X25926000Y113060000D01*
G37*
G36*
X25926000Y109860000D02*
G01*
X26926000Y109860000D01*
X26926000Y111860000D01*
X25926000Y111860000D01*
X25926000Y109860000D01*
G37*
G36*
X28466000Y113060000D02*
G01*
X29466000Y113060000D01*
X29466000Y115060000D01*
X28466000Y115060000D01*
X28466000Y113060000D01*
G37*
G36*
X28466000Y109860000D02*
G01*
X29466000Y109860000D01*
X29466000Y111860000D01*
X28466000Y111860000D01*
X28466000Y109860000D01*
G37*
G36*
X31006000Y113060000D02*
G01*
X32006000Y113060000D01*
X32006000Y115060000D01*
X31006000Y115060000D01*
X31006000Y113060000D01*
G37*
G36*
X31006000Y109860000D02*
G01*
X32006000Y109860000D01*
X32006000Y111860000D01*
X31006000Y111860000D01*
X31006000Y109860000D01*
G37*
G36*
X33546000Y113060000D02*
G01*
X34546000Y113060000D01*
X34546000Y115060000D01*
X33546000Y115060000D01*
X33546000Y113060000D01*
G37*
G36*
X33546000Y109860000D02*
G01*
X34546000Y109860000D01*
X34546000Y111860000D01*
X33546000Y111860000D01*
X33546000Y109860000D01*
G37*
G36*
X36086000Y113060000D02*
G01*
X37086000Y113060000D01*
X37086000Y115060000D01*
X36086000Y115060000D01*
X36086000Y113060000D01*
G37*
G36*
X36086000Y109860000D02*
G01*
X37086000Y109860000D01*
X37086000Y111860000D01*
X36086000Y111860000D01*
X36086000Y109860000D01*
G37*
G36*
X38626000Y113060000D02*
G01*
X39626000Y113060000D01*
X39626000Y115060000D01*
X38626000Y115060000D01*
X38626000Y113060000D01*
G37*
G36*
X38626000Y109860000D02*
G01*
X39626000Y109860000D01*
X39626000Y111860000D01*
X38626000Y111860000D01*
X38626000Y109860000D01*
G37*
G36*
X41166000Y113060000D02*
G01*
X42166000Y113060000D01*
X42166000Y115060000D01*
X41166000Y115060000D01*
X41166000Y113060000D01*
G37*
G36*
X41166000Y109860000D02*
G01*
X42166000Y109860000D01*
X42166000Y111860000D01*
X41166000Y111860000D01*
X41166000Y109860000D01*
G37*
%TO.C,U1*%
G36*
X32775000Y100820000D02*
G01*
X33425000Y100820000D01*
X33425000Y101020000D01*
X32775000Y101020000D01*
X32775000Y100820000D01*
G37*
G36*
X32775000Y100420000D02*
G01*
X33425000Y100420000D01*
X33425000Y100620000D01*
X32775000Y100620000D01*
X32775000Y100420000D01*
G37*
G36*
X32775000Y100020000D02*
G01*
X33425000Y100020000D01*
X33425000Y100220000D01*
X32775000Y100220000D01*
X32775000Y100020000D01*
G37*
G36*
X32775000Y99620000D02*
G01*
X33425000Y99620000D01*
X33425000Y99820000D01*
X32775000Y99820000D01*
X32775000Y99620000D01*
G37*
G36*
X32775000Y99220000D02*
G01*
X33425000Y99220000D01*
X33425000Y99420000D01*
X32775000Y99420000D01*
X32775000Y99220000D01*
G37*
G36*
X32775000Y98820000D02*
G01*
X33425000Y98820000D01*
X33425000Y99020000D01*
X32775000Y99020000D01*
X32775000Y98820000D01*
G37*
G36*
X32775000Y98420000D02*
G01*
X33425000Y98420000D01*
X33425000Y98620000D01*
X32775000Y98620000D01*
X32775000Y98420000D01*
G37*
G36*
X32775000Y98020000D02*
G01*
X33425000Y98020000D01*
X33425000Y98220000D01*
X32775000Y98220000D01*
X32775000Y98020000D01*
G37*
G36*
X32775000Y97620000D02*
G01*
X33425000Y97620000D01*
X33425000Y97820000D01*
X32775000Y97820000D01*
X32775000Y97620000D01*
G37*
G36*
X32775000Y97220000D02*
G01*
X33425000Y97220000D01*
X33425000Y97420000D01*
X32775000Y97420000D01*
X32775000Y97220000D01*
G37*
G36*
X32775000Y96820000D02*
G01*
X33425000Y96820000D01*
X33425000Y97020000D01*
X32775000Y97020000D01*
X32775000Y96820000D01*
G37*
G36*
X32775000Y96420000D02*
G01*
X33425000Y96420000D01*
X33425000Y96620000D01*
X32775000Y96620000D01*
X32775000Y96420000D01*
G37*
G36*
X32775000Y96020000D02*
G01*
X33425000Y96020000D01*
X33425000Y96220000D01*
X32775000Y96220000D01*
X32775000Y96020000D01*
G37*
G36*
X32775000Y95620000D02*
G01*
X33425000Y95620000D01*
X33425000Y95820000D01*
X32775000Y95820000D01*
X32775000Y95620000D01*
G37*
G36*
X32775000Y95220000D02*
G01*
X33425000Y95220000D01*
X33425000Y95420000D01*
X32775000Y95420000D01*
X32775000Y95220000D01*
G37*
G36*
X32775000Y94820000D02*
G01*
X33425000Y94820000D01*
X33425000Y95020000D01*
X32775000Y95020000D01*
X32775000Y94820000D01*
G37*
G36*
X32775000Y94420000D02*
G01*
X33425000Y94420000D01*
X33425000Y94620000D01*
X32775000Y94620000D01*
X32775000Y94420000D01*
G37*
G36*
X32775000Y94020000D02*
G01*
X33425000Y94020000D01*
X33425000Y94220000D01*
X32775000Y94220000D01*
X32775000Y94020000D01*
G37*
G36*
X32775000Y93620000D02*
G01*
X33425000Y93620000D01*
X33425000Y93820000D01*
X32775000Y93820000D01*
X32775000Y93620000D01*
G37*
G36*
X32775000Y93220000D02*
G01*
X33425000Y93220000D01*
X33425000Y93420000D01*
X32775000Y93420000D01*
X32775000Y93220000D01*
G37*
G36*
X42600000Y100820000D02*
G01*
X43250000Y100820000D01*
X43250000Y101020000D01*
X42600000Y101020000D01*
X42600000Y100820000D01*
G37*
G36*
X42600000Y100420000D02*
G01*
X43250000Y100420000D01*
X43250000Y100620000D01*
X42600000Y100620000D01*
X42600000Y100420000D01*
G37*
G36*
X42600000Y100020000D02*
G01*
X43250000Y100020000D01*
X43250000Y100220000D01*
X42600000Y100220000D01*
X42600000Y100020000D01*
G37*
G36*
X42600000Y99620000D02*
G01*
X43250000Y99620000D01*
X43250000Y99820000D01*
X42600000Y99820000D01*
X42600000Y99620000D01*
G37*
G36*
X42600000Y99220000D02*
G01*
X43250000Y99220000D01*
X43250000Y99420000D01*
X42600000Y99420000D01*
X42600000Y99220000D01*
G37*
G36*
X42600000Y98820000D02*
G01*
X43250000Y98820000D01*
X43250000Y99020000D01*
X42600000Y99020000D01*
X42600000Y98820000D01*
G37*
G36*
X42600000Y98420000D02*
G01*
X43250000Y98420000D01*
X43250000Y98620000D01*
X42600000Y98620000D01*
X42600000Y98420000D01*
G37*
G36*
X42600000Y98020000D02*
G01*
X43250000Y98020000D01*
X43250000Y98220000D01*
X42600000Y98220000D01*
X42600000Y98020000D01*
G37*
G36*
X42600000Y97620000D02*
G01*
X43250000Y97620000D01*
X43250000Y97820000D01*
X42600000Y97820000D01*
X42600000Y97620000D01*
G37*
G36*
X42600000Y97220000D02*
G01*
X43250000Y97220000D01*
X43250000Y97420000D01*
X42600000Y97420000D01*
X42600000Y97220000D01*
G37*
G36*
X42600000Y96820000D02*
G01*
X43250000Y96820000D01*
X43250000Y97020000D01*
X42600000Y97020000D01*
X42600000Y96820000D01*
G37*
G36*
X42600000Y96420000D02*
G01*
X43250000Y96420000D01*
X43250000Y96620000D01*
X42600000Y96620000D01*
X42600000Y96420000D01*
G37*
G36*
X42600000Y96020000D02*
G01*
X43250000Y96020000D01*
X43250000Y96220000D01*
X42600000Y96220000D01*
X42600000Y96020000D01*
G37*
G36*
X42600000Y95620000D02*
G01*
X43250000Y95620000D01*
X43250000Y95820000D01*
X42600000Y95820000D01*
X42600000Y95620000D01*
G37*
G36*
X42600000Y95220000D02*
G01*
X43250000Y95220000D01*
X43250000Y95420000D01*
X42600000Y95420000D01*
X42600000Y95220000D01*
G37*
G36*
X42600000Y94820000D02*
G01*
X43250000Y94820000D01*
X43250000Y95020000D01*
X42600000Y95020000D01*
X42600000Y94820000D01*
G37*
G36*
X42600000Y94420000D02*
G01*
X43250000Y94420000D01*
X43250000Y94620000D01*
X42600000Y94620000D01*
X42600000Y94420000D01*
G37*
G36*
X42600000Y94020000D02*
G01*
X43250000Y94020000D01*
X43250000Y94220000D01*
X42600000Y94220000D01*
X42600000Y94020000D01*
G37*
G36*
X42600000Y93620000D02*
G01*
X43250000Y93620000D01*
X43250000Y93820000D01*
X42600000Y93820000D01*
X42600000Y93620000D01*
G37*
G36*
X42600000Y93220000D02*
G01*
X43250000Y93220000D01*
X43250000Y93420000D01*
X42600000Y93420000D01*
X42600000Y93220000D01*
G37*
D10*
G36*
X34300000Y101695000D02*
G01*
X34100000Y101695000D01*
X34100000Y102345000D01*
X34300000Y102345000D01*
X34300000Y101695000D01*
G37*
G36*
X34300000Y91895000D02*
G01*
X34100000Y91895000D01*
X34100000Y92545000D01*
X34300000Y92545000D01*
X34300000Y91895000D01*
G37*
G36*
X34700000Y101695000D02*
G01*
X34500000Y101695000D01*
X34500000Y102345000D01*
X34700000Y102345000D01*
X34700000Y101695000D01*
G37*
G36*
X34700000Y91895000D02*
G01*
X34500000Y91895000D01*
X34500000Y92545000D01*
X34700000Y92545000D01*
X34700000Y91895000D01*
G37*
G36*
X35100000Y101695000D02*
G01*
X34900000Y101695000D01*
X34900000Y102345000D01*
X35100000Y102345000D01*
X35100000Y101695000D01*
G37*
G36*
X35100000Y91895000D02*
G01*
X34900000Y91895000D01*
X34900000Y92545000D01*
X35100000Y92545000D01*
X35100000Y91895000D01*
G37*
G36*
X35500000Y101695000D02*
G01*
X35300000Y101695000D01*
X35300000Y102345000D01*
X35500000Y102345000D01*
X35500000Y101695000D01*
G37*
G36*
X35500000Y91895000D02*
G01*
X35300000Y91895000D01*
X35300000Y92545000D01*
X35500000Y92545000D01*
X35500000Y91895000D01*
G37*
G36*
X35900000Y101695000D02*
G01*
X35700000Y101695000D01*
X35700000Y102345000D01*
X35900000Y102345000D01*
X35900000Y101695000D01*
G37*
G36*
X35900000Y91895000D02*
G01*
X35700000Y91895000D01*
X35700000Y92545000D01*
X35900000Y92545000D01*
X35900000Y91895000D01*
G37*
G36*
X36300000Y101695000D02*
G01*
X36100000Y101695000D01*
X36100000Y102345000D01*
X36300000Y102345000D01*
X36300000Y101695000D01*
G37*
G36*
X36300000Y91895000D02*
G01*
X36100000Y91895000D01*
X36100000Y92545000D01*
X36300000Y92545000D01*
X36300000Y91895000D01*
G37*
G36*
X36700000Y101695000D02*
G01*
X36500000Y101695000D01*
X36500000Y102345000D01*
X36700000Y102345000D01*
X36700000Y101695000D01*
G37*
G36*
X36700000Y91895000D02*
G01*
X36500000Y91895000D01*
X36500000Y92545000D01*
X36700000Y92545000D01*
X36700000Y91895000D01*
G37*
G36*
X37100000Y101695000D02*
G01*
X36900000Y101695000D01*
X36900000Y102345000D01*
X37100000Y102345000D01*
X37100000Y101695000D01*
G37*
G36*
X37100000Y91895000D02*
G01*
X36900000Y91895000D01*
X36900000Y92545000D01*
X37100000Y92545000D01*
X37100000Y91895000D01*
G37*
G36*
X37500000Y101695000D02*
G01*
X37300000Y101695000D01*
X37300000Y102345000D01*
X37500000Y102345000D01*
X37500000Y101695000D01*
G37*
G36*
X37500000Y91895000D02*
G01*
X37300000Y91895000D01*
X37300000Y92545000D01*
X37500000Y92545000D01*
X37500000Y91895000D01*
G37*
G36*
X37600000Y97520000D02*
G01*
X37000000Y97520000D01*
X37000000Y98120000D01*
X37600000Y98120000D01*
X37600000Y97520000D01*
G37*
G36*
X37600000Y96120000D02*
G01*
X37000000Y96120000D01*
X37000000Y96720000D01*
X37600000Y96720000D01*
X37600000Y96120000D01*
G37*
G36*
X37900000Y101695000D02*
G01*
X37700000Y101695000D01*
X37700000Y102345000D01*
X37900000Y102345000D01*
X37900000Y101695000D01*
G37*
G36*
X37900000Y91895000D02*
G01*
X37700000Y91895000D01*
X37700000Y92545000D01*
X37900000Y92545000D01*
X37900000Y91895000D01*
G37*
G36*
X38300000Y101695000D02*
G01*
X38100000Y101695000D01*
X38100000Y102345000D01*
X38300000Y102345000D01*
X38300000Y101695000D01*
G37*
G36*
X38300000Y91895000D02*
G01*
X38100000Y91895000D01*
X38100000Y92545000D01*
X38300000Y92545000D01*
X38300000Y91895000D01*
G37*
G36*
X38700000Y101695000D02*
G01*
X38500000Y101695000D01*
X38500000Y102345000D01*
X38700000Y102345000D01*
X38700000Y101695000D01*
G37*
G36*
X38700000Y91895000D02*
G01*
X38500000Y91895000D01*
X38500000Y92545000D01*
X38700000Y92545000D01*
X38700000Y91895000D01*
G37*
G36*
X39000000Y97520000D02*
G01*
X38400000Y97520000D01*
X38400000Y98120000D01*
X39000000Y98120000D01*
X39000000Y97520000D01*
G37*
G36*
X39000000Y96120000D02*
G01*
X38400000Y96120000D01*
X38400000Y96720000D01*
X39000000Y96720000D01*
X39000000Y96120000D01*
G37*
G36*
X39100000Y101695000D02*
G01*
X38900000Y101695000D01*
X38900000Y102345000D01*
X39100000Y102345000D01*
X39100000Y101695000D01*
G37*
G36*
X39100000Y91895000D02*
G01*
X38900000Y91895000D01*
X38900000Y92545000D01*
X39100000Y92545000D01*
X39100000Y91895000D01*
G37*
G36*
X39500000Y101695000D02*
G01*
X39300000Y101695000D01*
X39300000Y102345000D01*
X39500000Y102345000D01*
X39500000Y101695000D01*
G37*
G36*
X39500000Y91895000D02*
G01*
X39300000Y91895000D01*
X39300000Y92545000D01*
X39500000Y92545000D01*
X39500000Y91895000D01*
G37*
G36*
X39900000Y101695000D02*
G01*
X39700000Y101695000D01*
X39700000Y102345000D01*
X39900000Y102345000D01*
X39900000Y101695000D01*
G37*
G36*
X39900000Y91895000D02*
G01*
X39700000Y91895000D01*
X39700000Y92545000D01*
X39900000Y92545000D01*
X39900000Y91895000D01*
G37*
G36*
X40300000Y101695000D02*
G01*
X40100000Y101695000D01*
X40100000Y102345000D01*
X40300000Y102345000D01*
X40300000Y101695000D01*
G37*
G36*
X40300000Y91895000D02*
G01*
X40100000Y91895000D01*
X40100000Y92545000D01*
X40300000Y92545000D01*
X40300000Y91895000D01*
G37*
G36*
X40700000Y101695000D02*
G01*
X40500000Y101695000D01*
X40500000Y102345000D01*
X40700000Y102345000D01*
X40700000Y101695000D01*
G37*
G36*
X40700000Y91895000D02*
G01*
X40500000Y91895000D01*
X40500000Y92545000D01*
X40700000Y92545000D01*
X40700000Y91895000D01*
G37*
G36*
X41100000Y101695000D02*
G01*
X40900000Y101695000D01*
X40900000Y102345000D01*
X41100000Y102345000D01*
X41100000Y101695000D01*
G37*
G36*
X41100000Y91895000D02*
G01*
X40900000Y91895000D01*
X40900000Y92545000D01*
X41100000Y92545000D01*
X41100000Y91895000D01*
G37*
G36*
X41500000Y101695000D02*
G01*
X41300000Y101695000D01*
X41300000Y102345000D01*
X41500000Y102345000D01*
X41500000Y101695000D01*
G37*
G36*
X41500000Y91895000D02*
G01*
X41300000Y91895000D01*
X41300000Y92545000D01*
X41500000Y92545000D01*
X41500000Y91895000D01*
G37*
G36*
X41900000Y101695000D02*
G01*
X41700000Y101695000D01*
X41700000Y102345000D01*
X41900000Y102345000D01*
X41900000Y101695000D01*
G37*
G36*
X41900000Y91895000D02*
G01*
X41700000Y91895000D01*
X41700000Y92545000D01*
X41900000Y92545000D01*
X41900000Y91895000D01*
G37*
%TO.C,U3*%
G36*
X26500000Y93520000D02*
G01*
X25700000Y93520000D01*
X25700000Y94320000D01*
X26500000Y94320000D01*
X26500000Y93520000D01*
G37*
%TO.C,J2*%
G36*
X50310000Y64790000D02*
G01*
X51310000Y64790000D01*
X51310000Y66790000D01*
X50310000Y66790000D01*
X50310000Y64790000D01*
G37*
G36*
X50310000Y61590000D02*
G01*
X51310000Y61590000D01*
X51310000Y63590000D01*
X50310000Y63590000D01*
X50310000Y61590000D01*
G37*
G36*
X52850000Y64790000D02*
G01*
X53850000Y64790000D01*
X53850000Y66790000D01*
X52850000Y66790000D01*
X52850000Y64790000D01*
G37*
G36*
X52850000Y61590000D02*
G01*
X53850000Y61590000D01*
X53850000Y63590000D01*
X52850000Y63590000D01*
X52850000Y61590000D01*
G37*
G36*
X55390000Y64790000D02*
G01*
X56390000Y64790000D01*
X56390000Y66790000D01*
X55390000Y66790000D01*
X55390000Y64790000D01*
G37*
G36*
X55390000Y61590000D02*
G01*
X56390000Y61590000D01*
X56390000Y63590000D01*
X55390000Y63590000D01*
X55390000Y61590000D01*
G37*
G36*
X57930000Y64790000D02*
G01*
X58930000Y64790000D01*
X58930000Y66790000D01*
X57930000Y66790000D01*
X57930000Y64790000D01*
G37*
G36*
X57930000Y61590000D02*
G01*
X58930000Y61590000D01*
X58930000Y63590000D01*
X57930000Y63590000D01*
X57930000Y61590000D01*
G37*
G36*
X60470000Y64790000D02*
G01*
X61470000Y64790000D01*
X61470000Y66790000D01*
X60470000Y66790000D01*
X60470000Y64790000D01*
G37*
G36*
X60470000Y61590000D02*
G01*
X61470000Y61590000D01*
X61470000Y63590000D01*
X60470000Y63590000D01*
X60470000Y61590000D01*
G37*
G36*
X63010000Y64790000D02*
G01*
X64010000Y64790000D01*
X64010000Y66790000D01*
X63010000Y66790000D01*
X63010000Y64790000D01*
G37*
G36*
X63010000Y61590000D02*
G01*
X64010000Y61590000D01*
X64010000Y63590000D01*
X63010000Y63590000D01*
X63010000Y61590000D01*
G37*
%TO.C,U8*%
G36*
X13300000Y69245000D02*
G01*
X12662500Y69245000D01*
X12662500Y69495000D01*
X13300000Y69495000D01*
X13300000Y69245000D01*
G37*
G36*
X13300000Y68745000D02*
G01*
X12662500Y68745000D01*
X12662500Y68995000D01*
X13300000Y68995000D01*
X13300000Y68745000D01*
G37*
G36*
X13300000Y68245000D02*
G01*
X12662500Y68245000D01*
X12662500Y68495000D01*
X13300000Y68495000D01*
X13300000Y68245000D01*
G37*
G36*
X13300000Y67745000D02*
G01*
X12662500Y67745000D01*
X12662500Y67995000D01*
X13300000Y67995000D01*
X13300000Y67745000D01*
G37*
G36*
X14320000Y68710000D02*
G01*
X13680000Y68710000D01*
X13680000Y69210000D01*
X14320000Y69210000D01*
X14320000Y68710000D01*
G37*
G36*
X14320000Y68030000D02*
G01*
X13680000Y68030000D01*
X13680000Y68530000D01*
X14320000Y68530000D01*
X14320000Y68030000D01*
G37*
G36*
X15337500Y69245000D02*
G01*
X14700000Y69245000D01*
X14700000Y69495000D01*
X15337500Y69495000D01*
X15337500Y69245000D01*
G37*
G36*
X15337500Y68745000D02*
G01*
X14700000Y68745000D01*
X14700000Y68995000D01*
X15337500Y68995000D01*
X15337500Y68745000D01*
G37*
G36*
X15337500Y68245000D02*
G01*
X14700000Y68245000D01*
X14700000Y68495000D01*
X15337500Y68495000D01*
X15337500Y68245000D01*
G37*
G36*
X15337500Y67745000D02*
G01*
X14700000Y67745000D01*
X14700000Y67995000D01*
X15337500Y67995000D01*
X15337500Y67745000D01*
G37*
%TO.C,J1*%
G36*
X27450000Y64790000D02*
G01*
X28450000Y64790000D01*
X28450000Y66790000D01*
X27450000Y66790000D01*
X27450000Y64790000D01*
G37*
G36*
X27450000Y61590000D02*
G01*
X28450000Y61590000D01*
X28450000Y63590000D01*
X27450000Y63590000D01*
X27450000Y61590000D01*
G37*
G36*
X29990000Y64790000D02*
G01*
X30990000Y64790000D01*
X30990000Y66790000D01*
X29990000Y66790000D01*
X29990000Y64790000D01*
G37*
G36*
X29990000Y61590000D02*
G01*
X30990000Y61590000D01*
X30990000Y63590000D01*
X29990000Y63590000D01*
X29990000Y61590000D01*
G37*
G36*
X32530000Y64790000D02*
G01*
X33530000Y64790000D01*
X33530000Y66790000D01*
X32530000Y66790000D01*
X32530000Y64790000D01*
G37*
G36*
X32530000Y61590000D02*
G01*
X33530000Y61590000D01*
X33530000Y63590000D01*
X32530000Y63590000D01*
X32530000Y61590000D01*
G37*
G36*
X35070000Y64790000D02*
G01*
X36070000Y64790000D01*
X36070000Y66790000D01*
X35070000Y66790000D01*
X35070000Y64790000D01*
G37*
G36*
X35070000Y61590000D02*
G01*
X36070000Y61590000D01*
X36070000Y63590000D01*
X35070000Y63590000D01*
X35070000Y61590000D01*
G37*
G36*
X37610000Y64790000D02*
G01*
X38610000Y64790000D01*
X38610000Y66790000D01*
X37610000Y66790000D01*
X37610000Y64790000D01*
G37*
G36*
X37610000Y61590000D02*
G01*
X38610000Y61590000D01*
X38610000Y63590000D01*
X37610000Y63590000D01*
X37610000Y61590000D01*
G37*
G36*
X40150000Y64790000D02*
G01*
X41150000Y64790000D01*
X41150000Y66790000D01*
X40150000Y66790000D01*
X40150000Y64790000D01*
G37*
G36*
X40150000Y61590000D02*
G01*
X41150000Y61590000D01*
X41150000Y63590000D01*
X40150000Y63590000D01*
X40150000Y61590000D01*
G37*
G36*
X42690000Y64790000D02*
G01*
X43690000Y64790000D01*
X43690000Y66790000D01*
X42690000Y66790000D01*
X42690000Y64790000D01*
G37*
G36*
X42690000Y61590000D02*
G01*
X43690000Y61590000D01*
X43690000Y63590000D01*
X42690000Y63590000D01*
X42690000Y61590000D01*
G37*
G36*
X45230000Y64790000D02*
G01*
X46230000Y64790000D01*
X46230000Y66790000D01*
X45230000Y66790000D01*
X45230000Y64790000D01*
G37*
G36*
X45230000Y61590000D02*
G01*
X46230000Y61590000D01*
X46230000Y63590000D01*
X45230000Y63590000D01*
X45230000Y61590000D01*
G37*
%TO.C,U4*%
G36*
X20750000Y95120000D02*
G01*
X20550000Y95120000D01*
X20550000Y95420000D01*
X20750000Y95420000D01*
X20750000Y95120000D01*
G37*
G36*
X20750000Y92620000D02*
G01*
X20550000Y92620000D01*
X20550000Y92920000D01*
X20750000Y92920000D01*
X20750000Y92620000D01*
G37*
G36*
X21250000Y95120000D02*
G01*
X21050000Y95120000D01*
X21050000Y95420000D01*
X21250000Y95420000D01*
X21250000Y95120000D01*
G37*
G36*
X21250000Y92620000D02*
G01*
X21050000Y92620000D01*
X21050000Y92920000D01*
X21250000Y92920000D01*
X21250000Y92620000D01*
G37*
G36*
X21750000Y95120000D02*
G01*
X21550000Y95120000D01*
X21550000Y95420000D01*
X21750000Y95420000D01*
X21750000Y95120000D01*
G37*
G36*
X21750000Y92620000D02*
G01*
X21550000Y92620000D01*
X21550000Y92920000D01*
X21750000Y92920000D01*
X21750000Y92620000D01*
G37*
G36*
X22000000Y93920000D02*
G01*
X20800000Y93920000D01*
X20800000Y94120000D01*
X22000000Y94120000D01*
X22000000Y93920000D01*
G37*
G36*
X22250000Y95120000D02*
G01*
X22050000Y95120000D01*
X22050000Y95420000D01*
X22250000Y95420000D01*
X22250000Y95120000D01*
G37*
G36*
X22250000Y92620000D02*
G01*
X22050000Y92620000D01*
X22050000Y92920000D01*
X22250000Y92920000D01*
X22250000Y92620000D01*
G37*
G36*
X20750000Y36000000D02*
G01*
X20550000Y36000000D01*
X20550000Y36300000D01*
X20750000Y36300000D01*
X20750000Y36000000D01*
G37*
G36*
X20750000Y33500000D02*
G01*
X20550000Y33500000D01*
X20550000Y33800000D01*
X20750000Y33800000D01*
X20750000Y33500000D01*
G37*
G36*
X21250000Y36000000D02*
G01*
X21050000Y36000000D01*
X21050000Y36300000D01*
X21250000Y36300000D01*
X21250000Y36000000D01*
G37*
G36*
X21250000Y33500000D02*
G01*
X21050000Y33500000D01*
X21050000Y33800000D01*
X21250000Y33800000D01*
X21250000Y33500000D01*
G37*
G36*
X21750000Y36000000D02*
G01*
X21550000Y36000000D01*
X21550000Y36300000D01*
X21750000Y36300000D01*
X21750000Y36000000D01*
G37*
G36*
X21750000Y33500000D02*
G01*
X21550000Y33500000D01*
X21550000Y33800000D01*
X21750000Y33800000D01*
X21750000Y33500000D01*
G37*
G36*
X22000000Y34800000D02*
G01*
X20800000Y34800000D01*
X20800000Y35000000D01*
X22000000Y35000000D01*
X22000000Y34800000D01*
G37*
G36*
X22250000Y36000000D02*
G01*
X22050000Y36000000D01*
X22050000Y36300000D01*
X22250000Y36300000D01*
X22250000Y36000000D01*
G37*
G36*
X22250000Y33500000D02*
G01*
X22050000Y33500000D01*
X22050000Y33800000D01*
X22250000Y33800000D01*
X22250000Y33500000D01*
G37*
%TO.C,J1*%
G36*
X27450000Y5670000D02*
G01*
X28450000Y5670000D01*
X28450000Y7670000D01*
X27450000Y7670000D01*
X27450000Y5670000D01*
G37*
G36*
X27450000Y2470000D02*
G01*
X28450000Y2470000D01*
X28450000Y4470000D01*
X27450000Y4470000D01*
X27450000Y2470000D01*
G37*
G36*
X29990000Y5670000D02*
G01*
X30990000Y5670000D01*
X30990000Y7670000D01*
X29990000Y7670000D01*
X29990000Y5670000D01*
G37*
G36*
X29990000Y2470000D02*
G01*
X30990000Y2470000D01*
X30990000Y4470000D01*
X29990000Y4470000D01*
X29990000Y2470000D01*
G37*
G36*
X32530000Y5670000D02*
G01*
X33530000Y5670000D01*
X33530000Y7670000D01*
X32530000Y7670000D01*
X32530000Y5670000D01*
G37*
G36*
X32530000Y2470000D02*
G01*
X33530000Y2470000D01*
X33530000Y4470000D01*
X32530000Y4470000D01*
X32530000Y2470000D01*
G37*
G36*
X35070000Y5670000D02*
G01*
X36070000Y5670000D01*
X36070000Y7670000D01*
X35070000Y7670000D01*
X35070000Y5670000D01*
G37*
G36*
X35070000Y2470000D02*
G01*
X36070000Y2470000D01*
X36070000Y4470000D01*
X35070000Y4470000D01*
X35070000Y2470000D01*
G37*
G36*
X37610000Y5670000D02*
G01*
X38610000Y5670000D01*
X38610000Y7670000D01*
X37610000Y7670000D01*
X37610000Y5670000D01*
G37*
G36*
X37610000Y2470000D02*
G01*
X38610000Y2470000D01*
X38610000Y4470000D01*
X37610000Y4470000D01*
X37610000Y2470000D01*
G37*
G36*
X40150000Y5670000D02*
G01*
X41150000Y5670000D01*
X41150000Y7670000D01*
X40150000Y7670000D01*
X40150000Y5670000D01*
G37*
G36*
X40150000Y2470000D02*
G01*
X41150000Y2470000D01*
X41150000Y4470000D01*
X40150000Y4470000D01*
X40150000Y2470000D01*
G37*
G36*
X42690000Y5670000D02*
G01*
X43690000Y5670000D01*
X43690000Y7670000D01*
X42690000Y7670000D01*
X42690000Y5670000D01*
G37*
G36*
X42690000Y2470000D02*
G01*
X43690000Y2470000D01*
X43690000Y4470000D01*
X42690000Y4470000D01*
X42690000Y2470000D01*
G37*
G36*
X45230000Y5670000D02*
G01*
X46230000Y5670000D01*
X46230000Y7670000D01*
X45230000Y7670000D01*
X45230000Y5670000D01*
G37*
G36*
X45230000Y2470000D02*
G01*
X46230000Y2470000D01*
X46230000Y4470000D01*
X45230000Y4470000D01*
X45230000Y2470000D01*
G37*
%TO.C,U8*%
G36*
X13300000Y10125000D02*
G01*
X12662500Y10125000D01*
X12662500Y10375000D01*
X13300000Y10375000D01*
X13300000Y10125000D01*
G37*
G36*
X13300000Y9625000D02*
G01*
X12662500Y9625000D01*
X12662500Y9875000D01*
X13300000Y9875000D01*
X13300000Y9625000D01*
G37*
G36*
X13300000Y9125000D02*
G01*
X12662500Y9125000D01*
X12662500Y9375000D01*
X13300000Y9375000D01*
X13300000Y9125000D01*
G37*
G36*
X13300000Y8625000D02*
G01*
X12662500Y8625000D01*
X12662500Y8875000D01*
X13300000Y8875000D01*
X13300000Y8625000D01*
G37*
G36*
X14320000Y9590000D02*
G01*
X13680000Y9590000D01*
X13680000Y10090000D01*
X14320000Y10090000D01*
X14320000Y9590000D01*
G37*
G36*
X14320000Y8910000D02*
G01*
X13680000Y8910000D01*
X13680000Y9410000D01*
X14320000Y9410000D01*
X14320000Y8910000D01*
G37*
G36*
X15337500Y10125000D02*
G01*
X14700000Y10125000D01*
X14700000Y10375000D01*
X15337500Y10375000D01*
X15337500Y10125000D01*
G37*
G36*
X15337500Y9625000D02*
G01*
X14700000Y9625000D01*
X14700000Y9875000D01*
X15337500Y9875000D01*
X15337500Y9625000D01*
G37*
G36*
X15337500Y9125000D02*
G01*
X14700000Y9125000D01*
X14700000Y9375000D01*
X15337500Y9375000D01*
X15337500Y9125000D01*
G37*
G36*
X15337500Y8625000D02*
G01*
X14700000Y8625000D01*
X14700000Y8875000D01*
X15337500Y8875000D01*
X15337500Y8625000D01*
G37*
%TO.C,J2*%
G36*
X50310000Y5670000D02*
G01*
X51310000Y5670000D01*
X51310000Y7670000D01*
X50310000Y7670000D01*
X50310000Y5670000D01*
G37*
G36*
X50310000Y2470000D02*
G01*
X51310000Y2470000D01*
X51310000Y4470000D01*
X50310000Y4470000D01*
X50310000Y2470000D01*
G37*
G36*
X52850000Y5670000D02*
G01*
X53850000Y5670000D01*
X53850000Y7670000D01*
X52850000Y7670000D01*
X52850000Y5670000D01*
G37*
G36*
X52850000Y2470000D02*
G01*
X53850000Y2470000D01*
X53850000Y4470000D01*
X52850000Y4470000D01*
X52850000Y2470000D01*
G37*
G36*
X55390000Y5670000D02*
G01*
X56390000Y5670000D01*
X56390000Y7670000D01*
X55390000Y7670000D01*
X55390000Y5670000D01*
G37*
G36*
X55390000Y2470000D02*
G01*
X56390000Y2470000D01*
X56390000Y4470000D01*
X55390000Y4470000D01*
X55390000Y2470000D01*
G37*
G36*
X57930000Y5670000D02*
G01*
X58930000Y5670000D01*
X58930000Y7670000D01*
X57930000Y7670000D01*
X57930000Y5670000D01*
G37*
G36*
X57930000Y2470000D02*
G01*
X58930000Y2470000D01*
X58930000Y4470000D01*
X57930000Y4470000D01*
X57930000Y2470000D01*
G37*
G36*
X60470000Y5670000D02*
G01*
X61470000Y5670000D01*
X61470000Y7670000D01*
X60470000Y7670000D01*
X60470000Y5670000D01*
G37*
G36*
X60470000Y2470000D02*
G01*
X61470000Y2470000D01*
X61470000Y4470000D01*
X60470000Y4470000D01*
X60470000Y2470000D01*
G37*
G36*
X63010000Y5670000D02*
G01*
X64010000Y5670000D01*
X64010000Y7670000D01*
X63010000Y7670000D01*
X63010000Y5670000D01*
G37*
G36*
X63010000Y2470000D02*
G01*
X64010000Y2470000D01*
X64010000Y4470000D01*
X63010000Y4470000D01*
X63010000Y2470000D01*
G37*
%TO.C,U3*%
G36*
X26500000Y34400000D02*
G01*
X25700000Y34400000D01*
X25700000Y35200000D01*
X26500000Y35200000D01*
X26500000Y34400000D01*
G37*
%TO.C,U1*%
G36*
X32775000Y41700000D02*
G01*
X33425000Y41700000D01*
X33425000Y41900000D01*
X32775000Y41900000D01*
X32775000Y41700000D01*
G37*
G36*
X32775000Y41300000D02*
G01*
X33425000Y41300000D01*
X33425000Y41500000D01*
X32775000Y41500000D01*
X32775000Y41300000D01*
G37*
G36*
X32775000Y40900000D02*
G01*
X33425000Y40900000D01*
X33425000Y41100000D01*
X32775000Y41100000D01*
X32775000Y40900000D01*
G37*
G36*
X32775000Y40500000D02*
G01*
X33425000Y40500000D01*
X33425000Y40700000D01*
X32775000Y40700000D01*
X32775000Y40500000D01*
G37*
G36*
X32775000Y40100000D02*
G01*
X33425000Y40100000D01*
X33425000Y40300000D01*
X32775000Y40300000D01*
X32775000Y40100000D01*
G37*
G36*
X32775000Y39700000D02*
G01*
X33425000Y39700000D01*
X33425000Y39900000D01*
X32775000Y39900000D01*
X32775000Y39700000D01*
G37*
G36*
X32775000Y39300000D02*
G01*
X33425000Y39300000D01*
X33425000Y39500000D01*
X32775000Y39500000D01*
X32775000Y39300000D01*
G37*
G36*
X32775000Y38900000D02*
G01*
X33425000Y38900000D01*
X33425000Y39100000D01*
X32775000Y39100000D01*
X32775000Y38900000D01*
G37*
G36*
X32775000Y38500000D02*
G01*
X33425000Y38500000D01*
X33425000Y38700000D01*
X32775000Y38700000D01*
X32775000Y38500000D01*
G37*
G36*
X32775000Y38100000D02*
G01*
X33425000Y38100000D01*
X33425000Y38300000D01*
X32775000Y38300000D01*
X32775000Y38100000D01*
G37*
G36*
X32775000Y37700000D02*
G01*
X33425000Y37700000D01*
X33425000Y37900000D01*
X32775000Y37900000D01*
X32775000Y37700000D01*
G37*
G36*
X32775000Y37300000D02*
G01*
X33425000Y37300000D01*
X33425000Y37500000D01*
X32775000Y37500000D01*
X32775000Y37300000D01*
G37*
G36*
X32775000Y36900000D02*
G01*
X33425000Y36900000D01*
X33425000Y37100000D01*
X32775000Y37100000D01*
X32775000Y36900000D01*
G37*
G36*
X32775000Y36500000D02*
G01*
X33425000Y36500000D01*
X33425000Y36700000D01*
X32775000Y36700000D01*
X32775000Y36500000D01*
G37*
G36*
X32775000Y36100000D02*
G01*
X33425000Y36100000D01*
X33425000Y36300000D01*
X32775000Y36300000D01*
X32775000Y36100000D01*
G37*
G36*
X32775000Y35700000D02*
G01*
X33425000Y35700000D01*
X33425000Y35900000D01*
X32775000Y35900000D01*
X32775000Y35700000D01*
G37*
G36*
X32775000Y35300000D02*
G01*
X33425000Y35300000D01*
X33425000Y35500000D01*
X32775000Y35500000D01*
X32775000Y35300000D01*
G37*
G36*
X32775000Y34900000D02*
G01*
X33425000Y34900000D01*
X33425000Y35100000D01*
X32775000Y35100000D01*
X32775000Y34900000D01*
G37*
G36*
X32775000Y34500000D02*
G01*
X33425000Y34500000D01*
X33425000Y34700000D01*
X32775000Y34700000D01*
X32775000Y34500000D01*
G37*
G36*
X32775000Y34100000D02*
G01*
X33425000Y34100000D01*
X33425000Y34300000D01*
X32775000Y34300000D01*
X32775000Y34100000D01*
G37*
G36*
X42600000Y41700000D02*
G01*
X43250000Y41700000D01*
X43250000Y41900000D01*
X42600000Y41900000D01*
X42600000Y41700000D01*
G37*
G36*
X42600000Y41300000D02*
G01*
X43250000Y41300000D01*
X43250000Y41500000D01*
X42600000Y41500000D01*
X42600000Y41300000D01*
G37*
G36*
X42600000Y40900000D02*
G01*
X43250000Y40900000D01*
X43250000Y41100000D01*
X42600000Y41100000D01*
X42600000Y40900000D01*
G37*
G36*
X42600000Y40500000D02*
G01*
X43250000Y40500000D01*
X43250000Y40700000D01*
X42600000Y40700000D01*
X42600000Y40500000D01*
G37*
G36*
X42600000Y40100000D02*
G01*
X43250000Y40100000D01*
X43250000Y40300000D01*
X42600000Y40300000D01*
X42600000Y40100000D01*
G37*
G36*
X42600000Y39700000D02*
G01*
X43250000Y39700000D01*
X43250000Y39900000D01*
X42600000Y39900000D01*
X42600000Y39700000D01*
G37*
G36*
X42600000Y39300000D02*
G01*
X43250000Y39300000D01*
X43250000Y39500000D01*
X42600000Y39500000D01*
X42600000Y39300000D01*
G37*
G36*
X42600000Y38900000D02*
G01*
X43250000Y38900000D01*
X43250000Y39100000D01*
X42600000Y39100000D01*
X42600000Y38900000D01*
G37*
G36*
X42600000Y38500000D02*
G01*
X43250000Y38500000D01*
X43250000Y38700000D01*
X42600000Y38700000D01*
X42600000Y38500000D01*
G37*
G36*
X42600000Y38100000D02*
G01*
X43250000Y38100000D01*
X43250000Y38300000D01*
X42600000Y38300000D01*
X42600000Y38100000D01*
G37*
G36*
X42600000Y37700000D02*
G01*
X43250000Y37700000D01*
X43250000Y37900000D01*
X42600000Y37900000D01*
X42600000Y37700000D01*
G37*
G36*
X42600000Y37300000D02*
G01*
X43250000Y37300000D01*
X43250000Y37500000D01*
X42600000Y37500000D01*
X42600000Y37300000D01*
G37*
G36*
X42600000Y36900000D02*
G01*
X43250000Y36900000D01*
X43250000Y37100000D01*
X42600000Y37100000D01*
X42600000Y36900000D01*
G37*
G36*
X42600000Y36500000D02*
G01*
X43250000Y36500000D01*
X43250000Y36700000D01*
X42600000Y36700000D01*
X42600000Y36500000D01*
G37*
G36*
X42600000Y36100000D02*
G01*
X43250000Y36100000D01*
X43250000Y36300000D01*
X42600000Y36300000D01*
X42600000Y36100000D01*
G37*
G36*
X42600000Y35700000D02*
G01*
X43250000Y35700000D01*
X43250000Y35900000D01*
X42600000Y35900000D01*
X42600000Y35700000D01*
G37*
G36*
X42600000Y35300000D02*
G01*
X43250000Y35300000D01*
X43250000Y35500000D01*
X42600000Y35500000D01*
X42600000Y35300000D01*
G37*
G36*
X42600000Y34900000D02*
G01*
X43250000Y34900000D01*
X43250000Y35100000D01*
X42600000Y35100000D01*
X42600000Y34900000D01*
G37*
G36*
X42600000Y34500000D02*
G01*
X43250000Y34500000D01*
X43250000Y34700000D01*
X42600000Y34700000D01*
X42600000Y34500000D01*
G37*
G36*
X42600000Y34100000D02*
G01*
X43250000Y34100000D01*
X43250000Y34300000D01*
X42600000Y34300000D01*
X42600000Y34100000D01*
G37*
G36*
X34300000Y42575000D02*
G01*
X34100000Y42575000D01*
X34100000Y43225000D01*
X34300000Y43225000D01*
X34300000Y42575000D01*
G37*
G36*
X34300000Y32775000D02*
G01*
X34100000Y32775000D01*
X34100000Y33425000D01*
X34300000Y33425000D01*
X34300000Y32775000D01*
G37*
G36*
X34700000Y42575000D02*
G01*
X34500000Y42575000D01*
X34500000Y43225000D01*
X34700000Y43225000D01*
X34700000Y42575000D01*
G37*
G36*
X34700000Y32775000D02*
G01*
X34500000Y32775000D01*
X34500000Y33425000D01*
X34700000Y33425000D01*
X34700000Y32775000D01*
G37*
G36*
X35100000Y42575000D02*
G01*
X34900000Y42575000D01*
X34900000Y43225000D01*
X35100000Y43225000D01*
X35100000Y42575000D01*
G37*
G36*
X35100000Y32775000D02*
G01*
X34900000Y32775000D01*
X34900000Y33425000D01*
X35100000Y33425000D01*
X35100000Y32775000D01*
G37*
G36*
X35500000Y42575000D02*
G01*
X35300000Y42575000D01*
X35300000Y43225000D01*
X35500000Y43225000D01*
X35500000Y42575000D01*
G37*
G36*
X35500000Y32775000D02*
G01*
X35300000Y32775000D01*
X35300000Y33425000D01*
X35500000Y33425000D01*
X35500000Y32775000D01*
G37*
G36*
X35900000Y42575000D02*
G01*
X35700000Y42575000D01*
X35700000Y43225000D01*
X35900000Y43225000D01*
X35900000Y42575000D01*
G37*
G36*
X35900000Y32775000D02*
G01*
X35700000Y32775000D01*
X35700000Y33425000D01*
X35900000Y33425000D01*
X35900000Y32775000D01*
G37*
G36*
X36300000Y42575000D02*
G01*
X36100000Y42575000D01*
X36100000Y43225000D01*
X36300000Y43225000D01*
X36300000Y42575000D01*
G37*
G36*
X36300000Y32775000D02*
G01*
X36100000Y32775000D01*
X36100000Y33425000D01*
X36300000Y33425000D01*
X36300000Y32775000D01*
G37*
G36*
X36700000Y42575000D02*
G01*
X36500000Y42575000D01*
X36500000Y43225000D01*
X36700000Y43225000D01*
X36700000Y42575000D01*
G37*
G36*
X36700000Y32775000D02*
G01*
X36500000Y32775000D01*
X36500000Y33425000D01*
X36700000Y33425000D01*
X36700000Y32775000D01*
G37*
G36*
X37100000Y42575000D02*
G01*
X36900000Y42575000D01*
X36900000Y43225000D01*
X37100000Y43225000D01*
X37100000Y42575000D01*
G37*
G36*
X37100000Y32775000D02*
G01*
X36900000Y32775000D01*
X36900000Y33425000D01*
X37100000Y33425000D01*
X37100000Y32775000D01*
G37*
G36*
X37500000Y42575000D02*
G01*
X37300000Y42575000D01*
X37300000Y43225000D01*
X37500000Y43225000D01*
X37500000Y42575000D01*
G37*
G36*
X37500000Y32775000D02*
G01*
X37300000Y32775000D01*
X37300000Y33425000D01*
X37500000Y33425000D01*
X37500000Y32775000D01*
G37*
G36*
X37600000Y38400000D02*
G01*
X37000000Y38400000D01*
X37000000Y39000000D01*
X37600000Y39000000D01*
X37600000Y38400000D01*
G37*
G36*
X37600000Y37000000D02*
G01*
X37000000Y37000000D01*
X37000000Y37600000D01*
X37600000Y37600000D01*
X37600000Y37000000D01*
G37*
G36*
X37900000Y42575000D02*
G01*
X37700000Y42575000D01*
X37700000Y43225000D01*
X37900000Y43225000D01*
X37900000Y42575000D01*
G37*
G36*
X37900000Y32775000D02*
G01*
X37700000Y32775000D01*
X37700000Y33425000D01*
X37900000Y33425000D01*
X37900000Y32775000D01*
G37*
G36*
X38300000Y42575000D02*
G01*
X38100000Y42575000D01*
X38100000Y43225000D01*
X38300000Y43225000D01*
X38300000Y42575000D01*
G37*
G36*
X38300000Y32775000D02*
G01*
X38100000Y32775000D01*
X38100000Y33425000D01*
X38300000Y33425000D01*
X38300000Y32775000D01*
G37*
G36*
X38700000Y42575000D02*
G01*
X38500000Y42575000D01*
X38500000Y43225000D01*
X38700000Y43225000D01*
X38700000Y42575000D01*
G37*
G36*
X38700000Y32775000D02*
G01*
X38500000Y32775000D01*
X38500000Y33425000D01*
X38700000Y33425000D01*
X38700000Y32775000D01*
G37*
G36*
X39000000Y38400000D02*
G01*
X38400000Y38400000D01*
X38400000Y39000000D01*
X39000000Y39000000D01*
X39000000Y38400000D01*
G37*
G36*
X39000000Y37000000D02*
G01*
X38400000Y37000000D01*
X38400000Y37600000D01*
X39000000Y37600000D01*
X39000000Y37000000D01*
G37*
G36*
X39100000Y42575000D02*
G01*
X38900000Y42575000D01*
X38900000Y43225000D01*
X39100000Y43225000D01*
X39100000Y42575000D01*
G37*
G36*
X39100000Y32775000D02*
G01*
X38900000Y32775000D01*
X38900000Y33425000D01*
X39100000Y33425000D01*
X39100000Y32775000D01*
G37*
G36*
X39500000Y42575000D02*
G01*
X39300000Y42575000D01*
X39300000Y43225000D01*
X39500000Y43225000D01*
X39500000Y42575000D01*
G37*
G36*
X39500000Y32775000D02*
G01*
X39300000Y32775000D01*
X39300000Y33425000D01*
X39500000Y33425000D01*
X39500000Y32775000D01*
G37*
G36*
X39900000Y42575000D02*
G01*
X39700000Y42575000D01*
X39700000Y43225000D01*
X39900000Y43225000D01*
X39900000Y42575000D01*
G37*
G36*
X39900000Y32775000D02*
G01*
X39700000Y32775000D01*
X39700000Y33425000D01*
X39900000Y33425000D01*
X39900000Y32775000D01*
G37*
G36*
X40300000Y42575000D02*
G01*
X40100000Y42575000D01*
X40100000Y43225000D01*
X40300000Y43225000D01*
X40300000Y42575000D01*
G37*
G36*
X40300000Y32775000D02*
G01*
X40100000Y32775000D01*
X40100000Y33425000D01*
X40300000Y33425000D01*
X40300000Y32775000D01*
G37*
G36*
X40700000Y42575000D02*
G01*
X40500000Y42575000D01*
X40500000Y43225000D01*
X40700000Y43225000D01*
X40700000Y42575000D01*
G37*
G36*
X40700000Y32775000D02*
G01*
X40500000Y32775000D01*
X40500000Y33425000D01*
X40700000Y33425000D01*
X40700000Y32775000D01*
G37*
G36*
X41100000Y42575000D02*
G01*
X40900000Y42575000D01*
X40900000Y43225000D01*
X41100000Y43225000D01*
X41100000Y42575000D01*
G37*
G36*
X41100000Y32775000D02*
G01*
X40900000Y32775000D01*
X40900000Y33425000D01*
X41100000Y33425000D01*
X41100000Y32775000D01*
G37*
G36*
X41500000Y42575000D02*
G01*
X41300000Y42575000D01*
X41300000Y43225000D01*
X41500000Y43225000D01*
X41500000Y42575000D01*
G37*
G36*
X41500000Y32775000D02*
G01*
X41300000Y32775000D01*
X41300000Y33425000D01*
X41500000Y33425000D01*
X41500000Y32775000D01*
G37*
G36*
X41900000Y42575000D02*
G01*
X41700000Y42575000D01*
X41700000Y43225000D01*
X41900000Y43225000D01*
X41900000Y42575000D01*
G37*
G36*
X41900000Y32775000D02*
G01*
X41700000Y32775000D01*
X41700000Y33425000D01*
X41900000Y33425000D01*
X41900000Y32775000D01*
G37*
%TO.C,J8*%
G36*
X18306000Y53940000D02*
G01*
X19306000Y53940000D01*
X19306000Y55940000D01*
X18306000Y55940000D01*
X18306000Y53940000D01*
G37*
G36*
X18306000Y50740000D02*
G01*
X19306000Y50740000D01*
X19306000Y52740000D01*
X18306000Y52740000D01*
X18306000Y50740000D01*
G37*
G36*
X20846000Y53940000D02*
G01*
X21846000Y53940000D01*
X21846000Y55940000D01*
X20846000Y55940000D01*
X20846000Y53940000D01*
G37*
G36*
X20846000Y50740000D02*
G01*
X21846000Y50740000D01*
X21846000Y52740000D01*
X20846000Y52740000D01*
X20846000Y50740000D01*
G37*
G36*
X23386000Y53940000D02*
G01*
X24386000Y53940000D01*
X24386000Y55940000D01*
X23386000Y55940000D01*
X23386000Y53940000D01*
G37*
G36*
X23386000Y50740000D02*
G01*
X24386000Y50740000D01*
X24386000Y52740000D01*
X23386000Y52740000D01*
X23386000Y50740000D01*
G37*
G36*
X25926000Y53940000D02*
G01*
X26926000Y53940000D01*
X26926000Y55940000D01*
X25926000Y55940000D01*
X25926000Y53940000D01*
G37*
G36*
X25926000Y50740000D02*
G01*
X26926000Y50740000D01*
X26926000Y52740000D01*
X25926000Y52740000D01*
X25926000Y50740000D01*
G37*
G36*
X28466000Y53940000D02*
G01*
X29466000Y53940000D01*
X29466000Y55940000D01*
X28466000Y55940000D01*
X28466000Y53940000D01*
G37*
G36*
X28466000Y50740000D02*
G01*
X29466000Y50740000D01*
X29466000Y52740000D01*
X28466000Y52740000D01*
X28466000Y50740000D01*
G37*
G36*
X31006000Y53940000D02*
G01*
X32006000Y53940000D01*
X32006000Y55940000D01*
X31006000Y55940000D01*
X31006000Y53940000D01*
G37*
G36*
X31006000Y50740000D02*
G01*
X32006000Y50740000D01*
X32006000Y52740000D01*
X31006000Y52740000D01*
X31006000Y50740000D01*
G37*
G36*
X33546000Y53940000D02*
G01*
X34546000Y53940000D01*
X34546000Y55940000D01*
X33546000Y55940000D01*
X33546000Y53940000D01*
G37*
G36*
X33546000Y50740000D02*
G01*
X34546000Y50740000D01*
X34546000Y52740000D01*
X33546000Y52740000D01*
X33546000Y50740000D01*
G37*
G36*
X36086000Y53940000D02*
G01*
X37086000Y53940000D01*
X37086000Y55940000D01*
X36086000Y55940000D01*
X36086000Y53940000D01*
G37*
G36*
X36086000Y50740000D02*
G01*
X37086000Y50740000D01*
X37086000Y52740000D01*
X36086000Y52740000D01*
X36086000Y50740000D01*
G37*
G36*
X38626000Y53940000D02*
G01*
X39626000Y53940000D01*
X39626000Y55940000D01*
X38626000Y55940000D01*
X38626000Y53940000D01*
G37*
G36*
X38626000Y50740000D02*
G01*
X39626000Y50740000D01*
X39626000Y52740000D01*
X38626000Y52740000D01*
X38626000Y50740000D01*
G37*
G36*
X41166000Y53940000D02*
G01*
X42166000Y53940000D01*
X42166000Y55940000D01*
X41166000Y55940000D01*
X41166000Y53940000D01*
G37*
G36*
X41166000Y50740000D02*
G01*
X42166000Y50740000D01*
X42166000Y52740000D01*
X41166000Y52740000D01*
X41166000Y50740000D01*
G37*
%TO.C,U5*%
G36*
X21520000Y17440000D02*
G01*
X21970000Y17440000D01*
X21970000Y17210000D01*
X21520000Y17210000D01*
X21520000Y17440000D01*
G37*
G36*
X21520000Y16990000D02*
G01*
X21970000Y16990000D01*
X21970000Y16760000D01*
X21520000Y16760000D01*
X21520000Y16990000D01*
G37*
G36*
X21520000Y16540000D02*
G01*
X21970000Y16540000D01*
X21970000Y16310000D01*
X21520000Y16310000D01*
X21520000Y16540000D01*
G37*
G36*
X21550000Y18940000D02*
G01*
X22150000Y18940000D01*
X22150000Y17810000D01*
X21550000Y17810000D01*
X21550000Y18940000D01*
G37*
G36*
X22450000Y19180000D02*
G01*
X22750000Y19180000D01*
X22750000Y17880000D01*
X22450000Y17880000D01*
X22450000Y19180000D01*
G37*
G36*
X23050000Y18940000D02*
G01*
X23650000Y18940000D01*
X23650000Y17810000D01*
X23050000Y17810000D01*
X23050000Y18940000D01*
G37*
G36*
X23230000Y17440000D02*
G01*
X23680000Y17440000D01*
X23680000Y17210000D01*
X23230000Y17210000D01*
X23230000Y17440000D01*
G37*
G36*
X23230000Y16990000D02*
G01*
X23680000Y16990000D01*
X23680000Y16760000D01*
X23230000Y16760000D01*
X23230000Y16990000D01*
G37*
G36*
X23230000Y16540000D02*
G01*
X23680000Y16540000D01*
X23680000Y16310000D01*
X23230000Y16310000D01*
X23230000Y16540000D01*
G37*
%TO.C,J9*%
G36*
X45255400Y53940000D02*
G01*
X46255400Y53940000D01*
X46255400Y55940000D01*
X45255400Y55940000D01*
X45255400Y53940000D01*
G37*
G36*
X45255400Y50740000D02*
G01*
X46255400Y50740000D01*
X46255400Y52740000D01*
X45255400Y52740000D01*
X45255400Y50740000D01*
G37*
G36*
X47795400Y53940000D02*
G01*
X48795400Y53940000D01*
X48795400Y55940000D01*
X47795400Y55940000D01*
X47795400Y53940000D01*
G37*
G36*
X47795400Y50740000D02*
G01*
X48795400Y50740000D01*
X48795400Y52740000D01*
X47795400Y52740000D01*
X47795400Y50740000D01*
G37*
G36*
X50335400Y53940000D02*
G01*
X51335400Y53940000D01*
X51335400Y55940000D01*
X50335400Y55940000D01*
X50335400Y53940000D01*
G37*
G36*
X50335400Y50740000D02*
G01*
X51335400Y50740000D01*
X51335400Y52740000D01*
X50335400Y52740000D01*
X50335400Y50740000D01*
G37*
G36*
X52875400Y53940000D02*
G01*
X53875400Y53940000D01*
X53875400Y55940000D01*
X52875400Y55940000D01*
X52875400Y53940000D01*
G37*
G36*
X52875400Y50740000D02*
G01*
X53875400Y50740000D01*
X53875400Y52740000D01*
X52875400Y52740000D01*
X52875400Y50740000D01*
G37*
G36*
X55415400Y53940000D02*
G01*
X56415400Y53940000D01*
X56415400Y55940000D01*
X55415400Y55940000D01*
X55415400Y53940000D01*
G37*
G36*
X55415400Y50740000D02*
G01*
X56415400Y50740000D01*
X56415400Y52740000D01*
X55415400Y52740000D01*
X55415400Y50740000D01*
G37*
G36*
X57955400Y53940000D02*
G01*
X58955400Y53940000D01*
X58955400Y55940000D01*
X57955400Y55940000D01*
X57955400Y53940000D01*
G37*
G36*
X57955400Y50740000D02*
G01*
X58955400Y50740000D01*
X58955400Y52740000D01*
X57955400Y52740000D01*
X57955400Y50740000D01*
G37*
G36*
X60495400Y53940000D02*
G01*
X61495400Y53940000D01*
X61495400Y55940000D01*
X60495400Y55940000D01*
X60495400Y53940000D01*
G37*
G36*
X60495400Y50740000D02*
G01*
X61495400Y50740000D01*
X61495400Y52740000D01*
X60495400Y52740000D01*
X60495400Y50740000D01*
G37*
G36*
X63035400Y53940000D02*
G01*
X64035400Y53940000D01*
X64035400Y55940000D01*
X63035400Y55940000D01*
X63035400Y53940000D01*
G37*
G36*
X63035400Y50740000D02*
G01*
X64035400Y50740000D01*
X64035400Y52740000D01*
X63035400Y52740000D01*
X63035400Y50740000D01*
G37*
%TD*%
D11*
%TO.C,R25*%
X38640000Y76920000D03*
X39660000Y76920000D03*
%TD*%
D12*
%TO.C,C2*%
X37400000Y104140000D03*
X37400000Y105100000D03*
%TD*%
D13*
%TO.C,R8*%
X32010000Y103120000D03*
X30990000Y103120000D03*
%TD*%
D14*
%TO.C,J4*%
X6066250Y102280000D03*
X6066250Y101280000D03*
X6066250Y100780000D03*
X6066250Y99780000D03*
X6066250Y99280000D03*
X6066250Y100280000D03*
X6066250Y101780000D03*
X6066250Y102780000D03*
D15*
X6066250Y104255000D03*
X6066250Y97805000D03*
D16*
X1311250Y105348000D03*
D17*
X5491250Y105348000D03*
X5491250Y96712000D03*
D16*
X1311250Y96712000D03*
D15*
X6066250Y103480000D03*
X6066250Y98580000D03*
%TD*%
D18*
%TO.C,R33*%
X16500000Y93130000D03*
X16500000Y92110000D03*
%TD*%
D19*
%TO.C,SW2*%
X7095000Y110426000D03*
X7095000Y116014000D03*
X10905000Y110426000D03*
X10905000Y116014000D03*
%TD*%
D20*
%TO.C,R27*%
X32750000Y71910000D03*
X32750000Y72930000D03*
%TD*%
D11*
%TO.C,R30*%
X40990000Y71120000D03*
X42010000Y71120000D03*
%TD*%
D12*
%TO.C,C12*%
X38400000Y104140000D03*
X38400000Y105100000D03*
%TD*%
D21*
%TO.C,C5*%
X31020000Y102120000D03*
X31980000Y102120000D03*
%TD*%
D11*
%TO.C,R24*%
X38640000Y78020000D03*
X39660000Y78020000D03*
%TD*%
D20*
%TO.C,R7*%
X35500000Y104110000D03*
X35500000Y105130000D03*
%TD*%
D12*
%TO.C,C17*%
X41800000Y104140000D03*
X41800000Y105100000D03*
%TD*%
D22*
%TO.C,J3*%
X1905000Y64596000D03*
X8005000Y64596000D03*
X1905000Y75996000D03*
X8005000Y75996000D03*
%TD*%
D11*
%TO.C,R4*%
X23190000Y100320000D03*
X24210000Y100320000D03*
%TD*%
D23*
%TO.C,C19*%
X24180000Y97920000D03*
X23220000Y97920000D03*
%TD*%
D24*
%TO.C,J11*%
X58300000Y103570000D03*
X61100000Y103070000D03*
X58300000Y102570000D03*
X61100000Y102070000D03*
X58300000Y101570000D03*
X61100000Y101070000D03*
X58300000Y100570000D03*
X61100000Y100070000D03*
X58300000Y99570000D03*
X61100000Y99070000D03*
X58300000Y98570000D03*
X61100000Y98070000D03*
X58300000Y97570000D03*
X61100000Y97070000D03*
X58300000Y96570000D03*
X61100000Y96070000D03*
X58300000Y95570000D03*
X61100000Y95070000D03*
X58300000Y94570000D03*
X61100000Y94070000D03*
X58300000Y93570000D03*
X61100000Y93070000D03*
D25*
X61100000Y104570000D03*
X58300000Y104570000D03*
X61100000Y92070000D03*
X58300000Y92070000D03*
%TD*%
D26*
%TO.C,U9*%
X28649900Y72920000D03*
X28649900Y71970000D03*
X28649900Y71020000D03*
X31250100Y71020000D03*
X31250100Y72920000D03*
%TD*%
D18*
%TO.C,R28*%
X17600000Y79330000D03*
X17600000Y78310000D03*
%TD*%
D20*
%TO.C,R1*%
X8600000Y97810000D03*
X8600000Y98830000D03*
%TD*%
D13*
%TO.C,R21*%
X39260000Y79620000D03*
X38240000Y79620000D03*
%TD*%
D27*
%TO.C,C4*%
X38100000Y90400000D03*
X38100000Y89440000D03*
%TD*%
D28*
%TO.C,D3*%
X45787500Y73120000D03*
X44212500Y73120000D03*
%TD*%
D13*
%TO.C,R12*%
X47510000Y101820000D03*
X46490000Y101820000D03*
%TD*%
D29*
%TO.C,U2*%
X62750000Y86320000D03*
X61250000Y86320000D03*
X59750000Y86320000D03*
X58250000Y86320000D03*
X56750000Y86320000D03*
X55250000Y86320000D03*
X53750000Y86320000D03*
D30*
X52700000Y84320000D03*
X52700000Y82820000D03*
X52700000Y81320000D03*
X52700000Y79820000D03*
X52700000Y78320000D03*
X52700000Y76820000D03*
X52700000Y75320000D03*
D29*
X53750000Y73320000D03*
X55250000Y73320000D03*
X56750000Y73320000D03*
X58250000Y73320000D03*
X59750000Y73320000D03*
X61250000Y73320000D03*
X62750000Y73320000D03*
%TD*%
D31*
%TO.C,C24*%
X25650000Y80020000D03*
X23750000Y80020000D03*
%TD*%
D32*
%TO.C,U6*%
X36350000Y82860000D03*
X35850000Y82860000D03*
X35350000Y82860000D03*
X34850000Y82860000D03*
X34850000Y81380000D03*
X35350000Y81380000D03*
X35850000Y81380000D03*
X36350000Y81380000D03*
%TD*%
D27*
%TO.C,C11*%
X44500000Y93800000D03*
X44500000Y92840000D03*
%TD*%
D13*
%TO.C,R26*%
X36460000Y73920000D03*
X35440000Y73920000D03*
%TD*%
D11*
%TO.C,R13*%
X55490000Y88020000D03*
X56510000Y88020000D03*
%TD*%
D33*
%TO.C,J7*%
X22600000Y66320000D03*
X20600000Y66320000D03*
D34*
X25000000Y61120000D03*
X18200000Y61120000D03*
%TD*%
D18*
%TO.C,R34*%
X12500000Y116030000D03*
X12500000Y115010000D03*
%TD*%
D27*
%TO.C,C6*%
X32000000Y100700000D03*
X32000000Y99740000D03*
%TD*%
D31*
%TO.C,C25*%
X25650000Y82020000D03*
X23750000Y82020000D03*
%TD*%
D23*
%TO.C,C13*%
X30980000Y97520000D03*
X30020000Y97520000D03*
%TD*%
D35*
%TO.C,U11*%
X36450000Y72420100D03*
X35500000Y72420100D03*
X34550000Y72420100D03*
X34550000Y69819900D03*
X36450000Y69819900D03*
%TD*%
D26*
%TO.C,D2*%
X8699900Y101770000D03*
X8699900Y100820000D03*
X8699900Y99870000D03*
X11300100Y99870000D03*
X11300000Y100820000D03*
X11300100Y101770000D03*
%TD*%
D18*
%TO.C,R9*%
X29500000Y104230000D03*
X29500000Y103210000D03*
%TD*%
D23*
%TO.C,C28*%
X32030000Y69870000D03*
X31070000Y69870000D03*
%TD*%
D36*
%TO.C,L1*%
X29500000Y99395000D03*
X29500000Y100845000D03*
%TD*%
D12*
%TO.C,C22*%
X24500000Y75540000D03*
X24500000Y76500000D03*
%TD*%
D13*
%TO.C,R6*%
X3310000Y109220000D03*
X2290000Y109220000D03*
%TD*%
D37*
%TO.C,D4*%
X8750000Y60405000D03*
X9850000Y60405000D03*
X9850000Y62235000D03*
X8750000Y62235000D03*
%TD*%
D27*
%TO.C,C29*%
X37800000Y72900000D03*
X37800000Y71940000D03*
%TD*%
D11*
%TO.C,R22*%
X12990000Y70420000D03*
X14010000Y70420000D03*
%TD*%
D12*
%TO.C,C8*%
X33500000Y104140000D03*
X33500000Y105100000D03*
%TD*%
D38*
%TO.C,J13*%
X4889000Y115230000D03*
X4889000Y114230000D03*
X4889000Y113230000D03*
X4889000Y112230000D03*
D39*
X1214000Y110930000D03*
X1214000Y116530000D03*
%TD*%
D21*
%TO.C,C33*%
X28870000Y69870000D03*
X29830000Y69870000D03*
%TD*%
D13*
%TO.C,R19*%
X20810000Y74820000D03*
X19790000Y74820000D03*
%TD*%
D21*
%TO.C,C23*%
X19820000Y75820000D03*
X20780000Y75820000D03*
%TD*%
D40*
%TO.C,D6*%
X44212500Y75120000D03*
X45787500Y75120000D03*
%TD*%
D27*
%TO.C,C34*%
X7250000Y62300000D03*
X7250000Y61340000D03*
%TD*%
D41*
%TO.C,SW1*%
X22006000Y107025000D03*
X27594000Y107025000D03*
X22006000Y103215000D03*
X27594000Y103215000D03*
%TD*%
D23*
%TO.C,C1*%
X45480000Y97920000D03*
X44520000Y97920000D03*
%TD*%
D42*
%TO.C,D1*%
X13600000Y76620000D03*
X13600000Y72620000D03*
%TD*%
D21*
%TO.C,C31*%
X34370000Y75020000D03*
X35330000Y75020000D03*
%TD*%
D43*
%TO.C,Y1*%
X47650000Y92670000D03*
X47650000Y94370000D03*
X46350000Y94370000D03*
X46350000Y92670000D03*
%TD*%
D44*
%TO.C,L2*%
X55275000Y70720000D03*
X53725000Y70720000D03*
%TD*%
D45*
%TO.C,F2*%
X10900000Y97420000D03*
X13700000Y97420000D03*
%TD*%
D26*
%TO.C,U10*%
X37250100Y76420000D03*
X37250100Y77370000D03*
X37250100Y78320000D03*
X34649900Y78320000D03*
X34649900Y76420000D03*
%TD*%
D46*
%TO.C,J14*%
X14600000Y84302000D03*
X14600000Y85402000D03*
X14600000Y86502000D03*
X14600000Y87602000D03*
X14600000Y88702000D03*
X14600000Y89802000D03*
X14600000Y90902000D03*
X14600000Y92002000D03*
X14600000Y93102000D03*
D47*
X14000000Y94302000D03*
D48*
X4500000Y94302000D03*
X4500000Y78802000D03*
D49*
X14100000Y79702000D03*
%TD*%
D50*
%TO.C,U3*%
X24195000Y91145000D03*
X25465000Y91145000D03*
X26735000Y91145000D03*
X28005000Y91145000D03*
X28005000Y96695000D03*
X26735000Y96695000D03*
X25465000Y96695000D03*
X24195000Y96695000D03*
%TD*%
D13*
%TO.C,R16*%
X24210000Y89820000D03*
X23190000Y89820000D03*
%TD*%
D51*
%TO.C,C21*%
X20250000Y80020000D03*
X22150000Y80020000D03*
%TD*%
D40*
%TO.C,D7*%
X44212500Y69120000D03*
X45787500Y69120000D03*
%TD*%
D27*
%TO.C,C3*%
X34500000Y105100000D03*
X34500000Y104140000D03*
%TD*%
D11*
%TO.C,R32*%
X40990000Y69120000D03*
X42010000Y69120000D03*
%TD*%
D20*
%TO.C,R35*%
X20000000Y103210000D03*
X20000000Y104230000D03*
%TD*%
D18*
%TO.C,R2*%
X8600000Y104230000D03*
X8600000Y103210000D03*
%TD*%
D27*
%TO.C,C16*%
X44500000Y96300000D03*
X44500000Y95340000D03*
%TD*%
D32*
%TO.C,U7*%
X39250000Y82860000D03*
X38750000Y82860000D03*
X38250000Y82860000D03*
X37750000Y82860000D03*
X37750000Y81380000D03*
X38250000Y81380000D03*
X38750000Y81380000D03*
X39250000Y81380000D03*
%TD*%
D52*
%TO.C,L3*%
X30000000Y75345000D03*
X30000000Y80895000D03*
%TD*%
D23*
%TO.C,C30*%
X37530000Y75020000D03*
X36570000Y75020000D03*
%TD*%
D27*
%TO.C,C18*%
X30600000Y94600000D03*
X30600000Y93640000D03*
%TD*%
%TO.C,C10*%
X31000000Y100700000D03*
X31000000Y99740000D03*
%TD*%
D53*
%TO.C,C35*%
X16825000Y87620000D03*
X18375000Y87620000D03*
%TD*%
D11*
%TO.C,R3*%
X23190000Y99120000D03*
X24210000Y99120000D03*
%TD*%
D13*
%TO.C,R11*%
X47510000Y99420000D03*
X46490000Y99420000D03*
%TD*%
D54*
%TO.C,Q1*%
X56600000Y70020000D03*
X57600000Y70020000D03*
X57100000Y71170000D03*
%TD*%
D13*
%TO.C,R10*%
X47510000Y96720000D03*
X46490000Y96720000D03*
%TD*%
D11*
%TO.C,R5*%
X4290000Y109220000D03*
X5310000Y109220000D03*
%TD*%
D20*
%TO.C,R17*%
X19405000Y92518400D03*
X19405000Y93538400D03*
%TD*%
D27*
%TO.C,C27*%
X39100000Y72900000D03*
X39100000Y71940000D03*
%TD*%
D12*
%TO.C,C36*%
X10400000Y103240000D03*
X10400000Y104200000D03*
%TD*%
D13*
%TO.C,R18*%
X36360000Y79620000D03*
X35340000Y79620000D03*
%TD*%
D12*
%TO.C,C32*%
X37800000Y69340000D03*
X37800000Y70300000D03*
%TD*%
D13*
%TO.C,R14*%
X51010000Y81320000D03*
X49990000Y81320000D03*
%TD*%
D21*
%TO.C,C9*%
X46520000Y95720000D03*
X47480000Y95720000D03*
%TD*%
D13*
%TO.C,R20*%
X22810000Y74520000D03*
X21790000Y74520000D03*
%TD*%
%TO.C,R23*%
X42010000Y73120000D03*
X40990000Y73120000D03*
%TD*%
D23*
%TO.C,C7*%
X47480000Y91120000D03*
X46520000Y91120000D03*
%TD*%
D20*
%TO.C,R29*%
X16400000Y78310000D03*
X16400000Y79330000D03*
%TD*%
D41*
%TO.C,SW3*%
X12406000Y107025000D03*
X17994000Y107025000D03*
X12406000Y103215000D03*
X17994000Y103215000D03*
%TD*%
D11*
%TO.C,R31*%
X40990000Y75120000D03*
X42010000Y75120000D03*
%TD*%
D12*
%TO.C,C20*%
X19405000Y94548400D03*
X19405000Y95508400D03*
%TD*%
D55*
%TO.C,F1*%
X17100000Y71732400D03*
X17100000Y76507600D03*
%TD*%
D40*
%TO.C,D5*%
X44212500Y71120000D03*
X45787500Y71120000D03*
%TD*%
D27*
%TO.C,C14*%
X35200000Y90500000D03*
X35200000Y89540000D03*
%TD*%
D12*
%TO.C,C26*%
X16450000Y68640000D03*
X16450000Y69600000D03*
%TD*%
D20*
%TO.C,R15*%
X58600000Y70210000D03*
X58600000Y71230000D03*
%TD*%
D56*
%TO.C,J12*%
X55521500Y99620000D03*
X55521500Y100620000D03*
X55521500Y101620000D03*
D57*
X52996500Y98320000D03*
X52996500Y102920000D03*
%TD*%
D27*
%TO.C,C15*%
X39800000Y90100000D03*
X39800000Y89140000D03*
%TD*%
%TO.C,C15*%
X39800000Y30980000D03*
X39800000Y30020000D03*
%TD*%
D56*
%TO.C,J12*%
X55521500Y40500000D03*
X55521500Y41500000D03*
X55521500Y42500000D03*
D57*
X52996500Y39200000D03*
X52996500Y43800000D03*
%TD*%
D20*
%TO.C,R15*%
X58600000Y11090000D03*
X58600000Y12110000D03*
%TD*%
D12*
%TO.C,C26*%
X16450000Y9520000D03*
X16450000Y10480000D03*
%TD*%
D27*
%TO.C,C14*%
X35200000Y31380000D03*
X35200000Y30420000D03*
%TD*%
D40*
%TO.C,D5*%
X44212500Y12000000D03*
X45787500Y12000000D03*
%TD*%
D55*
%TO.C,F1*%
X17100000Y12612400D03*
X17100000Y17387600D03*
%TD*%
D12*
%TO.C,C20*%
X19405000Y35428400D03*
X19405000Y36388400D03*
%TD*%
D11*
%TO.C,R31*%
X40990000Y16000000D03*
X42010000Y16000000D03*
%TD*%
D41*
%TO.C,SW3*%
X12406000Y47905000D03*
X17994000Y47905000D03*
X12406000Y44095000D03*
X17994000Y44095000D03*
%TD*%
D20*
%TO.C,R29*%
X16400000Y19190000D03*
X16400000Y20210000D03*
%TD*%
D23*
%TO.C,C7*%
X47480000Y32000000D03*
X46520000Y32000000D03*
%TD*%
D13*
%TO.C,R23*%
X42010000Y14000000D03*
X40990000Y14000000D03*
%TD*%
%TO.C,R20*%
X22810000Y15400000D03*
X21790000Y15400000D03*
%TD*%
D21*
%TO.C,C9*%
X46520000Y36600000D03*
X47480000Y36600000D03*
%TD*%
D13*
%TO.C,R14*%
X51010000Y22200000D03*
X49990000Y22200000D03*
%TD*%
D12*
%TO.C,C32*%
X37800000Y10220000D03*
X37800000Y11180000D03*
%TD*%
D13*
%TO.C,R18*%
X36360000Y20500000D03*
X35340000Y20500000D03*
%TD*%
D12*
%TO.C,C36*%
X10400000Y44120000D03*
X10400000Y45080000D03*
%TD*%
D27*
%TO.C,C27*%
X39100000Y13780000D03*
X39100000Y12820000D03*
%TD*%
D20*
%TO.C,R17*%
X19405000Y33398400D03*
X19405000Y34418400D03*
%TD*%
D11*
%TO.C,R5*%
X4290000Y50100000D03*
X5310000Y50100000D03*
%TD*%
D13*
%TO.C,R10*%
X47510000Y37600000D03*
X46490000Y37600000D03*
%TD*%
D54*
%TO.C,Q1*%
X56600000Y10900000D03*
X57600000Y10900000D03*
X57100000Y12050000D03*
%TD*%
D13*
%TO.C,R11*%
X47510000Y40300000D03*
X46490000Y40300000D03*
%TD*%
D11*
%TO.C,R3*%
X23190000Y40000000D03*
X24210000Y40000000D03*
%TD*%
D53*
%TO.C,C35*%
X16825000Y28500000D03*
X18375000Y28500000D03*
%TD*%
D27*
%TO.C,C10*%
X31000000Y41580000D03*
X31000000Y40620000D03*
%TD*%
%TO.C,C18*%
X30600000Y35480000D03*
X30600000Y34520000D03*
%TD*%
D23*
%TO.C,C30*%
X37530000Y15900000D03*
X36570000Y15900000D03*
%TD*%
D52*
%TO.C,L3*%
X30000000Y16225000D03*
X30000000Y21775000D03*
%TD*%
D32*
%TO.C,U7*%
X39250000Y23740000D03*
X38750000Y23740000D03*
X38250000Y23740000D03*
X37750000Y23740000D03*
X37750000Y22260000D03*
X38250000Y22260000D03*
X38750000Y22260000D03*
X39250000Y22260000D03*
%TD*%
D27*
%TO.C,C16*%
X44500000Y37180000D03*
X44500000Y36220000D03*
%TD*%
D18*
%TO.C,R2*%
X8600000Y45110000D03*
X8600000Y44090000D03*
%TD*%
D20*
%TO.C,R35*%
X20000000Y44090000D03*
X20000000Y45110000D03*
%TD*%
D11*
%TO.C,R32*%
X40990000Y10000000D03*
X42010000Y10000000D03*
%TD*%
D27*
%TO.C,C3*%
X34500000Y45980000D03*
X34500000Y45020000D03*
%TD*%
D40*
%TO.C,D7*%
X44212500Y10000000D03*
X45787500Y10000000D03*
%TD*%
D51*
%TO.C,C21*%
X20250000Y20900000D03*
X22150000Y20900000D03*
%TD*%
D13*
%TO.C,R16*%
X24210000Y30700000D03*
X23190000Y30700000D03*
%TD*%
D50*
%TO.C,U3*%
X24195000Y32025000D03*
X25465000Y32025000D03*
X26735000Y32025000D03*
X28005000Y32025000D03*
X28005000Y37575000D03*
X26735000Y37575000D03*
X25465000Y37575000D03*
X24195000Y37575000D03*
%TD*%
D46*
%TO.C,J14*%
X14600000Y25182000D03*
X14600000Y26282000D03*
X14600000Y27382000D03*
X14600000Y28482000D03*
X14600000Y29582000D03*
X14600000Y30682000D03*
X14600000Y31782000D03*
X14600000Y32882000D03*
X14600000Y33982000D03*
D47*
X14000000Y35182000D03*
D48*
X4500000Y35182000D03*
X4500000Y19682000D03*
D49*
X14100000Y20582000D03*
%TD*%
D26*
%TO.C,U10*%
X37250100Y17300000D03*
X37250100Y18250000D03*
X37250100Y19200000D03*
X34649900Y19200000D03*
X34649900Y17300000D03*
%TD*%
D45*
%TO.C,F2*%
X10900000Y38300000D03*
X13700000Y38300000D03*
%TD*%
D44*
%TO.C,L2*%
X55275000Y11600000D03*
X53725000Y11600000D03*
%TD*%
D43*
%TO.C,Y1*%
X47650000Y33550000D03*
X47650000Y35250000D03*
X46350000Y35250000D03*
X46350000Y33550000D03*
%TD*%
D21*
%TO.C,C31*%
X34370000Y15900000D03*
X35330000Y15900000D03*
%TD*%
D42*
%TO.C,D1*%
X13600000Y17500000D03*
X13600000Y13500000D03*
%TD*%
D23*
%TO.C,C1*%
X45480000Y38800000D03*
X44520000Y38800000D03*
%TD*%
D41*
%TO.C,SW1*%
X22006000Y47905000D03*
X27594000Y47905000D03*
X22006000Y44095000D03*
X27594000Y44095000D03*
%TD*%
D27*
%TO.C,C34*%
X7250000Y3180000D03*
X7250000Y2220000D03*
%TD*%
D40*
%TO.C,D6*%
X44212500Y16000000D03*
X45787500Y16000000D03*
%TD*%
D21*
%TO.C,C23*%
X19820000Y16700000D03*
X20780000Y16700000D03*
%TD*%
D13*
%TO.C,R19*%
X20810000Y15700000D03*
X19790000Y15700000D03*
%TD*%
D21*
%TO.C,C33*%
X28870000Y10750000D03*
X29830000Y10750000D03*
%TD*%
D38*
%TO.C,J13*%
X4889000Y56110000D03*
X4889000Y55110000D03*
X4889000Y54110000D03*
X4889000Y53110000D03*
D39*
X1214000Y51810000D03*
X1214000Y57410000D03*
%TD*%
D12*
%TO.C,C8*%
X33500000Y45020000D03*
X33500000Y45980000D03*
%TD*%
D11*
%TO.C,R22*%
X12990000Y11300000D03*
X14010000Y11300000D03*
%TD*%
D27*
%TO.C,C29*%
X37800000Y13780000D03*
X37800000Y12820000D03*
%TD*%
D37*
%TO.C,D4*%
X8750000Y1285000D03*
X9850000Y1285000D03*
X9850000Y3115000D03*
X8750000Y3115000D03*
%TD*%
D13*
%TO.C,R6*%
X3310000Y50100000D03*
X2290000Y50100000D03*
%TD*%
D12*
%TO.C,C22*%
X24500000Y16420000D03*
X24500000Y17380000D03*
%TD*%
D36*
%TO.C,L1*%
X29500000Y40275000D03*
X29500000Y41725000D03*
%TD*%
D23*
%TO.C,C28*%
X32030000Y10750000D03*
X31070000Y10750000D03*
%TD*%
D18*
%TO.C,R9*%
X29500000Y45110000D03*
X29500000Y44090000D03*
%TD*%
D26*
%TO.C,D2*%
X8699900Y42650000D03*
X8699900Y41700000D03*
X8699900Y40750000D03*
X11300100Y40750000D03*
X11300000Y41700000D03*
X11300100Y42650000D03*
%TD*%
D35*
%TO.C,U11*%
X36450000Y13300100D03*
X35500000Y13300100D03*
X34550000Y13300100D03*
X34550000Y10699900D03*
X36450000Y10699900D03*
%TD*%
D23*
%TO.C,C13*%
X30980000Y38400000D03*
X30020000Y38400000D03*
%TD*%
D31*
%TO.C,C25*%
X25650000Y22900000D03*
X23750000Y22900000D03*
%TD*%
D27*
%TO.C,C6*%
X32000000Y41580000D03*
X32000000Y40620000D03*
%TD*%
D18*
%TO.C,R34*%
X12500000Y56910000D03*
X12500000Y55890000D03*
%TD*%
D33*
%TO.C,J7*%
X22600000Y7200000D03*
X20600000Y7200000D03*
D34*
X25000000Y2000000D03*
X18200000Y2000000D03*
%TD*%
D11*
%TO.C,R13*%
X55490000Y28900000D03*
X56510000Y28900000D03*
%TD*%
D13*
%TO.C,R26*%
X36460000Y14800000D03*
X35440000Y14800000D03*
%TD*%
D27*
%TO.C,C11*%
X44500000Y34680000D03*
X44500000Y33720000D03*
%TD*%
D32*
%TO.C,U6*%
X36350000Y23740000D03*
X35850000Y23740000D03*
X35350000Y23740000D03*
X34850000Y23740000D03*
X34850000Y22260000D03*
X35350000Y22260000D03*
X35850000Y22260000D03*
X36350000Y22260000D03*
%TD*%
D31*
%TO.C,C24*%
X25650000Y20900000D03*
X23750000Y20900000D03*
%TD*%
D29*
%TO.C,U2*%
X62750000Y27200000D03*
X61250000Y27200000D03*
X59750000Y27200000D03*
X58250000Y27200000D03*
X56750000Y27200000D03*
X55250000Y27200000D03*
X53750000Y27200000D03*
D30*
X52700000Y25200000D03*
X52700000Y23700000D03*
X52700000Y22200000D03*
X52700000Y20700000D03*
X52700000Y19200000D03*
X52700000Y17700000D03*
X52700000Y16200000D03*
D29*
X53750000Y14200000D03*
X55250000Y14200000D03*
X56750000Y14200000D03*
X58250000Y14200000D03*
X59750000Y14200000D03*
X61250000Y14200000D03*
X62750000Y14200000D03*
%TD*%
D13*
%TO.C,R12*%
X47510000Y42700000D03*
X46490000Y42700000D03*
%TD*%
D28*
%TO.C,D3*%
X45787500Y14000000D03*
X44212500Y14000000D03*
%TD*%
D27*
%TO.C,C4*%
X38100000Y31280000D03*
X38100000Y30320000D03*
%TD*%
D13*
%TO.C,R21*%
X39260000Y20500000D03*
X38240000Y20500000D03*
%TD*%
D20*
%TO.C,R1*%
X8600000Y38690000D03*
X8600000Y39710000D03*
%TD*%
D18*
%TO.C,R28*%
X17600000Y20210000D03*
X17600000Y19190000D03*
%TD*%
D26*
%TO.C,U9*%
X28649900Y13800000D03*
X28649900Y12850000D03*
X28649900Y11900000D03*
X31250100Y11900000D03*
X31250100Y13800000D03*
%TD*%
D24*
%TO.C,J11*%
X58300000Y44450000D03*
X61100000Y43950000D03*
X58300000Y43450000D03*
X61100000Y42950000D03*
X58300000Y42450000D03*
X61100000Y41950000D03*
X58300000Y41450000D03*
X61100000Y40950000D03*
X58300000Y40450000D03*
X61100000Y39950000D03*
X58300000Y39450000D03*
X61100000Y38950000D03*
X58300000Y38450000D03*
X61100000Y37950000D03*
X58300000Y37450000D03*
X61100000Y36950000D03*
X58300000Y36450000D03*
X61100000Y35950000D03*
X58300000Y35450000D03*
X61100000Y34950000D03*
X58300000Y34450000D03*
X61100000Y33950000D03*
D25*
X61100000Y45450000D03*
X58300000Y45450000D03*
X61100000Y32950000D03*
X58300000Y32950000D03*
%TD*%
D23*
%TO.C,C19*%
X24180000Y38800000D03*
X23220000Y38800000D03*
%TD*%
D11*
%TO.C,R4*%
X23190000Y41200000D03*
X24210000Y41200000D03*
%TD*%
D22*
%TO.C,J3*%
X1905000Y5476000D03*
X8005000Y5476000D03*
X1905000Y16876000D03*
X8005000Y16876000D03*
%TD*%
D12*
%TO.C,C17*%
X41800000Y45020000D03*
X41800000Y45980000D03*
%TD*%
D20*
%TO.C,R7*%
X35500000Y44990000D03*
X35500000Y46010000D03*
%TD*%
D11*
%TO.C,R24*%
X38640000Y18900000D03*
X39660000Y18900000D03*
%TD*%
D21*
%TO.C,C5*%
X31020000Y43000000D03*
X31980000Y43000000D03*
%TD*%
D12*
%TO.C,C12*%
X38400000Y45020000D03*
X38400000Y45980000D03*
%TD*%
D11*
%TO.C,R30*%
X40990000Y12000000D03*
X42010000Y12000000D03*
%TD*%
D20*
%TO.C,R27*%
X32750000Y12790000D03*
X32750000Y13810000D03*
%TD*%
D19*
%TO.C,SW2*%
X7095000Y51306000D03*
X7095000Y56894000D03*
X10905000Y51306000D03*
X10905000Y56894000D03*
%TD*%
D18*
%TO.C,R33*%
X16500000Y34010000D03*
X16500000Y32990000D03*
%TD*%
D14*
%TO.C,J4*%
X6066250Y43160000D03*
X6066250Y42160000D03*
X6066250Y41660000D03*
X6066250Y40660000D03*
X6066250Y40160000D03*
X6066250Y41160000D03*
X6066250Y42660000D03*
X6066250Y43660000D03*
D15*
X6066250Y45135000D03*
X6066250Y38685000D03*
D16*
X1311250Y46228000D03*
D17*
X5491250Y46228000D03*
X5491250Y37592000D03*
D16*
X1311250Y37592000D03*
D15*
X6066250Y44360000D03*
X6066250Y39460000D03*
%TD*%
D13*
%TO.C,R8*%
X32010000Y44000000D03*
X30990000Y44000000D03*
%TD*%
D12*
%TO.C,C2*%
X37400000Y45020000D03*
X37400000Y45980000D03*
%TD*%
D11*
%TO.C,R25*%
X38640000Y17800000D03*
X39660000Y17800000D03*
%TD*%
M02*
